<?xml version="1.0"?>
<svg xmlns:rdf="http://www.w3.org/1999/02/22-rdf-syntax-ns#" xmlns="http://www.w3.org/2000/svg" xmlns:cc="http://web.resource.org/cc/" xmlns:xlink="http://www.w3.org/1999/xlink" xmlns:dc="http://purl.org/dc/elements/1.1/" xmlns:svg="http://www.w3.org/2000/svg" id="Layer_1" style="enable-background:new 0 0 165.933 352.235" xml:space="preserve" viewBox="0 0 165.933 352.235" version="1.1" y="0px" x="0px">
<path clip-rule="evenodd" d="m64.894 34.585h0.479c1.764 0.316 2.48 1.679 4.32 1.92-0.006 1.126 1.545 0.695 1.439 1.92-2.229-0.091-2.413-2.227-5.04-1.92 0.083-1.121-1.215-0.864-1.198-1.92z" fill-rule="evenodd"/>
<path clip-rule="evenodd" d="m48.814 36.745c0.42 0.619 0.098 1.982 0.96 2.16 0.621-0.498 0.152-2.087 1.68-1.68 0.161 1.841-0.954 2.406-2.16 2.88-0.518-0.442-1.182-0.738-1.68-1.2-0.063-1.182-0.093-2.333 1.2-2.16z" fill-rule="evenodd"/>
<path clip-rule="evenodd" d="m56.013 38.185c-1.96-0.697-2.086 1.278-3.84 1.44-0.085-0.315-0.422-0.377-0.479-0.72 0.734-0.955 3.869-3.813 4.319-0.72z" fill-rule="evenodd"/>
<path clip-rule="evenodd" d="m58.654 38.185c-0.46 1.38-2.029 1.651-3.84 1.68-0.357-1.396 0.834-1.245 1.92-1.2 0.211-0.445 1.378-1.161 1.92-0.48z" fill-rule="evenodd"/>
<path clip-rule="evenodd" d="m61.293 40.345c0.297 0.777-0.776 0.184-0.479 0.96 0.475 0.564 1.671 0.409 2.399 0.72-0.25 1.64-2.392 0.397-3.84 0.48-0.263-1.062 0.406-1.193 0.479-1.92-0.977-0.017-1.137 0.783-2.399 0.48 0.039-0.279-0.053-0.427-0.24-0.48 0.209-1.354 3.94-1.647 4.08-0.24z" fill-rule="evenodd"/>
<path clip-rule="evenodd" d="m54.574 53.305c1.547 0.98 1.756-1.438 3.359-1.2-0.093 2.019-2.649 2.748-4.56 2.16 0.048-1.553 0.595-2.605 2.16-2.64-0.811-0.79-1.392-1.809-1.92-2.88-1.754 1.687-4.088 2.792-7.92 2.4-1.471-0.932-3.595-2.483-3.12-4.56 1.048-0.223 0.844 0.957 1.2 1.44 0.695 0.945 1.607 1.499 2.64 2.16 3.203 0.403 4.655-0.945 6.48-1.92-0.112-0.723-0.927-2.358 0-2.64-0.462-0.775-2.619-1.085-3.12-2.16-0.251-0.537-0.691-1.844 0.239-2.4 1.031 0.111 0.306 0.81 0.48 1.2 1.455 3.252 8.55 1.771 10.32 4.8 0.807 0.313 2.048 0.192 2.399 0.96-0.447 1.193-2.296-0.007-2.88-0.24-0.892 0.628-2.162 0.877-3.6 0.96-0.65 0.549-0.657 1.743-0.96 2.64 0.895-0.375 1.673-0.531 2.399-0.96 0.857-0.506 1.403-1.635 2.641-1.68-0.431 3.167-4.698 2.5-6.237 4.56zm-0.481-5.52c1.754 0.049 2.975 0.249 4.32-0.48-0.944-1.376-3.452-1.188-5.04-1.92-0.375 0.61 0.482 1.648 0.72 2.4z" fill-rule="evenodd"/>
<path clip-rule="evenodd" d="m60.814 43.225c1.331 0.348 2.969 0.391 2.88 2.16-1.62 0.34-1.251-1.309-2.88-0.96v-1.2z" fill-rule="evenodd"/>
<path clip-rule="evenodd" d="m53.133 49.225c1.728 0.846-1.452 3.207-2.64 2.64 0.51-1.251 2.388-1.132 2.64-2.64z" fill-rule="evenodd"/>
<path clip-rule="evenodd" d="m42.814 49.705c0.731 0.411-0.471 1.384-0.961 2.16-0.551 0.873-0.959 1.984-1.68 2.4-0.854 2.425-2.217 4.343-3.12 6.72-0.554 1.097 0.559 2.49-0.72 2.64-0.896-0.686-0.564-2.385-0.24-3.12 0.654-1.482 1.442-3.458 2.4-4.8 1.154-1.617 2.389-4.382 3.6-6h0.721z" fill-rule="evenodd"/>
<path clip-rule="evenodd" d="m95.133 51.625c0.806 0.481 0.93 4.234-0.479 4.08-0.336-0.979-0.637-3.776 0.479-4.08z" fill-rule="evenodd"/>
<path clip-rule="evenodd" d="m53.853 54.745c-0.973 1.187-0.947 3.373-1.68 4.8-1.516-1.341 0.398-3.723 0.721-4.8h0.959z" fill-rule="evenodd"/>
<path clip-rule="evenodd" d="m50.013 59.785c3.549 0.953 3.877 4.797 1.2 7.2-1.391-0.01-1.745 0.352-2.64-0.24-0.063-1.184 1.381-0.859 2.16-1.2 0.724-1.025 1.195-1.968 0.96-3.12-0.226-1.104-1.985-1.411-1.68-2.64z" fill-rule="evenodd"/>
<path clip-rule="evenodd" d="m93.454 116.18h0.479c1.056 0.996 0.277 1.26 0.48 2.16 0.143 0.629 0.429 1.203 0.72 1.68 1.052 1.724 5.366 4.347 3.36 7.44-0.626 0.965-1.831 1.208-3.84 1.2-0.163-0.558-0.798-0.643-0.96-1.2 0.32-1.52 0.374-3.305 1.92-3.6 0.649 0.884-0.271 1.858 0 3.12 1.003 0.204 0.95-0.65 1.439-0.96-0.348-4.01-5.333-4.52-3.598-9.84z" fill-rule="evenodd"/>
<path clip-rule="evenodd" d="m119.37 119.78c-5.439-0.501-5.784 5.176-5.04 10.08-1.949-0.827-2.505-3.418-2.4-5.28 0.212-3.751 3.383-5.801 6.721-6.24 0.86-0.13 0.73 0.72 0.72 1.44z" fill-rule="evenodd"/>
<path clip-rule="evenodd" d="m116.97 123.86c0.279-0.039 0.428 0.053 0.48 0.24 0.155 1.515-0.901 1.818-1.2 2.88 0.101 2.3 0.48 4.32 1.2 6-3.63-1.09-2.71-7.08-0.48-9.12z" fill-rule="evenodd"/>
<path clip-rule="evenodd" d="m94.654 132.98c-1.267 2.577 0.429 4.546 0.479 7.2-2.875-0.51-3.426-6.22-0.479-7.2z" fill-rule="evenodd"/>
<path clip-rule="evenodd" d="m119.37 136.58c-0.227 1.087-1.489 0.756-2.16 0.96-1.335 0.405-2.469 0.88-3.6 1.68-0.708 0.5-1.062 1.522-2.16 1.44-0.006-0.565 0.413-0.707 0.24-1.44 2.03-1.13 4.6-4.13 7.68-2.64z" fill-rule="evenodd"/>
<path clip-rule="evenodd" d="m47.853 153.14c0.816 0.304 1.107 1.133 1.44 1.92 0.528 0.352 1.789-0.029 1.92 0.72-0.997 1.978-4.688-0.001-4.319-2.4 0.213-0.18 0.541-0.25 0.959-0.24z" fill-rule="evenodd"/>
<path clip-rule="evenodd" d="m97.053 164.18c-0.031 2.258-1.364 3.103-1.439 5.04-0.141 3.588 3.405 6.316 2.64 10.08-3.133-2.031-5.092-7.816-3.12-12.72 0.354-0.88 0.805-2.4 1.919-2.4z" fill-rule="evenodd"/>
<path clip-rule="evenodd" d="m92.013 210.74h0.721c0.972 3.27 3.035 5.445 5.04 7.682 0.854 0.424 2.26 0.299 2.159 1.68-2.178 0.467-4.035-1.381-5.76-2.16 0.362 2.219 2.829 3.541 2.641 5.52-1.001-0.217-3.637-2.43-4.08-4.08-0.202-0.75 0.143-1.879 0-2.879-0.326-2.28-2.013-3.62-0.721-5.76z" fill-rule="evenodd"/>
<path clip-rule="evenodd" d="m96.814 223.94c0.258 1.877-1.59 2.336-2.4 3.359-0.159 0.201-0.306 0.693-0.48 0.961-0.831 1.27-1.781 3.125-2.64 5.279-0.511 1.283-1.319 3.402-1.44 5.52-0.199 3.506 0.974 7.717-0.239 11.281-1.106 3.246-4.955 5.367-5.761 9.119-1.711-0.299-1.179-0.475-1.199-1.199-0.09-3.174 3.252-4.947 4.319-7.441 1.691-3.949-0.342-10.139 0.96-15.119 1.156-4.422 5.246-9.986 8.4-11.76h0.48z" fill-rule="evenodd"/>
<path clip-rule="evenodd" d="m105.69 236.43c0.278-0.039 0.427 0.053 0.479 0.238 0.783 2.08 0.531 4.52 0.24 6.48-0.361 2.436-1.186 5.123-2.16 6.961-0.75 1.414-2.093 2.631-2.88 4.08-0.81 1.488-1.189 3.695-3.12 3.84-0.257-0.721 0.407-1.387 0.72-1.92 3.13-5.34 7.12-10.5 6.72-19.68z" fill-rule="evenodd"/>
<path clip-rule="evenodd" d="m64.414 252.02c0.571 0.963-0.301 1.713-0.96 2.879-1.957 3.465-3.993 11.709-2.16 17.281 0.539 1.637 0.972 2.5 1.92 3.6 2.276 2.637 5.846 4.701 11.04 4.799-0.02-2.146 0.706-3.908 0.96-5.76 0.302-2.197 0.539-4.02 1.44-5.76 0.122-0.234 0.774-0.406 0.96-0.719 0.229-0.387 0.014-0.852 0.239-1.201 1.334-2.059 3.748-4.506 5.761-5.76 0.382-0.238 0.835-0.422 1.2-0.721 0.757-0.617 0.955-1.863 2.159-1.68-0.04 2.791-3.329 3.602-5.04 5.521-0.976 1.094-1.477 2.91-2.399 4.559-0.691 1.234-1.811 2.184-2.16 4.08-0.97 5.258-0.244 11.016 2.16 14.641 1.212 0.578 2.185 1.715 4.319 1.68 0.989-0.016 3.391-0.557 5.041-0.959 0.66-0.162 1.226-0.629 1.92-0.721 2.035-0.27 4.628-0.33 6.479-0.24 3.744 0.182 5.331 1.732 8.4-0.24 0.312-0.201 0.342-0.65 0.72-0.959 0.363-0.297 0.953-0.258 1.2-0.48 3.332-3.02 5.43-7.373 4.56-12.961-0.283-1.82-1.339-3.574-0.72-5.52 1.752 0.076 2.746 3.488 3.12 5.279 0.77 3.691-0.602 6.713-1.92 9.361-1.104 2.213-2.15 3.91-4.08 5.52-1.094 0.912-2.656 1.785-4.32 2.16 1.864 7.672-8.588 7.232-11.76 4.32-0.358-1.482-0.876-2.805-0.96-4.561-2.296 0.467-5.343 0.865-7.681 1.92-1.464-0.375-2.987-0.691-4.079-1.439-0.901 0.777-3.451-0.092-3.841 1.199-1.059-1.1-2.777-1.541-4.319-2.16-0.314-2.564-0.561-5.199-1.44-7.199-7.893-1.461-12.818-6.959-11.52-17.041 0.08-0.621 0.54-1.373 0.72-2.16 0.2-0.875 0.043-1.855 0.24-2.639 0.846-3.359 2.551-6.318 4.08-7.92h0.724z" fill-rule="evenodd"/>
<path clip-rule="evenodd" d="m99.694 257.78c2.646 0.824 1.152 6.297 0.239 7.92-1.538-0.711-0.137-3.07-0.239-4.801-0.06-0.99-0.454-1.523-0.48-2.398 0.224-0.17 0.364-0.43 0.48-0.72z" fill-rule="evenodd"/>
<path clip-rule="evenodd" d="m105.45 266.43c0.973-0.094 0.265 1.494 0.479 2.158-1.726 2.596-8.122 4.463-9.84 0.48 3.894 0.73 7.31-0.77 9.36-2.64z" fill-rule="evenodd"/>
<path clip-rule="evenodd" d="m98.973 284.19c0.521-2.152 2.633-5.148 1.921-7.92-0.345-1.338-1.738-1.775-2.4-2.881 0.104-0.295 0.307-0.492 0.72-0.48 1.627 0.295 2.101 1.74 3.12 2.641-0.066 1.729-0.021 3.408-0.48 4.801-0.49 1.49-1.52 3.27-2.877 3.84z" fill-rule="evenodd"/>
<path clip-rule="evenodd" d="m73.053 294.02c2.396 0.352 4.64 1.977 7.44 1.439 1.389-0.266 1.93-1.43 3.359-1.439 1.828 5.131 1.741 12.178 3.601 17.279-1.495 3.688-9.498 5.006-12.48 1.68-0.522-5.88-1.637-12.15-1.92-18.96z" fill-rule="evenodd"/>
<path clip-rule="evenodd" d="m104.73 298.1c0.944 2.324 1.96 5.252 2.64 8.16 0.707 3.021 0.438 6.342 2.4 8.398-1.274 0.094-2.437 1.283-3.12 2.641-3.454 0.74-8.578 1.033-9.601-1.68-0.327-0.869-0.046-2.035-0.239-3.119-0.166-0.926-0.761-1.844-0.961-2.881-0.342-1.781-0.13-3.82-0.479-5.52-0.312-1.516-1.458-2.781-0.96-4.08 1.317-0.57 3.692 0.566 6 0.24 1.67-0.238 2.939-1.012 3.6-2.16h0.72z" fill-rule="evenodd"/>
<path clip-rule="evenodd" d="m72.093 332.9c-1.973 0.283-4.368-0.846-5.04-2.639 0.779-0.604 1.661 0.293 1.92 0.959 1.284 0.32 2.632 0.57 3.12 1.68z" fill-rule="evenodd"/>
<path clip-rule="evenodd" d="m100.65 331.46c-0.724 0.316-1.305 0.775-2.4 0.721-0.276-0.285-0.271-0.85-0.24-1.441 0.85-0.78 2.73-1.04 2.64 0.72z" fill-rule="evenodd"/>
<path clip-rule="evenodd" d="m108.33 333.14c0.431-0.029 0.506 0.295 0.96 0.24 1.515 2.355-0.849 3.496-2.399 4.801-0.552 0.463-2.6 2.031-3.36 1.92 0.86-3.06 4.9-2.94 4.8-6.96z" fill-rule="evenodd"/>
<path clip-rule="evenodd" d="m91.534 336.51c-1.767-1.955 2.118-3.674 1.92-1.441-0.095 1.06-0.788 0.99-1.92 1.44z" fill-rule="evenodd"/>
<path clip-rule="evenodd" d="m102.09 339.86c-0.367 0.725-1.794 0.871-2.88 0.959-2.133 0.174-5.335 0.52-7.439 0.24-0.983-0.131-2.356-0.834-3.36-1.199-1.225-0.445-2.953-0.504-2.4-2.16 1.153-0.496 1.477 1.062 1.92 0.48-0.067-0.389 0.228-0.414 0.24-0.721h0.721c0.746 4.24 8.724 1.21 13.198 2.4z" fill-rule="evenodd"/>
<path clip-rule="evenodd" d="m68.494 338.19c0.249 2.15 1.59 3.209 2.64 4.559-2.113 0.658-4.649-2.596-3.359-4.559h0.719z" fill-rule="evenodd"/>
<path clip-rule="evenodd" d="m96.574 61.465c-0.576 0.02-0.369 0.494-0.721 0.96-0.736 0.98-1.088 1.216-1.92 2.64-0.724 1.24-1.576 2.277-2.64 3.6-1.249 1.554-1.579 1.941-3.12 2.64-2.441-0.587-4.14-3.692-2.88-6.48 1.868 0.34 0.946 1.99 1.68 3.36 4.054-0.224 5.982-3.918 7.921-7.2 1.125-1.906 2.33-3.746 2.88-4.8 0.317-0.61 0.32-2.589 0.239-3.84-0.208-3.237-0.906-6.905-2.16-9.6-1.039-0.751-1.568-1.932-2.64-2.16-4.568-0.973-5.453 5.499-9.12 6 0.664-1.657 2.272-2.368 2.88-4.08-3.029 1.21-4.465 4.015-5.76 6.96-1.811-1.16-3.773 0.308-5.28 0 0.649-3.055-0.12-6.045 0.48-9.12 1.506 0.974 1.621 3.339 2.88 4.56-0.2-2.212-2.386-4.822-3.6-6.96-0.579-0.098-0.522 0.438-1.2 0.24-0.271-1.649-1.826-2.014-2.641-3.12-0.572 0.334 0.896 1.45 0 2.16-1.814-0.826-3.398-1.881-5.279-2.64 0.184-0.613 0.354-1.104-0.24-1.44 0.755-0.619 1.588 0.323 2.16-0.48 0.08-0.647-1.123-2.072-2.16-2.4-0.712 0.057 0.963 0.892 0 1.2-0.975-0.146-1.297-0.943-1.439-1.92 0.499-0.521 0.775 0.029 1.199 0.24-1.432-2.371-3.232-1.534-6.72-0.96-0.987 0.163-1.853 0.03-2.64 0.24-1.782 0.475-5.155 1.738-6.96 2.16-1.052 2.468-2.104 4.936-3.841 6.72 0.386 1.054 1.998 0.883 1.681 2.64-1.179-0.182-1.521-0.753-2.16 0.24-0.293 0.702 1.619 1.254 1.92 2.16-0.04 2.68-0.911 4.529-3.12 5.04-0.17-1.209 0.885-1.195 0.96-2.16-10.05-0.067-22.841-1.265-30.72-4.32-1.237-0.48-2.282-1.178-3.601-1.68-0.973-0.37-2.071-0.375-2.88-0.72-3.952-1.688-9.887-7.012-7.439-13.2 2.291-1.484 4.899-0.007 8.399 0.72 1.926 0.4 3.521-0.134 4.801 0.96 12.078 0.947 20.279-0.83 29.04-3.6 0.887-1.833 2.99-2.449 4.56-3.6 0.273-1.952 0.292-3.373 0.96-4.8 0.046-0.099 0.118-0.78 0.24-0.96 0.157-0.233 0.88-0.326 1.2-0.72 0.297-0.366 0.259-1.004 0.479-1.2 0.256-0.227 1.312-0.823 1.92-1.2 1.603-0.994 4.224-2.2 6.721-2.64 2.02-0.355 4.34 0.019 6.72-0.24 3.03-0.329 5.748-1.533 8.399-1.68 1.163-0.597 2.136-1.385 3.84-1.44-0.176-1.177-0.372-2.239 0-3.36 2.846-3.144 8.85-2.747 11.761 0.24-0.072 1.048-0.386 1.855-0.72 2.64 3.171-0.044 6.498 0.345 9.359 0.96 1.663 0.357 2.458 0.736 3.84 1.2 1.244 0.417 1.852 0.834 3.12 1.44 1.826 0.872 3.233 1.534 4.8 2.88 1.263 1.085 3.366 4.236 3.601 6.24 0.341 2.912-1.007 4.057-2.16 6 1.345 2.848 5.981 3.3 4.56 8.16-2.38 1.38-1.426 6.094-4.319 6.96 1.202 4.791-1.328 7.177-2.88 10.32-0.93 1.882-1.422 3.979-2.881 5.04-2.009 5.305-6.191 10.716-7.439 17.28-1.06 5.573 0.011 11.193 0.24 17.04 2.238-2.375 4.197-5.104 6.239-7.68 2.055-2.591 3.89-5.391 6.24-7.68 0.981-3.179 3.753-4.567 5.04-7.44 3.738-3.142 6.4-7.36 9.84-10.8 2.146-2.146 4.717-3.969 6.24-6.72 4.717-4.004 8.885-8.556 14.16-12 4.195-1.867 10.604-1.082 13.92 1.2 0.248 0.808 1.001 1.106 1.439 1.68 0.768 1.002 1.5 2.32 1.681 4.08 0.599 5.844-3.255 11.329-5.76 15.12-0.528 0.273-0.798 0.803-1.44 0.96-0.139 0.501-0.595 0.685-0.48 1.44-0.787 0.092-1.058 0.702-1.68 0.96-0.229 0.49-0.49 0.95-0.72 1.44-0.35 0.454-1.035 0.561-1.44 0.96-0.697 0.686-0.78 1.649-1.439 2.4-0.131 0.148-0.571 0.076-0.721 0.24-1.056 1.162-2.641 2.699-3.84 4.08-2.041 2.353-4.688 5.439-6.96 7.68-1.876 1.852-3.867 3.24-6.239 4.8-0.259 0.622-0.868 0.892-0.961 1.68-0.928-0.208-0.854 0.586-1.439 0.72-1.198 1.957-3.455 2.902-5.04 4.56-0.916 0.958-1.39 2.257-2.4 3.12-2.786 2.379-6.534 3.823-8.399 7.2-2.062 1.218-3.695 2.865-5.04 4.8 0.147 1.453 0.972 2.229 1.2 3.6 1.845 1.051 4.656 1.79 6.479 3.12 1.332 0.972 3.028 2.846 2.4 5.04-1.176-0.038-0.886-1.205-1.44-1.68-0.899-0.77-2.748-1.132-4.08-1.92-0.471-0.278-0.775-0.935-1.199-1.2-1.236-0.773-2.697-0.694-3.601-1.68-0.917-1-0.642-2.516-1.2-3.84-0.927-2.2-2.626-3.066-4.56-4.08-0.61 5.312-9.763 5.44-9.601-0.72-4.728 1.071-6.817 7.676-4.08 12.24 0.322 1.118 2.158 0.723 1.681 2.64-1.673-0.327-2.686-1.314-3.84-2.16-0.685 2.527 2.105 3.652 2.64 5.76-1.834-0.006-2.19-1.49-3.6-1.92-0.792 0.358 0.803 0.283 0.479 0.96-0.809 0.381-1.332 0.866-1.92 1.44-0.05 0.048-0.452 0.2-0.479 0.24-0.767 1.102-1.048 2.929-1.44 4.32-0.392 1.385-1.033 1.814-0.479 3.6 0.837 2.706 3.901 4.398 5.279 6.48 0.404 0.611 1.104 1.869 0.48 2.64-1.245-0.195-1.494-1.387-2.4-1.92-1.549 1.755-0.803 3.148-0.72 5.52 0.05 1.448 0.11 3.12 0.72 4.56 2.13 5.03 8.227 7.357 5.04 14.4-0.144 0.318-0.771 0.387-0.96 0.72-0.568 1.007-1.615 3.849-1.2 6 0.296 1.533 1.972 2.399 1.2 4.8-0.265 0.823-1.08 1.332-1.439 2.16-0.958 2.204-0.735 4.353 0.239 6.239 1.499 2.9 2.869 3.791 6.48 5.041 1.316 0.455 2.764 0.51 4.08 0.959 0.794 0.273 1.44 0.996 2.159 1.201 1.586 0.449 3.199-0.031 4.32 0.959 0.237 2.719-0.749 4.211-1.2 6.24-6.484 0.471-12.204-1.865-16.319-4.561-1.436 3.104-3.125 6.568-2.16 10.561 0.591 2.449 3.263 4.322 3.359 6.721-2.12-0.359-2.67-2.289-4.079-3.359-3.832 1.723-5.192 6.91-6.48 11.039-0.156 0.502-0.61 0.922-0.72 1.439-0.407 1.928-0.092 3.844-0.721 5.521-0.552 1.471-2.095 3.062-3.119 4.318-0.185 0.227-0.285 0.502-0.48 0.721-0.972 1.084-2.515 2.961-3.12 4.801-0.431-0.031-0.506 0.293-0.96 0.238-0.817 3.143-3.522 6.43-4.32 10.08-0.723 3.316-0.035 6.697 0.721 10.08-2.488-0.609-3.306-3.348-3.36-5.76-0.075-3.352 1.833-7.131 2.4-9.6h0.96c-0.104-0.377-0.755-0.205-0.48-0.959 1.906-2.576 3.388-5.574 5.521-7.92-0.347-0.375-0.967-0.475-0.72-1.441 0.677-0.037 0.601 0.68 0.959 0.961 1.021-0.773 1.107-1.988 1.921-3.121 0.386-0.537 1.332-0.98 1.68-1.68 1.337-2.688 0.349-6.467 1.92-9.359 0.299-1.01 1.106-1.285 0.72-2.4 0.631 0.07 0.189-0.932 0.96-0.721 0.512-3.889 3.089-5.711 5.761-7.439-1.256-5.043-0.273-11.498 2.88-13.68-0.57-1.818 0.269-3.959 1.2-5.041-0.952-2.051-2.353-2.807-2.641-4.799-0.236-1.635 0.343-4.506 0.96-6 0.386-0.934 1.143-1.18 1.2-2.16 0.084-1.438-1.29-2.648-1.44-4.08-0.259-2.477 0.991-3.535 1.2-5.76-3.002-1.63-7.234-3.412-10.8-5.04-3.067-1.401-6.978-3.433-11.28-0.96-2.047-0.913-5.196-0.724-6.479-2.4-0.146-0.575-0.346-1.095-0.24-1.92-2.845 0.195-3.308 2.773-4.8 4.32 0.344 2.984-0.736 4.544-2.16 5.76-3.823 0.5-7.181-1.823-8.88-4.32-1.495-2.195-1.399-6.771 3.12-6.72 1.238-0.602 2.024-1.655 2.88-2.64-0.364-1.59 0.065-3.746 1.439-4.32v-2.4c0.39-0.571 0.954-0.966 1.44-1.44-0.095-2.575 1.092-3.869 3.36-4.08 1.092-1.548 2.787-2.492 3.84-4.08 1.044-0.245 1.104 0.497 1.68 0.72 1.048-0.22 1.466-0.699 2.64-0.24 9.461-11.02 18.78-22.18 27.36-34.08-2.684-2.356-6.174-3.906-9.6-5.52-0.686-1.579 0.287-2.467 0.72-3.6-0.013-4.377-5.832-4.894-10.32-4.8-1.27 0.027-3.135 0.875-3.84 0-0.776-0.296-0.184 0.776-0.96 0.48-4.835-0.524-6.205-4.515-8.88-7.2-2.657 1.309-6.714 1.531-5.52-2.64-1.478 0.112-2.582 0.785-3.841 0.48-1.332-0.323-1.717-1.836-2.64-2.4-0.052-1.309 0.165-2.885-0.24-3.84-1.207-1.333-3.651-1.792-6-2.64-1.248-0.451-3.19-0.415-3.12-2.16 1.774 0.226 2.794 1.207 4.561 1.44 0.478-0.339-0.969-0.775-0.48-1.92 2.229-0.07 4.052 0.269 4.8 1.68-0.6 1.189-2.297-1.616-3.119 0.24 3.012 0.828 5.314 2.366 5.039 6.48 2.421-0.266 4.704 1.202 7.2 0.96-0.193-1.454-2.188-2.228-1.2-4.08 0.902 1.178 1.473 2.688 2.641 3.6 0.812 0.632 2.987 1.166 2.64 2.16-0.633 1.312-1.701-0.771-2.64-0.72-0.207 1.167 0.687 1.233 0.479 2.4 1.756-0.316 2.421 0.459 3.601 0.72 1.47 2.284 2.202 5.267 5.76 6 4.152 0.855 10.252-1.302 14.16 0.48 0.818 0.373 2.857 2.222 3.12 3.36 0.379 1.645-0.003 2.896-0.96 4.08 0.58 0.94 1.376 1.664 2.88 1.68 4.07 2.304 7.946 4.096 9.84 8.4 0.534 1.214 0.429 2.699 1.44 3.6 1.978 0.624 4.286 0.133 4.8-1.44-0.689-1.479-1.132-4.102-2.4-5.52-2.146-5.844-2.226-13.833-2.64-22.56 1.2-2.96 0.549-7.771 2.64-9.84-1.166-1.415 0.392-2.31 0.24-4.08-1.063-0.023-0.276 1.803-1.2 1.92-1.161-0.095 0.056-1.176-0.24-1.92-0.82 1.1-1.1 2.74-1.92 3.84-1.529-0.412 0.358-2.555 0.484-3.595zm-16.8-57.84c0.354 1.166 2.395 0.645 2.399 2.16-1.037 0.661-2.883 1.887-4.08 2.16-2.341 0.533-3.249 1.113-5.279 1.68-2.783 0.776-5.648 0.743-8.641 0.96-3.195 0.231-6.137 1.263-9.12 1.68 0.021 0.831-0.761 0.426-1.2 0.72-1.12 0.748-1.843 2.261-3.359 2.64-1.275 2.218-0.865 4.705-1.92 6.96-1.199 0.481-2.168 1.192-3.601 1.44-0.074 0.726 0.267 1.867-0.479 1.92-0.727-0.073-0.857-0.742-1.92-0.48-7.959 3.735-23.211 4.887-33.601 2.64-1.394-0.301-3.007-1.533-4.319-0.48 2.713 1.134 5.07 3.362 8.16 4.32 0.914 0.284 2.091 0.229 3.119 0.48 0.971 0.237 1.93 0.792 2.881 0.96 2.957 0.522 6.069 0.356 9.119 0.48 4.425 0.18 7.874-0.407 11.761-1.2 2.225-0.454 4.82-0.883 6.239-1.44 2.262-0.888 4.428-1.823 6.48-2.4 4.643-1.306 9.524-2.238 14.88-2.88 1.736-0.208 3.509-0.815 5.28-0.96 3.561-0.292 7.421-0.168 11.04 0 4.174 0.194 8.19 1.239 12.239 2.16 1.189 1.25 3.74 1.467 4.561 2.4 0.096 0.109 0.587-0.072 0.72 0 2.104 1.141 4.081 2.353 6 3.36 0.229 0.49 0.49 0.95 0.72 1.44 2.129 0.032 2.589 1.732 4.08 2.4 0.092-3.256 2.378-4.817 2.16-7.68-1.253-2.15-4.083-1.987-4.319-4.56-0.226-2.444 2.976-4.779 1.68-7.68-1.348-1.692-2.508-3.572-4.08-5.04-1.382 0.346-1.827-1.11-2.88-1.68-1.799-0.974-6.248-1.935-8.4-2.16-2.264-0.237-3.521-0.726-5.04-0.96-1.287-0.198-2.771 0.304-3.84-0.72-0.787-1.151 0.172-2.3 0.48-3.12-1.786-0.145-6.756-2.388-7.916 0.48zm-10.08 28.56c0.142-0.766-0.451-0.742 0-1.2-0.908 0.348-0.461-0.659-1.2-0.48 0.205 0.755 0.445 1.474 1.2 1.68zm1.68-0.96c-0.425-0.216-0.7-0.58-1.2-0.72-0.118 0.62 0.848 1.361 1.2 0.72zm4.559 2.88c-0.069-1.111-2.38-2.337-2.159-2.16 0.454 0.985 1.312 1.567 2.159 2.16zm0.24 1.92c-0.523-1.556-2.46-1.7-3.359-2.88 0.513 1.567 2.176 1.983 3.359 2.88zm80.397 20.64c0.67-0.891 1.03-1.946 1.68-2.88 0.095-0.136 0.647-0.121 0.72-0.24 0.327-0.538 0.369-1.448 0.721-2.16 1.049-2.128 2.308-5.672 1.439-8.88-0.066-0.245-0.523-0.279-0.72-0.72-0.219-0.494-0.065-1.066-0.24-1.44-1.29-2.765-6.318-3.203-9.6-3.12-0.646 0.06 1.162 0.864 0.24 1.2-0.497 0.542-1.086-0.417-1.92-0.48-1.251-0.095-2.498 0.163-2.881 1.2 0.407 0.473 1.67 0.09 1.681 0.96-1.306 1.274-4.338-1.147-5.28 1.44 0.879 0.561 2.84 0.041 2.64 1.68-2.267-0.408-5.575-0.478-6.239 1.44 1.794 0.525 4.34 0.299 4.8 2.16-1.336-0.168-2.872-0.853-4.561-0.72-0.32 0.025-0.854 0.4-1.2 0.48-0.892 0.206-2.09-0.108-1.92 1.2 2.452 0.058 4.315 1.029 6 1.68 0.512 0.198 1.407 0.332 1.681 0.96-2.558-0.011-7.124-1.6-10.08 0 2.396 0.803 5.234 1.165 6.24 3.36-2.657-0.923-5.134-2.331-8.641-1.2 1.105 1.295 3.355 1.445 5.04 2.16v0.96c-2.087-0.488-5.351-2.038-7.68-0.72 1.039 0.481 2.543 0.497 3.12 1.44 1.538 0.622 3.897 0.422 4.08 2.4-2.928-0.724-6.772-3.082-10.08-1.2 3.327 0.432 6.132 1.388 7.92 3.36-2.491 0.311-5.169-2.495-8.64-1.2 1.22 0.859 3.886 0.273 4.56 1.68-2.087 0.185-4.186-0.375-5.521 0.24-0.569 0.262-2.051 0.11-2.399 0.96 1.563-0.043 3.005 0.035 3.6 0.96-0.262 1.247-1.696 0.069-2.88 0.24-1.333 0.192-3.391 1.522-3.84 2.16-0.22 0.312-0.766 0.569 0 0.72 0.799-0.484 3 0.066 4.8 0.48-0.638 1.417-2.927 0.518-4.56 0.72-1.595 0.197-3.172 0.581-3.36 1.92 0.816 0.624 2.355 0.524 3.36 0.96v0.96c-1.998 0.175-5.292-1.01-5.521 1.44 0.975 0.242 1.673-0.729 1.681 0.48-1.119 0.561-2.481 0.879-3.601 1.44-0.039 0.902 2.021 0.499 1.2 1.44-0.63 1.162-1.492-0.551-2.64 0.24-0.704 1.166 0.476 1.5 0.479 2.64-1.094 0.293-0.941-0.658-1.92-0.48-1.044 2.34-0.397 6.161-0.72 8.64-1.364-1.008-1.609-3.687-1.2-5.76-1.121 0.05-0.425 1.408-0.48 2.16-0.175 2.399-0.007 5.808 0.24 7.44-1.834-0.966-1.671-3.929-1.92-6.48-0.075-0.386-0.342 0.019-0.24 0.48-0.329 4.011 1.813 6.826 1.44 10.08-0.86-0.688-1.295-1.987-1.68-3.12-0.595-1.748-1.052-3.79-1.681-5.52-0.521 1.238-0.107 3.412-0.24 5.04 0.76 1.722 2.271 3.966 2.16 5.76-1.424-0.096-1.122-1.917-2.16-2.4 0.353 1.647 0.497 3.503 0.721 5.28 2.506 0.774 4.806 1.754 6.479 3.36 0.433-0.688 0.901-1.338 1.44-1.92 2.699-1.621 4.532-4.108 6.72-6.24 1.997-1.48 4.229-2.805 5.76-4.32 1.928-1.907 3.798-4.25 5.521-6 1.438-1.461 3.421-3.002 4.8-4.08 1.42-1.11 2.704-1.969 3.84-3.12 0.175-2.757 1.169-5.1 0.96-7.44-0.07-0.787-0.827-1.312-0.24-2.16 0.916 0.354 1.305 1.989 1.44 3.36 0.151 1.533-0.525 3.323 0.24 4.08 0.747-2.069-0.269-4.34-0.24-6.48-0.231-0.502-1.362-1.339-0.72-1.92 2.112 0.847 1.63 4.29 3.359 5.52 0.381-3.342-0.481-6.716-0.72-8.64 1.925 1.195 2.146 4.095 2.64 6.72 0.326-1.466 0.33-3.541 0.24-5.04-0.102-1.709-1.571-2.979-1.199-4.32 2.244 0.956 2.058 4.342 3.119 6.48 0.889-2.413 0.314-6.667 0-8.4 2.329 0.551 1.604 4.157 2.4 6.24 0.624-2.304 0.245-5.608 0.48-7.68 1.72 0.52 1.079 3.4 1.439 5.28 1.56-1.584 4.66-5.095 6.24-7.195zm-111.84-17.76c0.111-0.751-0.209-1.071-0.96-0.96-0.165 0.805 0.402 0.877 0.96 0.96zm35.279 4.32c-0.106-2.455-1.923-4.475-3.119-5.04 1.313 1.407 1.879 3.56 3.119 5.04zm-0.72 4.56c-0.568-1.992-1.488-3.632-2.399-5.28 0.291 2.268 1.175 3.945 2.399 5.28zm2.401-1.2c-0.189-1.011-0.065-2.334-0.96-2.64-0.033 1.233-0.012 2.411 0.96 2.64zm-3.841 0.96c-0.026-0.613-0.439-0.84-0.72-1.2-0.113 0.754 0.3 0.981 0.72 1.2zm3.12 0.48c-0.184-0.696-0.379-1.38-0.96-1.68 0.096 0.785 0.209 1.551 0.96 1.68zm19.437 11.52c-0.01-0.713 0.714-1.918-0.24-2.16 0.15 0.651-0.301 1.905 0.24 2.16zm-1.676-0.24c-0.03-0.4 0.777-1.527-0.24-1.44 0.137 0.422-0.29 1.41 0.24 1.44zm-31.681 71.515c-1.434 0.806-2.416 2.063-3.12 3.6 2.293 1.098 5.268 0.147 7.44 1.44 0.622 0.371 1.066 1.472 1.44 1.44 0.42-0.035 1.394-1.908 2.159-2.64 1.055-1.009 1.756-1.406 2.4-2.16 1.21-1.415 2.963-2.197 3.6-3.84-0.447-0.958-1.311-3.635-0.239-4.56 0.55 0.09 0.319 0.96 0.72 1.2-0.21-1.556-2.286-4.827 0.24-5.52 0.152-1.648-0.655-5.399 1.439-4.32-0.69-2.091 0.572-3.778 0.48-5.04-5.056 7.27-11.277 13.37-16.559 20.4zm16.561-9.84c-0.454-0.746-0.315-2.084-0.96-2.64 0.23 0.97 0.2 2.2 0.96 2.64zm-1.441 2.64c0.012-1.212-0.094-2.307-0.479-3.12-0.458 1.01-0.198 2.55 0.479 3.12zm-8.88 14.64c0.726 3.522-1.071 6.452-0.96 9.36 1.312 1.607 3.797 1.141 5.04 2.4 3.071 0.048 6.737 2.428 10.08 2.16-3.725-2.723-5.73-11.797-2.4-16.56-1.194-1.685-2.114-3.645-4.08-4.56-2.342 2.62-4.782 5.14-7.68 7.2zm-12.96 0.48c1.497 2.201 6.153-0.056 6.72 2.4 0.446 1.934-2.377 2.548-3.12 4.08-0.493 1.914 0.89 3.027 0.48 4.08-1.406-0.354-2.355-1.165-2.16-3.12-1.929 0.631-1.452 3.667-2.64 5.04 1.279 1.52 3.391 2.209 5.76 2.64 2.466-0.542 4.753-1.294 6.96-1.2 0.357 0.015 0.06 0.38 0.24 0.48 0.171 0.094 0.42-0.287 0.72-0.24 3.574 0.557 5.576 2.486 8.64 3.84 2.686 1.187 5.225 1.995 7.2 3.36 0.782-1.738 0.829-4.038 0-5.76-5.576-0.583-9.459-2.86-15.12-3.36-1.388-1.317-3.205-1.414-3.6-3.36-0.643-3.168 3.039-7.839 0-10.32-1.592-0.811-3.527-0.392-5.28-0.72-0.364-0.068-0.71-0.557-1.2-0.72-0.678-0.226-1.316-0.02-1.68-0.24-1.301-0.787-1.078-1.972-2.4-2.64-0.8 1.93-0.176 4.04 0.48 5.76zm-3.12-0.72c0.206 1.063 2.987 4.193 4.561 4.56 1.276 0.298 3.271 0.396 3.6-1.2-0.615-0.709-2.711 0.004-4.32-0.24-2.221-0.979-3.206-3.193-3.359-6.24-0.257 1.09-0.726 1.87-0.482 3.12zm-3.599 0.96c-0.032 0.716 1.718 3.576 3.359 4.8 2.067 1.541 5.115 2.204 6.48 0.24-4.177 0.256-5.84-2-7.44-4.32-0.453-0.667 0.231-2.471-0.72-2.64-1.034 0.08-1.642 1.1-1.679 1.92zm0.239 6.48c0.319 0.281 1.963 1.237 2.641 1.44 1.123 0.338 2.977 0.671 3.6-0.48-3.721-0.358-6.012-2.148-7.199-5.04h-0.721c0.074 1.37 0.594 3.13 1.679 4.08zm0.24 2.64c-1.354-0.709-1.542-2.96-3.12-2.88-1.453 3.769 6.726 6.504 8.641 3.36-2.202-0.64-3.953 0.34-5.521-0.48zm-9.359 4.32c-0.645 4.569 3.188 7.768 7.68 7.2 1.409-1.311 0.4-5.04 1.92-6.24-2.336-0.464-3.419-2.181-5.04-3.36-0.319 2.01-2.933 1.71-4.56 2.4z" fill-rule="evenodd"/>
<path clip-rule="evenodd" d="m95.374 50.905c-2.429 0.028-1.904-2.896-3.12-4.08-4.193 0.786-0.011 5.059-1.68 7.68 5.026 1.694-0.414 9.5-3.84 5.52-1.064-3.194 1.957-4.028 2.64-6.24-0.362-1.489-1.131-1.736-1.2-3.12-0.164-3.277 3.145-6.887 5.521-5.04 0.711 0.553 0.562 1.667 0.96 3.12 0.216 0.793 1.13 1.444 0.719 2.16z" fill-rule="evenodd"/>
<path clip-rule="evenodd" d="m123.45 118.34c0.472 0.729 0.577 1.823 0.479 3.12 3.167 2.095 7.191 1.543 10.08 3.36 1.632 1.026 2.709 2.893 4.32 3.84 0.681 0.4 1.696 0.644 2.4 0.96 2.104 0.945 4.274 2.234 6.72 3.36 1.245 1.795 3.511 2.569 4.8 4.32 0.076 0.563 0.379 0.9 0.24 1.68 3.357 2.482 7.586 4.094 12.72 4.8-0.129 0.849 0.389 1.052 0.72 1.44-2.577 6.58-5.389 13.069-8.64 18.96-0.667 1.208-1.486 2.605-2.64 3.36-4.123 10.598-10.935 18.506-17.04 27.119-0.23 0.73-0.964 0.957-1.2 1.682 0.564 1.572 2.089 3.871 0.48 5.52 1.463-0.537 2.916-1.084 3.84-2.16-0.881-1.119-2.771-1.23-3.12-2.881 2.414-0.355 5.425 1.201 6.72 2.881 0.379 0.492 0.929 1.684 1.2 2.641 0.494 1.746 0.366 3.945 0.96 5.279 1.185 2.66 5.111 4.973 5.76 8.641 0.353 1.992 0.068 3.619-0.479 5.76-0.981 0.299-1.925 0.635-2.641 1.199 0.414 1.818 0.211 3.549-0.96 4.801-1.932 2.064-7.606 4.068-11.04 3.359-1.957-0.404-2.535-2.117-3.84-2.879-0.926-0.047-0.256 1.504-0.72 1.92-0.594 0.285-0.938 0.82-1.2 1.439-2.448 1.041-5.188 0.664-6.96-0.721-0.67 5.73-2.886 9.914-6.72 12.48-0.131 0.99-0.614 1.625-1.2 2.16 0.156 3.219 0.539 7.305-1.68 9.119 1.21 5.691-1.395 11.508-6.48 12.48 0.02-1.816 1.858-2.27 2.64-3.359 0.771-1.076 1.69-3.094 1.921-4.801 0.186-1.377-0.492-3.033-0.24-4.561 0.188-1.137 1.202-1.963 1.68-2.879-0.079-2.764-0.577-4.545 0-6.48 1.422-4.77 7.655-5.783 6.72-12.24-0.08-0.555-0.492-0.781-0.72-1.439-0.359-1.041-0.342-2.322-0.72-3.359-0.333-0.914-1.033-1.627-1.2-2.641-0.511-3.104 0.369-6.074-0.96-9.119-0.918 0.842-1.646 1.873-1.44 3.84-0.678 0.121-1.019 0.58-1.68 0.719 0.921 3.34-0.612 5.82-1.2 8.4-2.063 0.896-1.467 4.453-3.6 5.279 0.377-4.953 4.549-7.221 3.36-12.959-2.086 0.379-4.121-0.797-4.561-2.4-0.896-3.27 1.769-5.738 1.92-8.879 0.077-1.592-0.86-3.045-0.96-4.561-0.364-5.572 3.989-6.992 6.48-8.641-1.962-0.059-4.538-0.242-6.96-0.48-1.645-1.713-0.401-5.68 0.72-7.439 3.073 0.074 6.293 0.641 9.12 0.24 3.614-4.785 7.803-8.996 11.76-13.439-0.097-0.943-1.055-1.025-1.2-1.92-0.792 1.016-1.744 1.832-2.64 2.879-2.155 2.518-4.132 5.832-7.44 7.439 0.274-1.207 1.339-2.303 2.16-3.119 2.404-2.391 4.978-4.99 6.96-8.16-0.301-0.738-0.261-1.819-0.96-2.16-2.477 2.483-3.862 6.056-7.2 7.679-0.384-1.084 1.055-1.719 1.681-2.398 0.696-0.758 1.247-1.74 1.92-2.641 1.219-1.633 3.179-3.468 2.64-6-1.293 0.867-2.138 2.183-2.88 3.6-1.376 1.069-2.399 2.135-3.84 3.36-0.436 0.37-0.578 1.392-1.44 0.96 0.041-1.318 0.979-1.742 1.92-2.16 0.408-1.303 1.78-1.998 2.88-3.12 0.115-0.117-0.122-0.613 0-0.72 1.103-0.969 3.702-3.591 2.641-6.24-2.366 2.034-3.797 5.003-6.72 6.48 1.816-4.158 6.965-5.805 6.959-11.04-2.588 1.972-3.95 5.169-6.959 6.72-0.123-1.563 1.16-1.719 1.92-2.4 0.933-1.463 1.889-2.673 2.88-4.08 0.833-1.184 2.391-2.401 2.399-4.32-2.059 1.302-4.055 4.745-6.479 6.48-0.169 0.825 1.092 1.446 0.239 2.16-1.338-0.262-1.039-2.16-2.159-2.64-0.403-2.904-0.942-5.144-0.48-8.4-0.337-1.305-1.387-0.406-1.439-1.92-1.57-0.75-3.136-1.504-4.32-2.64-1.078-3.271 1.354-5.243 2.88-6.96 0.72-0.81 1.002-1.932 1.92-2.16-0.032 3.046-3.823 3.815-3.6 6.72 0.168 2.182 2.653 2.824 4.56 4.08 2.912-1.888 5.273-4.327 7.2-7.2 0.14-0.94-0.987-0.613-1.2-1.2-2.802 1.678-3.745 5.215-7.2 6.24 1.645-2.436 3.812-4.349 5.761-6.48-2.81-3.324-5.175 4.392-8.641 4.56 1.804-2.517 4.223-4.417 6.24-6.72 5.63-0.109 8.852 2.547 12.72 4.56 2.454 1.276 4.895 2.468 6.721 4.08 0.27-6.37 3.507-9.772 8.88-11.04-4.374-4.026-11.368-5.432-15.36-9.84-3.491-1.149-7.179-2.101-10.08-3.84-0.089-0.952 0.22-2.3-0.24-2.88-0.187-1.029-1.16 0.217-1.68-0.48 0.09-1.5 2.02-1.78 3.12-0.96zm23.76 20.16c-0.24 0-0.285 0.194-0.479 0.24-1.307 0.933-2.222 2.259-2.641 4.08 1.668 0.898 3.456 1.942 5.521 2.64 2.042 0.691 4.5 0.991 5.76 2.64-5.836 3.604-5.058 13.823-8.88 19.44-0.143 2.855-1.401 5.216-2.16 6.96-0.989 2.274-1.497 3.415-2.64 5.28-0.64 1.043-1.483 2.148-2.16 3.119-2.419 3.471-4.858 6.996-6.96 10.32 0.813 0.947 1.876 1.645 3.12 2.16 1.833-2.967 4.305-5.295 5.76-8.641 2.727-3.035 5.124-6.74 7.2-10.08 1.275-2.051 2.356-3.779 3.359-5.999 1.259-2.785 2.752-4.958 4.08-7.44 2.15-4.018 4.143-8.116 5.521-12.48 0.359-1.138 0.842-2.315 1.2-2.88 0.465-0.734 0.853-1.489 0.96-2.4-7.27-0.72-10.79-4.88-16.56-6.96zm-29.04 11.76c0.238 0.881 0.801 1.439 0.96 2.4 1.085-0.382 1.36-1.677 2.4-2.88 1.837-2.126 5.627-4.513 3.6-6.48-1.86 2.78-4.67 4.61-6.96 6.96zm10.08 17.28c0.253 1.031 0.408 2.148 0.72 2.88 0.757 1.773 2.626 2.761 3.601 4.56 0.578 1.068 1.461 2.883 1.68 4.08 0.521 2.848-0.439 4.957-0.72 7.201-1.374 0.625-1.864 2.135-3.84 2.16 0.507 1.252-0.195 3.715 1.2 4.08 1.78-1.449 3.16-4.113 4.319-5.762 0.959-1.361 1.605-2.574 2.4-3.84 1.796-2.855 3.512-6.125 5.04-9.119 0.233-0.458 0.778-0.752 0.96-1.2 1.189-2.934 1.841-6.32 2.88-9.36 0.536-1.569 1.234-3.034 1.68-4.56 0.488-1.674 0.626-3.49 1.2-5.04 0.347-0.935 1.168-1.801 1.68-2.64 0.306-0.5 0.353-0.973 0.721-1.44 0.311-0.395 0.822-0.643 0.96-1.2-1.063-0.217-2.317-0.243-3.12-0.72-1.198 1.487-3.854 3.196-6 3.36-2.436 0.187-5.111-1.306-6.48-2.16-1.14-0.711-1.933-1.131-2.64-1.68-1.589-1.233-5.299-2.762-6.72-2.88 1.73 7.25-1.1 16.85 0.48 23.28zm-2.64-20.88c-1.761 2.719-4.048 4.913-6.48 6.96-0.559 2.284-1.077 5.065 0 7.2 2.623-2.577 4.697-5.702 7.2-8.4-0.047-0.927-0.009-1.769 0.24-2.4-1.866 1.975-3.604 5.356-6.24 5.76 0.818-1.813 2.96-2.701 3.84-4.08 0.833-1.304 2.016-3.186 2.16-5.04h-0.72zm-5.52 42.96c1.571-0.109 2.684-0.678 4.561-0.48 2.209-3.471 4.938-6.42 7.68-9.359-0.421-0.859-0.277-2.283-1.2-2.641-3.88 3.96-7.66 8.02-11.04 12.48zm6.24-1.19c3.605-0.623 7.808-2.979 6-7.441-1.74 2.73-4.14 4.81-6 7.44zm-7.92 8.39c-0.585 0.574-1.134 1.232-1.68 1.682-1.765 1.445-4.758 2.232-5.04 4.078 3.685-2.605 8.062-5.125 11.76-7.199 1.271-0.713 2.633-1.303 3.6-2.4-4.71-1.71-6.15 1.41-8.64 3.84zm9.6-3.12c-3.22 2.07-6.743 3.867-10.08 5.76-2.253 1.279-4.274 2.902-6.72 3.84 0.148 0.652-0.305 1.904 0.24 2.16 5.72-4.039 12.707-6.812 18.24-11.039-0.6-0.19-0.94-0.65-1.68-0.72zm-0.48 3.36c-1.471 0.865-3.158 1.66-4.8 2.641-1.557 0.93-3.041 2.27-4.561 3.119-1.078 0.605-2.65 1.236-3.84 1.92-1.062 0.613-3.309 1.199-2.4 3.121 4.776-3.305 10.955-5.205 14.4-9.84 1.247-0.111 1.866-1.109 3.12-1.441 0.951-0.25 2.761 0.773 2.88-0.959-1.88-1.06-3.36 0.6-4.8 1.44zm4.56 0.24c0.205 0.756 0.445 1.475 1.2 1.68 0.739 0.18 0.461-0.658 1.2-0.479-0.14-1.6-1.38-2.29-2.4-1.2zm-0.72 10.8c1.773-1.936 1.271-6.041 0-7.68-2.277-2.938-5.952-0.832-6.479 1.92-0.748 3.898 1.499 5.398 3.84 6.959 1.04-0.69 2.01-0.5 2.64-1.2zm2.16-8.64c-0.129 1.328 0.484 1.916 1.92 1.68 0.577-0.662 0.437-1.41 0-2.16-1-0.2-1.13 0.47-1.92 0.48zm7.92 1.2c-2.367 1.713-5.438 2.723-7.92 4.32-0.173 1.061 0.046 1.439-0.48 2.4 3.422-1.537 5.997-3.922 9.601-5.279-0.24-0.63-0.39-1.36-1.2-1.44zm-7.92 3.12c0.717-0.404 1.756-0.484 1.92-1.439-0.916 0.115-1.532-0.068-1.92-0.48v1.92zm-21.6 5.28c0.166 0.965-0.229 1.371-0.239 2.16 2.422-0.529 4.298-2.865 6.72-4.32 1.604-0.963 3.346-1.535 4.8-2.639-0.229-0.73 0.993-1.955 0-1.92-3.72 2.28-7.66 4.35-11.28 6.72zm30.48-6.24c-3.701 2.285-6.672 4.174-11.52 7.682-2.822 2.041-5.63 3.346-8.641 5.039-1.96 1.102-3.342 1.465-2.4 3.359 2.25-0.586 3.889-2.209 5.761-3.359 2.039-1.254 4.526-2.977 6.96-3.359 1.435-1.676 3.58-2.633 5.52-3.84 0.943-0.588 1.902-1.131 2.88-1.682 0.991-0.557 2.16-1.053 2.88-1.92 0.185-0.904-0.292-1.146-0.239-1.92h-1.2zm-23.04 4.8c0.085 0.715 0.139 1.461 0.72 1.68 0.519-1.801 3.519-1.121 3.36-3.6-1.73 0.27-2.51 1.5-4.08 1.92zm24.24-1.43c-1.324 1.074-3.214 1.586-4.32 2.879-1.599 0.863-3.207 1.693-4.8 2.641-1.572 0.936-3.322 1.791-4.561 3.119-0.037 0.598 0.377 0.744 0.48 1.201 2.267-1.174 4.9-1.98 6.24-4.08h1.439c1.568-0.848 2.875-1.693 4.32-2.641 1.152-0.756 2.995-1.514 1.92-3.119h-0.72zm-21.6 5.27c2.032-1.174 4.241-2.174 1.681-3.6-1.987 0.711-3.37 2.863-5.521 4.08-0.469 0.266-1.171 0.211-1.68 0.48-1.263 0.664-2.821 1.826-4.08 2.639-1.252 0.809-3.509 1.939-2.16 3.6 1.45-0.068 1.933-1.107 2.88-1.68 2.29-1.06 6.19-3.96 8.88-5.52zm-5.52-1.68c-2.408 1.982-5.895 1.982-6 5.279 2.479-1.92 6.341-2.459 7.2-6-0.91-0.2-0.89 0.47-1.2 0.72zm21.84 3.36c0.383 0.498 0.521 1.24 1.2 1.439 1.841-1.357 4.027-2.371 6-3.6-0.311-0.648-0.438-1.482-1.2-1.68-1.82 1.47-4.19 2.38-6 3.84zm-12.72-2.87c-2.036 1.963-5.137 2.863-7.2 4.799 0.602 0.199 0.759 0.842 1.2 1.201 2.247-2.393 6.363-2.918 8.399-5.521-1.01 0.05-1.29-0.63-2.4-0.48zm20.4 1.43c-1.849 1.352-4.066 2.334-6 3.6-0.414 0.146 0.019 1.139-0.479 1.201-0.779 0.139-1.116-0.164-1.681-0.24-2.295 1.943-5.601 2.879-7.68 5.039-3.313 0.525-4.719 2.961-7.92 3.6-0.108 0.99 0.859 0.9 0.96 1.68 7.974-4.666 15.694-9.584 24.24-13.68-0.15-0.73-0.53-1.22-1.44-1.2zm1.92 1.92c-8.475 4.166-16.189 9.09-24.239 13.68 0.918 1.736 2.69 0.432 3.84-0.24 2.606-1.523 5.73-2.871 7.68-4.559 0.461-0.4 1.3-0.76 1.681-0.961 0.803-0.424 1.797-0.541 2.64-0.961 0.537-0.266 0.924-0.922 1.439-1.199 2.157-1.158 4.092-1.602 5.521-3.119 1.195-0.084 1.751-0.809 2.64-1.201-0.08-0.79-0.71-1.04-1.2-1.44zm-11.76 0.24c-1.6 1.68-4.415 2.145-5.76 4.08 0.271 0.289 0.686 0.434 0.48 1.199 2.4-0.879 3.821-2.738 6.479-3.359-0.14-0.89-0.29-1.79-1.2-1.92zm-16.08 6c0.029 0.691-0.131 1.57 0.24 1.92 2.881-0.959 4.936-2.744 7.44-4.08-0.198-0.602 0.466-2.066-0.48-1.92-2.3 1.46-4.51 3.02-7.2 4.08zm29.04-3.84c-0.639 1.33-2.478 1.242-3.84 1.92-0.267 0.133-0.638 0.518-0.96 0.719-1.571 0.98-3.114 2.146-4.8 2.4-4.234 3.047-9.647 4.914-13.44 8.4 0.502 0.459 1.146 0.773 1.92 0.961 1.881-1 3.432-2.33 4.561-4.08 0.832-0.193 0.922 0.357 1.68 0.238 4.932-3.547 10.107-6.852 16.08-9.359-0.13-0.66-0.25-1.34-1.2-1.2zm-37.68 3.6c2.18 0.941 3.852-1.445 3.84-2.641-1.15 1.01-3.05 1.27-3.84 2.64zm38.16-1.19c-5.166 2.514-9.743 5.617-14.4 8.639 0.093 0.947 0.976 1.105 1.44 1.68 1.016-0.264 1.387-1.172 2.16-1.68 0.754-0.205 1.013-0.906 1.92-0.959 0.633-1.35 2.232-1.578 3.359-2.4 0.822-0.6 1.407-1.434 2.16-1.92 0.769-0.498 1.829-0.746 2.641-1.201 0.688-0.385 2.022-0.793 1.92-1.92 0.04-0.53-0.85-0.11-1.2-0.24zm-22.08 0.47c-1.876 1.645-4.417 2.623-6.72 3.84-0.062 0.861 0.721 0.881 0.72 1.682 2.644-1.117 4.746-2.775 7.2-4.08-0.54-0.33-0.19-1.56-1.2-1.44zm21.6 2.4c0.612-0.027 1.235-0.045 1.2-0.721-0.61 0.03-0.84 0.44-1.2 0.72zm-3.36 2.16c-1.825 1.494-3.763 2.619-5.521 3.84-0.871 0.605-1.999 1.098-2.4 2.16h3.12c1.664-2.336 4.25-3.75 6.721-5.279-0.55-1.678 1.391-2.119 0.96-2.881-1.2 0.66-2.05 1.49-2.88 2.16zm-3.36 5.76c2.422-0.539 5.238-1.959 5.28-4.08-1.86 1.26-3.74 2.5-5.28 4.08z" fill-rule="evenodd"/>
<path clip-rule="evenodd" d="m89.374 321.14c0.528 0.432 1.71 0.211 2.4 0.48 2.087 1.596-0.183 4.371 0.479 6.48 0.279-0.039 0.428 0.053 0.48 0.24 2.211-0.67 3.604-2.158 6.239-2.4-0.283-1.316 0.591-3.791-0.479-4.32 1.283-1.537 3.311-0.109 5.04-0.24 1.028-0.076 2.597-0.578 3.36-0.959 0.973-0.488 1.341-1.504 2.399-1.682 1.644 1.316 1.313 4.607 2.4 6.48 2.747-0.293 5.453 1.387 4.56 5.52-0.595 1.086-1.826 1.535-1.68 3.361 2.196 1.492 5.261-0.549 6.96 1.439 0.7 0.818 0.864 3.279 0.72 4.32-0.291 2.096-2.219 3.906-4.08 4.08 0.112 1.117 0.324 1.602 0 2.639-0.727 0.074-0.857 0.744-1.92 0.48-0.681 0.6-0.993 1.566-1.68 2.16-3.835-0.143-10.318 0.076-14.88-0.48-2.69-0.326-6.677-0.186-9.841 0-0.53 0.031-0.652 0.473-0.72 0.48-0.546 0.066-1.167-0.275-1.68-0.24-1.594 0.111-3.032 0.895-4.56 0.961-1.268 0.055-3.311-0.346-5.041 0-0.322 0.064-0.467 0.479-0.479 0.48-0.323 0.039-0.08-0.4-0.24-0.48-0.282-0.143-2.373 1.002-3.6 0.48-0.446 0.193-0.97 0.309-1.2 0.719-1.573 0.348-4.612-0.771-5.04 0.721-2.072-1.154-5.271 0.887-7.68 0.24 0.098-0.578-0.438-0.521-0.24-1.201-2.091-0.369-4.392 0.479-6.96 0.48-3.271 0.004-6.914-0.422-9.84-0.24-1.764 0.109-3.653 1.734-4.8 0.48-0.291-0.748 0.594-0.338 0.96-0.48 1.157-0.449 2.636-0.643 4.319-0.719 1.201-0.055 2.413-1.029 3.601-1.201 1.364-0.195 2.713 0.182 4.08 0 2.173-0.287 4.316-1.428 6.479-1.439-0.271-1.09-0.826-1.893-0.96-3.121-1.706-0.139-0.125 0.803-0.72 1.201-0.979-0.049-1.699-0.348-2.64-0.24-1.267 0.145-2.05 1.246-3.36 1.68-0.606 0.201-1.646 0.088-2.4 0.24-1.276 0.256-2.308 0.752-3.84-0.24-0.733-0.174-0.875 0.246-1.44 0.24-0.561-0.486-1.272-0.566-2.399-0.24-1.124 0.326-1.799 0.486-2.88 0.961-1.228-0.453-3.337-0.291-4.08 0.479-1.98-0.973-3.212 0.371-5.28 0.48 0.271-2.883 6.754-1.459 8.64-2.879 1.206 0.164 1.938-0.145 2.641-0.48 0.06-2.146 3.332-1.463 5.04-2.641 0.501-0.754-0.219-1.338 0.24-1.92-1.101-0.74-2.581-1.1-4.08-1.439-0.576-1.037-1.255-3.102 0.479-3.359-1.26-1.67 0.182-3.693 0.72-5.041 0.795 0.363 2.639-0.002 3.12-0.721 1.438 0.666 3.173-0.373 5.04-0.238 2.02 0.143 3.771 1.326 5.521 1.92 0.754-0.207 0.933-0.988 1.2-1.682 0.928-0.672 1.998-1.201 2.64-2.16 1.607-0.244 4.052-0.963 6-0.959 0.974 0.002 1.777 0.498 2.64 0 2.467-1.422 4.311-4.988 8.641-4.801 0.352-1.154-0.221-3.09 0.72-4.559 1.437-0.158 1.525 1.033 2.4 1.439 2.704-0.146 7.166 0.17 7.68-2.881 1.28-0.24 1.67 0.41 2.4 0.721 0.29 1.08 0.073 2.65 0.483 3.6zm-30.48 22.32c-0.84-1.824-3.459-3.375-4.561-5.039-0.407-0.617-0.952-1.223-0.72-2.16 0.423-1.713 5.472-2.617 7.439-2.641 2.894-0.033 3.982 1.227 5.521 2.16 0.917 0.557 2.316 0.617 2.399 1.68-2.62 0.635-4.828-2.568-7.68-2.641-0.872-0.021-1.91 0.482-2.88 0.721-0.877 0.215-2.172-0.1-2.64 0.961 0.068 1.689 1.667 1.852 1.92 3.359 2.043 0.893 2.746 3.227 4.56 4.32 0.91 0.547 2.356 0.756 3.6 1.199 4.843 1.725 12.547 2.035 18.48 1.439 4.893-0.49 9.231-0.859 12.72-1.92 0.552-1.943 2.123-2.068 4.08-2.16 0.694 0.826 0.951 2.09 1.2 3.361 0.896 0.393 2.457 0.295 3.12-0.24-0.343-0.32-0.635-1.068-0.24-1.439 2.793-0.094 7.017-0.662 9.36-1.201 3.898-0.895 6.336-1.506 5.279-6-1.896-1.096-3.956 0.281-5.76-0.48-1.816-0.766-2.201-2.842-1.68-4.559 0.346-1.143 2.474-2.133 1.68-4.08-2.15-1.658-4.416 1.051-6.72 1.439-1.764-0.258-3.041-0.861-4.08-1.199-1.224-0.4-2.865-0.957-3.6-0.961-4.468-0.02-7.052 4.904-10.561 6.48-1.546 2.959-4.774 4.676-8.64 4.561-2.704-0.082-5.109-2.146-7.68-1.92-1.314 0.125-0.874 2.006-2.641 1.68 0.001-0.242-0.194-0.287-0.24-0.48 0.224-3.344 5.412-2.938 7.681-1.68 2.319-0.24 3.664-1.457 6-1.68-0.088-0.59 0.41-0.574 0.72-0.721 2.508-1.189 5.664-2.074 7.2-4.32-1.566-0.715-2.784 1.014-4.08 1.68-2.684 1.383-5.685 2.414-8.16 2.641 0.437-0.844 1.397-1.162 2.64-1.199 1.318-0.941 3.293-1.344 4.801-2.16 1.43-0.777 3.458-1.621 3.359-3.84-1.564 0.674-2.715 1.764-4.08 2.639-1.73 0.227-2.659 2.412-4.56 1.68 1.093-1.066 2.492-1.826 4.08-2.398 1.227-1.375 2.705-1.809 3.84-2.881 0.667-0.631 1.898-1.131 1.44-2.4-3.198 1.203-5.705 4.375-9.12 4.561 1.521-1.758 4.2-2.359 6-3.84 0.747-0.453 2.111-0.289 2.159-1.439-1.734-0.023-3.333 2.082-6.239 1.68-0.438-0.008 0.457 1.207-0.48 1.199-0.942-0.664-0.685-0.566-1.92-0.24 0.214-1.014-0.244-1.355-0.72-1.68-1.745 0.709-3.176 0.68-2.641 2.641 1.424 0.303 0.736-1.504 2.16-1.201 0.099 1.619-1.256 1.783-1.92 2.641-1.45-0.389-2.175-1.504-2.88-2.641-0.041-0.41 1.361-0.943 0.24-0.959-1.987 0.359-3.045 1.645-4.08 2.641-0.861 0.828-2.401 2.32-3.36 2.639-1.883 0.627-4.891-0.377-7.199 0.24-2.361 0.631-4.13 4.059-5.761 4.32-2.45 0.393-3.814-2.354-5.76-1.439 0.609 0.4 1.879 1.291 2.4 2.16 0.349 0.58 1.479 1.748 0.239 2.398-0.817 0.02-0.71-0.889-0.72-1.68-1.332-0.391-3.009-1.57-2.399-3.119-2.265-0.184-3.621 0.539-5.761 0.48-0.668 0.852-1.334 1.705-1.439 3.119 2.647 2.393 6.79 4.568 11.28 4.32-0.422-0.719-1.583-2.078-0.48-2.881 2.426 1.9 4.03 4.62 6.486 6.48zm27.6-10.08c-1.469 0.625-2.783 1.748-4.32 2.4 0.077-0.033-0.281-0.277-0.479-0.24-0.666 0.127-1.113 1.268-2.16 0.721 0.777 0.965 2.666 0.809 3.84 0.479 0.914-0.256 2.659-1.715 3.12-2.16 0.373-0.359 2.113-1.574 0.96-1.68 0.212 0.84-0.617 0.34-0.961 0.48zm-45.601 5.52c1.467-0.215 2.743 1.316 3.601 0.24-1.577-0.264-2.239-1.439-3.601-1.92 0 0.56 0.001 1.13 0 1.68zm8.16 2.4c0.035-0.674-0.588-0.691-1.2-0.721-0.034 0.68 0.588 0.7 1.2 0.72zm-3.599 2.4c1.316-0.283 3.79 0.59 4.32-0.48-0.839-1.242-3.186-0.975-4.561-1.68 0.049 0.76-0.162 1.77 0.241 2.16zm68.636 1.92c1.136 0.016 2.362 0.123 2.641-0.721-0.88-0.37-2.11 0.05-2.64 0.72zm-56.157 0h0.48v-0.48h-0.48v0.48zm55.917-0.24c-0.654-0.021-0.482 0.4-0.959 0-0.37 0.73 1.34 0.73 0.96 0zm-54.717 1.92c1.401 0.521 3.459 1.658 5.28 0.961-1.92-0.32-2.792-1.689-4.8-1.92-0.124 0.36-0.355 0.61-0.48 0.96z" fill-rule="evenodd"/>
<metadata><rdf:RDF><cc:Work><dc:format>image/svg+xml</dc:format><dc:type rdf:resource="http://purl.org/dc/dcmitype/StillImage"/><cc:license rdf:resource="http://creativecommons.org/licenses/publicdomain/"/><dc:publisher><cc:Agent rdf:about="http://openclipart.org/"><dc:title>Openclipart</dc:title></cc:Agent></dc:publisher><dc:title>old time ball player</dc:title><dc:date>2009-06-13T19:52:00</dc:date><dc:description>The Art of Caricaturing by Mitchell Smith, 1941 Frederick J. Drake &amp; Co. - stated as Public Domain by Archive.org</dc:description><dc:source>http://openclipart.org/detail/26587/old-time-ball-player-by-johnny_automatic</dc:source><dc:creator><cc:Agent><dc:title>johnny_automatic</dc:title></cc:Agent></dc:creator><dc:subject><rdf:Bag><rdf:li>athlete</rdf:li><rdf:li>baseball</rdf:li><rdf:li>caricature</rdf:li><rdf:li>cartoon</rdf:li><rdf:li>clip art</rdf:li><rdf:li>clipart</rdf:li><rdf:li>externalsource</rdf:li><rdf:li>image</rdf:li><rdf:li>man</rdf:li><rdf:li>media</rdf:li><rdf:li>person</rdf:li><rdf:li>player</rdf:li><rdf:li>public domain</rdf:li><rdf:li>sport</rdf:li><rdf:li>svg</rdf:li></rdf:Bag></dc:subject></cc:Work><cc:License rdf:about="http://creativecommons.org/licenses/publicdomain/"><cc:permits rdf:resource="http://creativecommons.org/ns#Reproduction"/><cc:permits rdf:resource="http://creativecommons.org/ns#Distribution"/><cc:permits rdf:resource="http://creativecommons.org/ns#DerivativeWorks"/></cc:License></rdf:RDF></metadata></svg>
