<?xml version="1.0" encoding="utf-8"?>
<!-- Generator: Adobe Illustrator 16.0.0, SVG Export Plug-In . SVG Version: 6.00 Build 0)  -->
<!DOCTYPE svg PUBLIC "-//W3C//DTD SVG 1.1//EN" "http://www.w3.org/Graphics/SVG/1.1/DTD/svg11.dtd">
<svg version="1.1" id="diver" xmlns="http://www.w3.org/2000/svg" xmlns:xlink="http://www.w3.org/1999/xlink" x="0px" y="0px"
	 width="1050px" height="339px" viewBox="0 0 1050 339" enable-background="new 0 0 1050 339" xml:space="preserve">
<g id="parts">
	<path fill-rule="evenodd" clip-rule="evenodd" fill="#383838" d="M87.46,79.735c-3.479,1.37-6.649,2.838-9.277,4.17
		c-17.32,8.747-33.715,1.567-50.48-4.367c-0.148-0.05-0.346-0.112-0.592-0.186c-1.222-9.647,19.133-2.529,24.894-1.16
		c9.907,2.356,22.206,3.158,32.333,1.949C85.363,80.019,86.4,79.883,87.46,79.735z"/>
	<path fill-rule="evenodd" clip-rule="evenodd" fill="#383838" d="M146.194,98.955c-0.962-0.21-1.937-0.419-2.899-0.629
		c-0.197-0.049-0.407-0.062-0.592-0.062c-6.501-5.601-12.114-12.62-17.924-18.184c-1.776-1.702-3.8-2.936-6.033-3.788
		c1.481,0.049,2.936,0.161,4.343,0.346c7.586,0.987,12.225,6.156,15.778,12.484C141.025,92.972,143.418,96.118,146.194,98.955z"/>
	
		<path fill-rule="evenodd" clip-rule="evenodd" fill="#FFA800" stroke="#000000" stroke-width="0.5546" stroke-linecap="round" stroke-linejoin="round" d="
		M900.327,201.396c-0.506,0.259-1.036,0.519-1.579,0.764c-0.469,0.038-0.926,0.063-1.394,0.087
		C898.366,201.951,899.353,201.668,900.327,201.396z"/>
	<g>
		<path fill-rule="evenodd" clip-rule="evenodd" fill="#C19B6F" d="M1017.264,189.541c-0.556,1.505-1.813,3.146-3.985,4.935
			c-9.954,8.216-19.367,16.469-29.928,23.933c-9.362,6.6-19.368,12.003-30.198,15.654c-16.186,5.465-14.952-1.591-27.189-9.808
			c-9.561-6.401-18.678-6.945-29.324-9.029c0.814-0.099,1.69-0.197,2.665-0.346c14.445-2.121,22.251-24.307,41.989-32.531
			s43.638-11.843,71.333,4.33C1014.427,187.728,1015.943,188.702,1017.264,189.541z"/>
		<path d="M1017.52,189.648c-0.361,1.48-1.273,2.839-2.257,3.99c-0.496,0.58-1.06,1.117-1.597,1.629
			c-0.533,0.51-1.073,1.01-1.62,1.503c-2.173,1.993-4.376,3.931-6.628,5.83c-2.237,1.913-4.531,3.764-6.816,5.629
			c-2.29,1.859-4.61,3.686-6.946,5.495l-3.54,2.67l-3.599,2.598c-1.234,0.88-2.439,1.667-3.66,2.505
			c-1.23,0.817-2.508,1.602-3.761,2.403l-3.831,2.27l-3.911,2.132l-3.991,1.98l-4.067,1.821c-1.379,0.553-2.754,1.118-4.146,1.637
			c-1.407,0.485-2.792,0.999-4.218,1.46c-2.834,0.888-5.784,1.694-8.924,1.725c-1.561,0.007-3.196-0.272-4.663-0.936
			c-1.479-0.646-2.734-1.616-3.864-2.607c-2.247-2.013-4.246-4.1-6.507-5.926c-1.112-0.915-2.295-1.797-3.456-2.599l-1.848-1.199
			c-0.623-0.355-1.228-0.734-1.866-1.073c-2.545-1.376-5.245-2.464-8.027-3.319c-2.782-0.863-5.649-1.476-8.528-2.045
			c-2.881-0.57-5.779-1.104-8.661-1.723l-0.008-0.002c-0.149-0.032-0.245-0.18-0.213-0.329c0.025-0.119,0.125-0.204,0.24-0.217l0,0
			c1.41-0.192,2.81-0.318,4.184-0.657c1.34-0.323,2.647-0.882,3.886-1.524c2.483-1.313,4.68-3.124,6.741-5.052
			c4.102-3.902,7.725-8.302,11.695-12.385c3.957-4.08,8.244-7.944,13.211-10.809c2.466-1.453,5.115-2.577,7.768-3.589
			c2.661-1.023,5.36-1.94,8.101-2.728c5.477-1.576,11.118-2.622,16.814-2.976c5.693-0.359,11.431-0.019,17.044,1.005
			c5.619,1.003,11.087,2.75,16.338,4.963c2.617,1.13,5.183,2.377,7.692,3.728c2.5,1.376,4.938,2.839,7.333,4.38
			c0.102,0.065,0.146,0.186,0.118,0.296L1017.52,189.648z M1016.882,189.636c-2.311-1.48-4.668-2.901-7.067-4.222
			c-2.495-1.343-5.045-2.582-7.646-3.705c-5.217-2.198-10.645-3.932-16.22-4.927c-5.569-1.016-11.26-1.354-16.91-0.997
			c-5.651,0.351-11.253,1.389-16.695,2.955c-2.723,0.782-5.409,1.694-8.053,2.711c-2.653,1.014-5.254,2.117-7.689,3.552
			c-4.904,2.826-9.152,6.652-13.092,10.715c-3.954,4.065-7.574,8.463-11.713,12.402c-2.082,1.946-4.312,3.789-6.862,5.139
			c-1.28,0.662-2.604,1.233-4.03,1.577c-1.388,0.342-2.827,0.474-4.231,0.665h-0.001l0.021-0.548
			c5.779,1.023,11.655,1.646,17.397,3.232c2.863,0.793,5.678,1.834,8.35,3.184c0.671,0.333,1.326,0.716,1.99,1.073l1.887,1.151
			c1.28,0.841,2.468,1.705,3.646,2.637c2.354,1.836,4.476,3.971,6.645,5.844c1.09,0.925,2.218,1.751,3.453,2.262
			c1.228,0.527,2.564,0.739,3.938,0.712c2.763-0.07,5.563-0.858,8.308-1.777c1.365-0.468,2.731-1.001,4.097-1.498
			c1.357-0.526,2.689-1.118,4.041-1.66l3.978-1.808l3.904-1.965l3.827-2.115l3.749-2.249c1.221-0.792,2.448-1.554,3.664-2.37
			c1.2-0.833,2.453-1.664,3.609-2.5l3.543-2.589l3.492-2.664c2.306-1.808,4.599-3.634,6.866-5.496l6.79-5.617
			c2.271-1.864,4.569-3.717,6.931-5.475c1.165-0.91,2.402-1.72,3.467-2.629C1015.279,191.754,1016.196,190.818,1016.882,189.636z"/>
	</g>
	<g>
		<path fill-rule="evenodd" clip-rule="evenodd" fill="#C19B6F" d="M770.302,180.042c6.329,4.873,14.36,7.648,23.106,9.142
			c-7.908,0.11-15.827,0.209-23.735,0.308c-7.291,0.1-15.95,3.689-23.55,4.158c-1.825,0.123-3.578,0.062-5.243-0.271
			c-2.345-0.47-4.885-1.073-7.538-1.716l-1.405-0.332c-3.516-8.611-26.189-29.892-27.152-32.297
			c-8.266-14.002-19.146-16.555-25.869-22.464c-10.351-9.117-19.233-18.443-26.153-30.446c-4.478-7.772-14.631-22.884-23.39-26.141
			c-9.314-3.454-32.766,5.453-36.011-8.031c6.563-4.244,14.262-5.49,21.886-6.082c8.475-0.654,4.157-12.583,2.59-18.369
			c-1.592-5.921-2.837-15.951-6.785-20.503c-4.612-5.305-15.84-11.065-17.801-17.258c14.273-4.331,23.92,2.949,31.889,14.051
			c5.712,9.203,9.956,18.467,14.545,28.213c4.541,9.598,17.382,14.619,25.796,20.75c16.333,11.929,30.372,25.783,48.074,35.639
			c7.612,4.244,15.236,8.488,22.848,12.719c-5.156-0.061-10.512-0.333-14.594,0.457c17.072,3.973,29.484,4.849,41.363,18.838
			c-16.358,1.801-29.953,4.996-43.042-6.686c2.985,30.668,66.974,20.934,87.526,32.444c-5.711,4.515-9.549,8.414-15.333,10.029
			c-1.469,0.235-2.949,0.482-4.429,0.728h-0.014c-0.69,0.05-1.418,0.075-2.183,0.063c-8.487-0.124-16.014-3.258-23.76-6.366
			C764.171,174.403,767.008,177.513,770.302,180.042z"/>
		<path d="M770.462,179.815c0.856,0.599,1.703,1.216,2.566,1.8l1.335,0.791c0.449,0.257,0.88,0.544,1.344,0.777l1.394,0.695
			c0.469,0.224,0.921,0.484,1.403,0.677l1.438,0.603c0.483,0.191,0.951,0.422,1.446,0.582l1.474,0.515
			c0.493,0.164,0.976,0.361,1.479,0.497l1.5,0.435c0.501,0.139,0.996,0.303,1.503,0.421c1.014,0.237,2.024,0.488,3.041,0.715
			l3.07,0.588l0.006,0.001c0.15,0.029,0.248,0.174,0.22,0.324c-0.025,0.132-0.14,0.224-0.269,0.226l-15.53,0.201l-7.766,0.101
			c-0.619-0.005-1.284,0.073-1.924,0.106c-0.644,0.049-1.297,0.063-1.924,0.183c-1.266,0.186-2.531,0.372-3.794,0.659
			c-2.527,0.511-5.035,1.159-7.56,1.744c-1.271,0.262-2.524,0.596-3.812,0.798l-1.922,0.34c-0.646,0.086-1.296,0.144-1.944,0.217
			l-0.973,0.104c-0.353,0.028-0.655,0.015-0.985,0.024c-0.647,0.003-1.292,0.031-1.942,0.012c-1.308-0.156-2.652-0.271-3.891-0.613
			l-7.573-1.736c-0.082-0.019-0.146-0.072-0.182-0.142l-0.012-0.023l-0.002-0.003c-0.559-0.705-0.936-1.448-1.522-2.113
			c-0.535-0.686-1.04-1.376-1.611-2.04c-0.567-0.662-1.071-1.361-1.659-2.013c-0.567-0.663-1.093-1.355-1.672-2.012
			c-1.116-1.346-2.251-2.678-3.417-3.989c-1.161-1.313-2.34-2.615-3.532-3.907c-2.373-2.592-4.82-5.123-7.221-7.707l-3.611-3.88
			c-0.602-0.647-1.196-1.312-1.787-1.985c-0.298-0.325-0.589-0.691-0.881-1.049c-0.149-0.197-0.282-0.32-0.445-0.577
			c-0.16-0.248-0.314-0.501-0.459-0.756l0.066,0.136c-1.563-2.633-3.343-5.135-5.401-7.396c-2.056-2.264-4.374-4.287-6.885-6.07
			c-2.506-1.797-5.183-3.364-7.855-5.033c-1.337-0.83-2.659-1.718-3.94-2.681c-1.282-1.004-2.439-2.076-3.597-3.11
			c-1.172-1.031-2.324-2.096-3.463-3.188c-1.15-1.075-2.291-2.159-3.386-3.288c-1.108-1.115-2.23-2.218-3.28-3.393
			c-1.061-1.163-2.157-2.293-3.16-3.51c-2.077-2.369-4.029-4.851-5.893-7.397c-0.893-1.301-1.83-2.574-2.688-3.899l-2.494-4.019
			c-1.583-2.694-3.244-5.284-5.018-7.841c-1.771-2.545-3.635-5.022-5.6-7.403c-1.974-2.37-4.069-4.641-6.378-6.618
			c-2.308-1.942-4.855-3.693-7.648-4.238c-2.897-0.528-6.028-0.397-9.125-0.265c-3.108,0.147-6.246,0.373-9.415,0.323
			c-3.151-0.049-6.401-0.256-9.464-1.419c-1.512-0.596-2.958-1.484-4.055-2.723c-1.111-1.231-1.773-2.789-2.089-4.354l-0.001-0.004
			c-0.036-0.113,0.012-0.233,0.108-0.292l0.011-0.006l2.464-1.493l2.592-1.264l2.689-1.039l2.761-0.831l2.805-0.656l2.831-0.51
			l2.846-0.392l2.852-0.303c0.938-0.094,1.717-0.279,2.435-0.693c0.694-0.415,1.207-1.042,1.54-1.792
			c0.639-1.538,0.605-3.414,0.382-5.218c-0.233-1.821-0.677-3.641-1.179-5.451c-0.496-1.809-1.099-3.622-1.574-5.491
			c-0.478-1.888-0.879-3.732-1.313-5.579c-0.432-1.842-0.883-3.67-1.42-5.457c-0.538-1.782-1.158-3.535-1.977-5.136
			c-0.419-0.789-0.859-1.567-1.398-2.225c-0.125-0.153-0.281-0.363-0.378-0.472l-0.493-0.515c-0.33-0.36-0.657-0.656-0.982-0.952
			c-1.323-1.209-2.825-2.377-4.321-3.516c-1.506-1.141-3.041-2.277-4.554-3.471c-1.511-1.198-3.018-2.433-4.412-3.873
			c-1.375-1.441-2.729-3.062-3.484-5.218l-0.005-0.012c-0.266-0.673,0.064-1.434,0.738-1.7l0.097-0.034l0.094-0.028
			c3.914-1.19,8.156-1.66,12.304-0.998c4.149,0.658,8.031,2.552,11.294,5.032c3.262,2.512,6.039,5.518,8.475,8.71l0.899,1.208
			l0.449,0.604l0.097,0.148l0.023,0.04l0.046,0.08l0.094,0.16l0.186,0.319l1.479,2.557c0.966,1.723,2.018,3.366,2.902,5.164
			l2.751,5.301l2.585,5.338c0.867,1.778,1.697,3.564,2.528,5.35l1.249,2.678l0.625,1.339l0.664,1.239
			c0.225,0.462,0.484,0.806,0.734,1.175c0.262,0.366,0.468,0.746,0.785,1.102l0.884,1.085c0.31,0.351,0.646,0.683,0.967,1.026
			c1.313,1.351,2.769,2.591,4.315,3.736c3.072,2.317,6.44,4.313,9.804,6.366c1.683,1.035,3.378,2.056,5.038,3.178
			c0.836,0.554,1.648,1.132,2.471,1.739l2.351,1.789c3.15,2.349,6.228,4.853,9.317,7.319l9.157,7.462
			c1.521,1.249,3.055,2.477,4.603,3.682c1.553,1.199,3.064,2.46,4.65,3.609l4.723,3.502l4.84,3.323
			c1.587,1.153,3.297,2.101,4.954,3.14c1.662,1.027,3.333,2.047,5.06,3.004c6.82,3.94,13.634,7.892,20.385,11.958l0.006,0.003
			c0.134,0.073,0.184,0.242,0.11,0.376c-0.051,0.093-0.149,0.145-0.248,0.144c-2.439-0.047-4.875-0.081-7.306-0.088
			c-0.609-0.011-1.213,0.036-1.819,0.051l-1.817,0.067c-0.607,0.014-1.199,0.134-1.8,0.196l-1.796,0.226l0.01-0.542
			c3.772,0.876,7.569,1.654,11.354,2.509c1.894,0.429,3.781,0.885,5.658,1.392c0.94,0.247,1.867,0.544,2.802,0.814
			c0.929,0.291,1.845,0.622,2.769,0.931l2.716,1.08c0.881,0.418,1.78,0.798,2.645,1.25c0.85,0.479,1.735,0.896,2.555,1.426
			c0.813,0.539,1.678,1.002,2.448,1.604c0.772,0.594,1.604,1.116,2.327,1.772c0.73,0.645,1.52,1.228,2.202,1.925
			c0.69,0.688,1.418,1.34,2.077,2.058l1.959,2.168c0.102,0.112,0.093,0.285-0.02,0.386c-0.044,0.04-0.098,0.063-0.152,0.069
			l-0.009,0c-3.744,0.413-7.481,0.918-11.24,1.3c-0.938,0.104-1.882,0.169-2.823,0.255c-0.94,0.085-1.888,0.116-2.831,0.176
			c-0.944,0.054-1.894,0.042-2.84,0.067c-0.947,0.005-1.896-0.052-2.843-0.076c-0.946-0.062-1.89-0.169-2.835-0.252
			c-0.938-0.155-1.878-0.295-2.811-0.473c-0.92-0.24-1.854-0.428-2.762-0.711c-0.894-0.324-1.817-0.571-2.687-0.959
			c-0.859-0.406-1.762-0.727-2.585-1.204c-0.819-0.482-1.687-0.888-2.465-1.433c-0.776-0.548-1.588-1.049-2.334-1.636l-2.202-1.808
			l0.461-0.234c0.184,0.998,0.292,2.014,0.535,2.997l0.455,1.452l0.228,0.727c0.098,0.233,0.217,0.458,0.323,0.688l0.658,1.371
			c0.208,0.463,0.543,0.854,0.809,1.286c0.293,0.413,0.537,0.863,0.87,1.246l1.007,1.144l0.503,0.572l0.569,0.508l1.139,1.016
			c0.789,0.641,1.642,1.207,2.469,1.8c0.888,0.504,1.749,1.056,2.657,1.522c0.928,0.431,1.826,0.923,2.776,1.304
			c1.886,0.799,3.82,1.482,5.78,2.086c0.987,0.277,1.968,0.582,2.962,0.837l2.992,0.73l3.015,0.635l3.032,0.56
			c2.026,0.347,4.057,0.674,6.095,0.953c8.148,1.155,16.356,1.88,24.537,2.905c4.089,0.518,8.177,1.1,12.221,1.951
			c2.02,0.436,4.035,0.911,6.005,1.557c1.988,0.585,3.898,1.429,5.749,2.383c0.133,0.069,0.185,0.232,0.116,0.365
			c-0.018,0.034-0.041,0.063-0.068,0.085l-0.012,0.009l-3.579,2.906c-1.193,0.973-2.39,1.947-3.631,2.87
			c-0.605,0.48-1.271,0.887-1.902,1.334c-0.637,0.442-1.334,0.796-1.999,1.198c-0.329,0.207-0.699,0.341-1.048,0.514l-1.061,0.492
			c-0.729,0.272-1.474,0.509-2.21,0.764l-0.019,0.005l-0.013,0.002l-4.428,0.728l-0.045,0.004h-0.014l0.02-0.001l-1.701,0.05
			c-0.567,0.039-1.146-0.032-1.698-0.054l-1.68-0.098c-0.561-0.032-1.123-0.144-1.685-0.212l-1.685-0.235l-1.656-0.353
			c-0.55-0.125-1.108-0.219-1.651-0.369l-1.631-0.45c-1.094-0.277-2.154-0.658-3.228-1.002c-1.076-0.335-2.118-0.758-3.179-1.133
			c-1.057-0.389-2.097-0.812-3.146-1.216l-3.127-1.25l0.343-0.398l1.727,2.625c0.646,0.823,1.313,1.63,1.97,2.446
			c0.722,0.758,1.465,1.496,2.196,2.246l2.4,2.028L770.462,179.815z M770.135,180.264l-0.002-0.002l-2.439-2.062
			c-0.744-0.762-1.5-1.513-2.234-2.284c-0.667-0.829-1.347-1.65-2.004-2.488l-1.756-2.669c-0.082-0.126-0.048-0.295,0.078-0.378
			c0.077-0.05,0.171-0.057,0.25-0.026l0.015,0.006l3.124,1.25c1.046,0.403,2.085,0.825,3.136,1.212
			c1.055,0.373,2.095,0.794,3.162,1.127c1.064,0.341,2.118,0.72,3.201,0.994l1.614,0.445c0.538,0.149,1.09,0.241,1.633,0.365
			l1.637,0.349l1.649,0.23c0.552,0.066,1.095,0.176,1.654,0.209l1.681,0.098c0.569,0.022,1.109,0.092,1.664,0.053l1.663-0.048
			l0.021-0.001h0.014l-0.045,0.004l4.43-0.728l-0.03,0.006c0.716-0.249,1.439-0.479,2.149-0.743l1.033-0.479
			c0.34-0.17,0.699-0.298,1.022-0.501c0.65-0.395,1.331-0.738,1.958-1.175c0.623-0.441,1.275-0.838,1.876-1.314
			c1.228-0.913,2.418-1.882,3.609-2.854l3.587-2.912l0.036,0.459c-1.808-0.93-3.68-1.761-5.646-2.339
			c-1.944-0.638-3.945-1.11-5.95-1.543c-4.019-0.846-8.095-1.427-12.176-1.943c-8.167-1.023-16.379-1.748-24.545-2.906
			c-2.043-0.279-4.08-0.607-6.113-0.956l-3.044-0.562l-3.03-0.638l-3.01-0.735c-1-0.257-1.988-0.564-2.982-0.843
			c-1.977-0.608-3.929-1.298-5.837-2.107c-0.961-0.386-1.875-0.885-2.813-1.322c-0.923-0.474-1.8-1.035-2.702-1.548
			c-0.845-0.604-1.713-1.182-2.521-1.837l-1.166-1.04l-0.583-0.521l-0.518-0.587l-1.034-1.175c-0.343-0.395-0.596-0.858-0.897-1.284
			c-0.273-0.444-0.616-0.848-0.833-1.325l-0.679-1.414c-0.11-0.237-0.231-0.469-0.333-0.709l-0.234-0.748l-0.469-1.496
			c-0.251-1.011-0.363-2.054-0.551-3.08c-0.026-0.146,0.07-0.285,0.216-0.312c0.081-0.015,0.159,0.008,0.218,0.056l0.027,0.022
			l2.17,1.781c0.735,0.578,1.533,1.07,2.296,1.609c0.767,0.537,1.618,0.934,2.423,1.408c0.809,0.47,1.694,0.783,2.538,1.182
			c0.854,0.381,1.761,0.623,2.638,0.942c0.891,0.278,1.811,0.462,2.714,0.699c0.918,0.174,1.844,0.313,2.767,0.465
			c0.933,0.081,1.863,0.187,2.798,0.249c0.937,0.023,1.873,0.081,2.811,0.075c0.938-0.024,1.877-0.012,2.815-0.066
			c0.938-0.061,1.876-0.09,2.813-0.175c0.938-0.086,1.875-0.151,2.811-0.254c3.745-0.38,7.482-0.885,11.235-1.299l-0.181,0.455
			l-1.939-2.146c-0.651-0.71-1.371-1.354-2.054-2.034c-0.675-0.689-1.452-1.263-2.174-1.901c-0.714-0.649-1.534-1.162-2.297-1.749
			c-0.76-0.593-1.612-1.05-2.414-1.582c-0.809-0.523-1.683-0.935-2.521-1.407c-0.854-0.446-1.743-0.821-2.612-1.234l-2.687-1.068
			c-0.915-0.306-1.822-0.633-2.743-0.922c-0.929-0.268-1.848-0.563-2.782-0.808c-1.866-0.503-3.747-0.958-5.635-1.386
			c-3.777-0.854-7.577-1.632-11.357-2.51l-0.018-0.004c-0.147-0.034-0.239-0.182-0.205-0.329c0.027-0.115,0.122-0.196,0.232-0.21
			l1.832-0.231c0.61-0.063,1.22-0.185,1.832-0.199l1.835-0.068c0.611-0.015,1.225-0.063,1.835-0.051
			c2.443,0.007,4.881,0.041,7.315,0.088l-0.138,0.52l-0.006-0.003c-7.013-3.596-13.961-7.305-20.903-11.026
			c-1.737-0.918-3.449-1.915-5.158-2.923c-1.7-1.018-3.459-1.949-5.086-3.08c-1.651-1.092-3.315-2.17-4.951-3.287l-4.794-3.497
			c-1.612-1.149-3.137-2.402-4.71-3.598c-1.569-1.202-3.118-2.423-4.651-3.661l-9.216-7.393c-3.085-2.422-6.136-4.868-9.318-7.203
			l-2.364-1.771c-0.765-0.555-1.562-1.114-2.371-1.641c-1.611-1.071-3.299-2.07-4.978-3.085c-3.371-2.023-6.811-4.02-10.051-6.422
			c-1.626-1.185-3.19-2.493-4.634-3.953c-0.354-0.372-0.721-0.731-1.065-1.116l-0.99-1.197c-0.341-0.379-0.627-0.86-0.936-1.295
			c-0.303-0.445-0.626-0.898-0.834-1.323l-0.738-1.36l-0.635-1.333l-1.269-2.665c-0.844-1.778-1.688-3.557-2.561-5.312l-2.604-5.274
			l-2.729-5.165c-0.865-1.733-1.952-3.406-2.925-5.11l-1.498-2.545l-0.187-0.318l-0.093-0.16l-0.046-0.08l-0.023-0.04
			c-0.071-0.111,0.071,0.107,0.046,0.071l-0.433-0.581l-0.863-1.161c-2.336-3.064-4.96-5.884-7.943-8.182
			c-1.51-1.112-3.083-2.143-4.783-2.878c-1.673-0.803-3.461-1.304-5.272-1.624c-3.644-0.577-7.425-0.182-11.037,0.913l0.929-1.762
			l0.003,0.008c0.471,1.469,1.539,2.908,2.756,4.218c1.225,1.321,2.638,2.537,4.079,3.729c1.447,1.192,2.943,2.35,4.443,3.536
			c1.502,1.197,2.986,2.391,4.44,3.778c0.369,0.353,0.736,0.706,1.041,1.055l0.482,0.525c0.216,0.249,0.335,0.428,0.506,0.646
			c0.646,0.831,1.127,1.728,1.579,2.625c0.873,1.807,1.481,3.671,2.004,5.536c0.519,1.866,0.938,3.741,1.335,5.608
			c0.396,1.862,0.765,3.742,1.183,5.549c0.422,1.826,0.982,3.636,1.453,5.503c0.475,1.862,0.897,3.756,1.107,5.712
			c0.183,1.94,0.246,4.019-0.628,6.01c-0.456,0.975-1.229,1.864-2.194,2.392c-0.945,0.527-2.072,0.728-3.022,0.788l-2.827,0.215
			l-2.813,0.303l-2.795,0.418l-2.767,0.561l-2.724,0.732l-2.664,0.921l-2.581,1.134l-2.471,1.366l0.119-0.298l0.001,0.004
			c0.426,1.465,1.144,2.833,2.197,3.877c1.052,1.048,2.39,1.764,3.81,2.226c2.858,0.926,5.974,1.038,9.049,0.949
			c3.088-0.104,6.189-0.378,9.324-0.584c3.135-0.188,6.309-0.413,9.595,0.112c0.417,0.085,0.873,0.177,1.269,0.283l0.562,0.171
			c0.114,0.038,0.14,0.037,0.327,0.106l0.287,0.127c0.765,0.342,1.547,0.663,2.233,1.111c0.352,0.211,0.713,0.414,1.058,0.634
			l0.99,0.71c0.677,0.457,1.28,0.987,1.901,1.5c2.448,2.088,4.611,4.429,6.644,6.858c2.033,2.429,3.902,4.978,5.676,7.585
			c1.767,2.6,3.457,5.296,5.016,8.01l2.408,3.98c0.823,1.31,1.728,2.569,2.587,3.857c1.797,2.522,3.684,4.986,5.7,7.346
			c0.967,1.214,2.054,2.328,3.091,3.483c1.028,1.164,2.132,2.26,3.222,3.369c1.078,1.123,2.197,2.199,3.327,3.265
			c1.113,1.079,2.251,2.143,3.422,3.185l1.739,1.574c0.563,0.524,1.163,0.975,1.755,1.453c1.226,0.907,2.507,1.757,3.833,2.566
			c2.642,1.624,5.383,3.2,7.975,5.032c2.597,1.823,5.068,3.873,7.251,6.211c2.19,2.33,4.103,4.912,5.765,7.637l0.066,0.136
			c0.093,0.117,0.177,0.234,0.254,0.358c0.067,0.119,0.251,0.31,0.37,0.462c0.27,0.322,0.529,0.644,0.831,0.966
			c0.58,0.645,1.168,1.288,1.774,1.924l3.643,3.82c2.449,2.537,4.864,5.115,7.25,7.727c1.193,1.305,2.377,2.622,3.544,3.956
			c1.172,1.329,2.32,2.684,3.446,4.061c0.558,0.691,1.088,1.413,1.62,2.127c0.528,0.716,1.021,1.472,1.491,2.235
			c0.497,0.74,0.898,1.564,1.306,2.368c0.428,0.785,0.68,1.709,0.953,2.555l0.002,0.004L732,191.061l7.565,1.734
			c1.266,0.346,2.509,0.439,3.771,0.6c0.641,0.02,1.292-0.009,1.938-0.012c0.316-0.009,0.664,0.003,0.955-0.023l0.958-0.103
			c0.638-0.072,1.277-0.128,1.914-0.213l1.902-0.336c1.271-0.2,2.524-0.533,3.787-0.794c2.519-0.583,5.026-1.231,7.573-1.746
			c1.265-0.288,2.56-0.48,3.855-0.669c0.647-0.121,1.293-0.134,1.938-0.184c0.652-0.033,1.276-0.11,1.952-0.107l7.765-0.101
			l15.53-0.201l-0.043,0.551l-3.091-0.593c-1.024-0.228-2.044-0.48-3.065-0.72c-0.511-0.119-1.011-0.284-1.517-0.425l-1.513-0.438
			c-0.508-0.137-0.995-0.336-1.494-0.501l-1.487-0.521c-0.5-0.162-0.975-0.395-1.463-0.589l-1.454-0.609
			c-0.489-0.194-0.946-0.458-1.421-0.685l-1.412-0.705c-0.47-0.236-0.913-0.53-1.371-0.793l-1.362-0.81
			c-0.868-0.587-1.712-1.201-2.569-1.801L770.135,180.264z"/>
	</g>
	
		<path fill-rule="evenodd" clip-rule="evenodd" fill="#FFA800" stroke="#000000" stroke-width="0.5546" stroke-linecap="round" stroke-linejoin="round" d="
		M792.323,176.192c-1.358,0.37-2.813,0.629-4.429,0.728C789.374,176.675,790.854,176.428,792.323,176.192z"/>
	
		<path fill-rule="evenodd" clip-rule="evenodd" fill="#FFA800" stroke="#000000" stroke-width="0.5546" stroke-linecap="round" stroke-linejoin="round" d="
		M817.415,180.251c-2.331,0.285-4.65,0.567-6.971,0.853C812.728,180.646,815.059,180.375,817.415,180.251z"/>
	
		<path fill-rule="evenodd" clip-rule="evenodd" fill="#FFA800" stroke="#000000" stroke-width="0.5546" stroke-linecap="round" stroke-linejoin="round" d="
		M799.676,190.047c-9.363,1.542-17.629,3.195-22.563,3.651c-1.58,0.148-3.221,0.297-4.923,0.432
		c-3.072,0.259-6.291,0.494-9.549,0.593c-3.343,0.11-6.698,0.086-9.954-0.174c-2.258-0.172-4.466-0.469-6.563-0.899
		c7.6-0.469,16.259-4.059,23.55-4.158c7.908-0.099,15.827-0.197,23.735-0.308C795.456,189.541,797.554,189.824,799.676,190.047z"/>
	
		<path fill-rule="evenodd" clip-rule="evenodd" fill="#FFA800" stroke="#000000" stroke-width="0.5546" stroke-linecap="round" stroke-linejoin="round" d="
		M793.408,189.184c-6.403,0.086-14.26,3.578-21.219,4.946c-1.641,0.334-3.219,0.531-4.737,0.556
		c-1.257,0.023-2.898,0.037-4.812,0.037c-2.874,0.012-6.353-0.025-9.954-0.174c-7.896-0.283-16.407-1.085-20.701-3.096
		c-0.012-0.037-0.037-0.087-0.049-0.123l1.405,0.332c2.653,0.643,5.193,1.246,7.538,1.716c1.665,0.333,3.418,0.395,5.243,0.271
		c7.6-0.469,16.259-4.059,23.55-4.158C777.581,189.393,785.5,189.294,793.408,189.184z"/>
	
		<path fill-rule="evenodd" clip-rule="evenodd" fill="#FFA800" stroke="#000000" stroke-width="0.5546" stroke-linecap="round" stroke-linejoin="round" d="
		M792.323,176.192c-1.358,0.37-2.813,0.629-4.429,0.728C789.374,176.675,790.854,176.428,792.323,176.192z"/>
	
		<path fill-rule="evenodd" clip-rule="evenodd" fill="#FFA800" stroke="#000000" stroke-width="0.5546" stroke-linecap="round" stroke-linejoin="round" d="
		M817.415,180.251c-2.331,0.285-4.65,0.567-6.971,0.853C812.728,180.646,815.059,180.375,817.415,180.251z"/>
	
		<path fill-rule="evenodd" clip-rule="evenodd" fill="#FFA800" stroke="#000000" stroke-width="0.5546" stroke-linecap="round" stroke-linejoin="round" d="
		M799.676,190.047c-9.363,1.542-17.629,3.195-22.563,3.651c-1.58,0.148-3.221,0.297-4.923,0.432
		c-3.072,0.259-6.291,0.494-9.549,0.593c-3.343,0.11-6.698,0.086-9.954-0.174c-2.258-0.172-4.466-0.469-6.563-0.899
		c7.6-0.469,16.259-4.059,23.55-4.158c7.908-0.099,15.827-0.197,23.735-0.308C795.456,189.541,797.554,189.824,799.676,190.047z"/>
	
		<path fill-rule="evenodd" clip-rule="evenodd" fill="#C19B6F" stroke="#000000" stroke-width="0.5546" stroke-linecap="round" stroke-linejoin="round" d="
		M854.732,240.207c-0.05,0.196-0.099,0.382-0.148,0.579v0.013c-3.244,1.282-6.514,2.394-9.672,3.293
		c-3.823,9.487-10.497,17.666-16.752,25.857c-16.05,21.046-43.006,37.379-69.837,22.242c-10.288-5.798-27.287-14.322-26.769-28.435
		c0.332-8.932,3.009-16.174,6.858-23.181c15.234,3.479,37.16,6.127,43.945,6.949c6.785,0.823,12.953,1.439,17.478,1.439
		c4.523,0,8.019,0.206,8.019,0.206s23.106-0.945,37.194-5.411c0.69-0.223,1.406-0.457,2.084-0.666
		c0.037-0.013,0.075-0.038,0.111-0.05C849.773,242.192,852.277,241.243,854.732,240.207z"/>
	
		<path fill-rule="evenodd" clip-rule="evenodd" fill="#FFA800" stroke="#000000" stroke-width="0.5546" stroke-linecap="round" stroke-linejoin="round" d="
		M854.387,202.704c-0.05,0.062-0.111,0.136-0.16,0.209c0.025-0.122,0.062-0.259,0.099-0.382
		C854.351,202.581,854.362,202.643,854.387,202.704z"/>
	
		<path fill-rule="evenodd" clip-rule="evenodd" fill="#FFA800" stroke="#000000" stroke-width="0.5546" stroke-linecap="round" stroke-linejoin="round" d="
		M496.559,172.393c-0.086,0.063-0.173,0.111-0.271,0.16c-0.876-0.146-1.751-0.282-2.627-0.419
		C494.634,172.195,495.596,172.282,496.559,172.393z"/>
	<g>
		<path fill-rule="evenodd" clip-rule="evenodd" fill="#876A4D" d="M461.001,171.597c-15.529,0-31.074-0.127-36.962-0.303
			c-20.398-0.61-36.999-7.854-51.9-15.591c-5.462-2.837-10.962-5.784-16.282-8.634c-25.576-13.703-52.023-27.873-81.875-33.737
			c-23.874-4.683-49.449-6.864-80.486-6.864c-8.674,0-17.807,0.157-28.741,0.493c-3.583-0.091-7.017-0.848-10.445-2.314
			c-0.03-0.013-0.061-0.024-0.092-0.034c-2.576-1.11-5.13-2.618-7.736-4.572c3.504,0.766,17.838,3.913,21.507,4.714
			c2.471,0.54,5.222,0.803,8.41,0.803c5.484,0,11.253-0.78,16.833-1.534c3.219-0.435,6.259-0.846,9.103-1.088l5.651-0.48
			c19.875-1.692,38.648-3.29,58.192-3.29c3.505,0,6.984,0.053,10.342,0.159c29.799,0.939,57.28,13.85,83.855,26.336
			c19.001,8.928,38.649,18.159,59.156,23.081c0.077,0.019,0.155,0.028,0.233,0.028c2.739,0,5.667-0.013,8.736-0.026
			c3.378-0.015,6.929-0.03,10.589-0.03c29.256,0,60.68,1.095,74.349,8.956c-0.982,0.276-2.225,0.616-3.446,0.951
			c-1.51,0.414-3.178,0.87-4.797,1.324c-0.062,0.017-0.121,0.04-0.178,0.069c-4.343,2.174-8.341,5.94-11.89,11.196
			C489.404,171.453,477.546,171.597,461.001,171.597z"/>
		<path d="M266.179,100.167c3.494,0,6.963,0.053,10.31,0.158c29.593,0.933,56.978,13.799,83.462,26.242
			c19.047,8.949,38.742,18.202,59.348,23.148c0.153,0.037,0.31,0.055,0.467,0.055c2.741,0,5.669-0.013,8.74-0.026
			c3.377-0.015,6.926-0.03,10.588-0.03c27.631,0,57.189,0.97,71.623,7.672c-0.33,0.09-0.662,0.181-0.987,0.27
			c-1.512,0.414-3.181,0.872-4.803,1.326c-0.123,0.034-0.242,0.08-0.356,0.137c-4.384,2.195-8.415,5.934-11.991,11.121
			c-4.157,0.224-15.7,0.356-31.578,0.356c-15.519,0-31.052-0.127-36.933-0.302c-20.197-0.604-36.673-7.797-51.469-15.479
			c-5.457-2.834-10.954-5.779-16.271-8.628c-25.641-13.738-52.155-27.944-82.156-33.836c-23.937-4.695-49.573-6.882-80.678-6.883
			c-1.188,0-2.386,0.003-3.596,0.009c1.161-0.151,2.318-0.307,3.466-0.462c3.207-0.433,6.235-0.842,9.052-1.083l5.654-0.479
			C227.925,101.763,246.677,100.167,266.179,100.167 M151.55,102.175c1.741,0.382,3.482,0.764,5.223,1.146
			c3.666,0.805,7.333,1.609,11.001,2.411c0.194,0.042,0.39,0.083,0.587,0.123c-1.172,0.033-2.366,0.068-3.581,0.105
			c-3.489-0.094-6.786-0.824-10.078-2.232c-0.041-0.017-0.082-0.033-0.125-0.048C153.568,103.243,152.561,102.743,151.55,102.175
			 M266.179,98.167c-21.468,0-42.378,1.956-63.929,3.773c-7.808,0.665-17.291,2.618-25.851,2.618c-2.868,0-5.633-0.219-8.197-0.78
			c-7.34-1.604-14.668-3.22-22.008-4.824c-0.962-0.21-1.937-0.419-2.899-0.629c-0.197-0.049-0.407-0.062-0.592-0.062
			c3.43,2.985,7.106,5.551,11.202,7.303h0.013c3.318,1.419,6.92,2.295,10.869,2.394c9.65-0.296,19.204-0.492,28.71-0.492
			c26.902,0,53.385,1.567,80.293,6.845c35.862,7.044,66.037,25.733,97.889,42.277c16.987,8.82,32.975,15.124,52.331,15.703
			c6.007,0.179,21.844,0.303,36.992,0.303c14.893,0,29.12-0.12,32.688-0.426c4.009-6.065,8.154-9.449,11.777-11.263
			c4.935-1.382,10.313-2.792,10.326-2.924c-13.194-9.348-48.284-10.27-76.701-10.27c-6.986,0-13.571,0.056-19.325,0.056
			c-49.186-11.807-91.931-47.828-143.213-49.444C273.076,98.217,269.621,98.167,266.179,98.167L266.179,98.167z"/>
	</g>
	<g>
		<path fill-rule="evenodd" clip-rule="evenodd" fill="#C19B6F" d="M612.311,312.337c0.53,0.16,1.086,0.309,1.641,0.432
			c-6.254,1.16-20.515-1.036-24.18-1.333c-17.641-1.405-33.406-7.044-49.863-13.248c-16.135-6.082-33.098-9.389-49.345-15.137
			c-18.332-6.477-35.245-15.409-52.454-24.402c-32.58-17.036-61.164-40.586-95.101-55.254
			c-34.912-15.1-73.475-19.195-110.422-27.424c-17.691-3.947-34.937-10.202-52.084-15.976
			c-16.357-5.502-28.817-20.589-44.546-25.968c-33.197-11.35-77.867-11.608-105.698-34.542c-7.6-6.243-14.063-12.769-20.812-19.948
			c-4.688-4.984,13.472-1.37,17.667-0.186c0.246,0.074,0.444,0.136,0.592,0.186c16.765,5.934,33.16,13.113,50.48,4.367
			c2.627-1.332,5.798-2.8,9.277-4.17c0.012,0,0.012-0.012,0.025-0.012c9.844-3.874,22.082-6.92,31.235-3.43h0.024
			c2.233,0.852,4.256,2.085,6.033,3.788c5.811,5.563,11.423,12.583,17.924,18.184c3.43,2.985,7.106,5.551,11.202,7.303h0.013
			c3.318,1.419,6.92,2.295,10.869,2.394c36.959-1.136,72.587-0.79,109.003,6.353c35.862,7.044,66.037,25.733,97.889,42.277
			c16.987,8.82,32.975,15.124,52.331,15.703c19.121,0.567,69.577-0.172,69.577-0.172c0.012,0,0.012,0,0.025,0
			c0.012,0,1.986,0.16,2.948,0.271c10.708,1.074,20.959,3.282,30.902,6.403c0.062,0.013,0.111,0.037,0.173,0.05
			c0.024,0,0.037,0.012,0.063,0.012c7.204,1.938,14.333,4.343,21.342,7.451c15.926,7.069,31.063,16.259,45.483,26.128
			c0.062,0.05,0.123,0.087,0.185,0.137c6.811,4.416,13.312,9.042,19.022,14.051c0.014,0.013,0.025,0.024,0.05,0.037h0.013
			c0.062,0.049,0.111,0.087,0.173,0.16c9.339,7.87,16.741,16.666,19.651,28.497c0.025,0.136,0.062,0.26,0.087,0.395
			c0.357,1.629,0.641,3.294,0.888,4.983c0,0,0,0.013,0,0.025c0.234,1.925,0.357,3.935,0.357,6.021
			C634.947,286.468,625.881,299.297,612.311,312.337z"/>
		<path d="M614.261,311.821c0.503,0.16,0.801,0.686,0.665,1.201c-0.103,0.389-0.421,0.663-0.792,0.729
			c-4.053,0.714-7.938,0.467-11.834,0.286c-3.881-0.202-7.769-0.649-11.559-0.998c-3.875-0.368-7.667-0.604-11.595-1.286
			c-0.973-0.152-1.956-0.278-2.921-0.454l-2.873-0.581l-2.875-0.582c-0.956-0.206-1.896-0.462-2.846-0.69
			c-7.597-1.831-15.013-4.252-22.315-6.838l-5.464-1.96l-0.683-0.245l-0.617-0.199l-1.377-0.445l-2.754-0.889
			c-3.674-1.157-7.341-2.459-11.021-3.404l-22.262-6.15l-11.185-3.472l-0.432-0.142l-0.337-0.13l-0.675-0.26l-1.351-0.52
			l-2.701-1.038l-5.402-2.077l-2.701-1.038c-0.899-0.356-1.79-0.788-2.685-1.179l-5.364-2.402l-5.365-2.405l-5.23-2.559
			c-3.466-1.731-6.996-3.384-10.411-5.181l-10.295-5.329c-13.709-7.228-27.017-15.561-39.975-23.865
			c-6.489-4.191-12.997-8.275-19.512-12.347l-9.876-5.869c-1.632-1.01-3.33-1.874-5.003-2.792l-5.034-2.726
			c-3.319-1.901-6.798-3.437-10.231-5.073l-5.159-2.437l-0.322-0.153c-0.031-0.015-0.158-0.074-0.111-0.052l-0.167-0.069
			l-0.669-0.275l-1.338-0.551l-2.676-1.102c-1.791-0.771-3.549-1.373-5.319-2.042l-2.651-0.984l-2.702-0.916
			c-3.593-1.254-7.25-2.343-10.898-3.451c-14.679-4.215-29.709-7.348-44.836-10.277l-22.741-4.417
			c-3.793-0.766-7.59-1.528-11.379-2.362l-2.842-0.62l-1.421-0.31l-0.434-0.102l-0.35-0.09l-0.701-0.18l-5.606-1.438l-5.606-1.437
			c-1.869-0.496-3.741-1.119-5.611-1.673l-5.61-1.712l-2.804-0.857l-2.754-0.92l-11.012-3.686l-10.944-3.753l-0.684-0.236
			l-0.773-0.277l-1.352-0.516l-1.352-0.516l-1.424-0.643c-1.944-0.851-3.679-1.8-5.434-2.785c-3.484-1.984-6.74-4.223-9.908-6.486
			c-6.339-4.504-12.359-9.241-18.923-12.612c-1.644-0.82-3.304-1.589-5.004-2.207l-0.633-0.248c-0.103-0.037-0.036-0.02-0.107-0.042
			l-0.172-0.055l-0.345-0.11l-1.377-0.442l-2.756-0.884c-1.845-0.629-3.65-1.065-5.474-1.588l-2.732-0.755l-2.785-0.686
			c-7.418-1.854-14.952-3.399-22.511-4.984c-7.556-1.6-15.142-3.195-22.68-5.148c-7.531-1.973-15.019-4.279-22.294-7.253
			c-7.289-2.924-14.278-6.796-20.597-11.598l-2.376-1.794l-2.227-1.921c-1.448-1.29-2.927-2.482-4.342-3.859l-4.271-4.052
			l-4.097-4.153c-1.382-1.372-2.672-2.812-4.013-4.214l-1.993-2.117c-0.331-0.395-0.296-0.32-0.594-0.736
			c-0.131-0.198-0.256-0.392-0.368-0.608c-0.109-0.258-0.204-0.52-0.274-0.797c-0.044-0.392-0.089-0.757,0.027-1.184
			c0.059-0.216,0.141-0.43,0.24-0.628c0.098-0.2,0.215-0.32,0.34-0.475c0.119-0.133,0.277-0.303,0.386-0.376
			c0.113-0.081,0.229-0.158,0.348-0.23c0.259-0.167,0.432-0.219,0.631-0.3c0.766-0.272,1.359-0.336,1.928-0.383
			c0.574-0.05,1.104-0.05,1.631-0.042c1.049,0.021,2.055,0.105,3.052,0.211c1.991,0.216,3.931,0.538,5.863,0.899
			c1.934,0.372,3.836,0.775,5.78,1.287l0.371,0.103l0.412,0.125l0.344,0.111l0.399,0.142l1.359,0.497l2.717,0.997
			c3.626,1.327,7.219,2.658,10.853,3.789c7.235,2.263,14.741,3.785,22.138,2.935c3.689-0.388,7.289-1.441,10.668-2.992
			c1.735-0.743,3.488-1.622,5.231-2.425c1.784-0.785,3.621-1.513,5.43-2.267l0.472-0.091c-0.151-0.001-0.327,0.029-0.49,0.098
			c-0.082,0.034-0.159,0.076-0.229,0.124l-0.099,0.074l-0.07,0.063c0.213-0.22,0.608-0.38,0.913-0.372l-0.471,0.09
			c2.529-0.967,5.099-1.838,7.714-2.575c2.614-0.736,5.274-1.34,7.978-1.743c0.672-0.12,1.357-0.172,2.035-0.261
			c0.677-0.095,1.367-0.115,2.049-0.173c0.682-0.065,1.374-0.049,2.061-0.073c0.686-0.033,1.379,0.027,2.068,0.041
			c0.689,0.004,1.379,0.116,2.069,0.17c0.689,0.056,1.373,0.213,2.059,0.316c0.685,0.121,1.358,0.323,2.036,0.482
			c0.67,0.197,1.329,0.443,1.993,0.664l0.008,0.002l-0.356-0.065h0.024h0.038c0.111,0,0.222,0.024,0.318,0.065
			c0.929,0.4,1.866,0.784,2.737,1.313c0.452,0.232,0.877,0.509,1.288,0.81c0.41,0.299,0.852,0.558,1.222,0.908l1.167,1.015
			l1.012,1.027l2.024,2.053c1.363,1.35,2.661,2.79,3.984,4.195c1.315,1.424,2.64,2.805,3.964,4.18l1.986,2.07
			c0.675,0.673,1.382,1.304,2.072,1.959l2.081,1.947l0.52,0.487c0.081,0.073,0.188,0.182,0.246,0.225l0.278,0.229l1.114,0.916
			l1.114,0.915l1.136,0.818c0.765,0.533,1.491,1.119,2.313,1.576c0.81,0.469,1.584,1.007,2.421,1.42l2.516,1.227l-0.393-0.081h0.013
			c0.137,0,0.274,0.03,0.394,0.081c3.585,1.528,7.493,2.322,11.35,2.291l12.089-0.303l12.111-0.14
			c4.038-0.058,8.075,0.044,12.112,0.059c4.038-0.008,8.074,0.181,12.11,0.301c2.018,0.074,4.038,0.115,6.055,0.215l6.049,0.372
			l6.049,0.372c2.016,0.132,4.024,0.365,6.037,0.542c4.021,0.41,8.056,0.679,12.056,1.278l6.011,0.795
			c2.003,0.273,4.013,0.496,6,0.878l11.967,2.097l5.908,1.29c1.968,0.475,3.935,1.016,5.903,1.521
			c3.909,1.097,7.786,2.267,11.609,3.611c15.328,5.29,29.935,12.36,44.223,19.852c7.15,3.746,14.241,7.587,21.355,11.37
			c3.554,1.886,7.12,3.79,10.695,5.592c1.804,0.89,3.594,1.845,5.41,2.682l5.45,2.513c7.337,3.212,14.933,5.825,22.746,7.448
			c0.976,0.202,1.945,0.445,2.928,0.614l2.961,0.423l2.961,0.424c0.986,0.149,1.987,0.156,2.98,0.242l2.984,0.201l1.492,0.102
			c0.463,0.017,0.997,0.007,1.491,0.012l6.046,0.019l24.186,0.073c4.03,0.001,8.064,0.049,12.091,0.013l12.081-0.131l12.081-0.131
			l1.51-0.017l0.204-0.002c0.177,0.008,0.157,0.012,0.245,0.019l0.376,0.034l0.752,0.069l1.505,0.138l1.569,0.193l5.998,0.766
			c8.044,1.271,15.957,3.121,23.711,5.501l-0.098-0.025l0.173,0.05l-0.202-0.021l0.063,0.012l0.26,0.034l4.542,1.302
			c1.517,0.426,3.002,0.958,4.505,1.432c1.506,0.464,2.982,1.02,4.461,1.568c1.48,0.541,2.963,1.078,4.409,1.711
			c1.458,0.631,2.909,1.164,4.371,1.875l4.231,2.036l4.232,2.037c1.413,0.674,2.828,1.34,4.196,2.132l8.278,4.558
			c1.396,0.736,2.731,1.563,4.068,2.386l4.02,2.457l4.021,2.457c1.347,0.809,2.627,1.717,3.944,2.57l7.851,5.199l0.064,0.048
			l0.185,0.137l-0.085-0.062l4.96,3.299l4.873,3.438l4.755,3.614l4.517,3.758l-0.576-0.183h0.013h0.039
			c0.222,0,0.427,0.082,0.583,0.217c0.109,0.095,0.216,0.195,0.316,0.3l-0.121-0.121l1.928,1.697
			c0.635,0.574,1.303,1.11,1.909,1.718l1.845,1.796c0.623,0.59,1.229,1.198,1.795,1.849l1.737,1.909c0.601,0.616,1.09,1.335,1.637,2
			l1.595,2.038l1.434,2.162c0.47,0.725,0.982,1.424,1.365,2.204l1.232,2.288c0.442,0.747,0.75,1.561,1.087,2.359l1.003,2.4
			c0.293,0.815,0.514,1.656,0.773,2.483c0.242,0.854,0.519,1.607,0.731,2.544l0.894,5.012c0.011,0.057,0.016,0.124,0.017,0.18v0.025
			l-0.008-0.121c0.095,1.241,0.268,2.479,0.294,3.724l0.056,1.865l0.013,0.466c0.005,0.215-0.006,0.322-0.009,0.488l-0.026,0.915
			c-0.038,1.221-0.045,2.43-0.188,3.688c-0.104,1.249-0.212,2.497-0.43,3.72l-0.283,1.843l-0.397,1.823
			c-0.237,1.223-0.591,2.417-0.941,3.611c-0.311,1.208-0.799,2.357-1.201,3.534c-0.435,1.166-0.969,2.292-1.453,3.438
			c-0.572,1.103-1.093,2.234-1.711,3.312c-0.632,1.068-1.215,2.168-1.917,3.19c-0.668,1.046-1.353,2.078-2.096,3.068
			c-0.709,1.017-1.476,1.986-2.248,2.95c-0.751,0.983-1.579,1.897-2.375,2.841c-0.796,0.942-1.653,1.825-2.478,2.741
			c-0.84,0.899-1.709,1.77-2.562,2.655L614.261,311.821z M611.617,311.616l2.594-2.551c0.839-0.872,1.695-1.729,2.521-2.614
			c0.809-0.898,1.652-1.767,2.431-2.688s1.591-1.818,2.321-2.775c0.753-0.941,1.5-1.886,2.188-2.872
			c0.723-0.963,1.386-1.964,2.032-2.976c0.682-0.99,1.24-2.052,1.853-3.083c0.598-1.039,1.096-2.129,1.649-3.19
			c0.464-1.103,0.979-2.185,1.396-3.305c0.385-1.132,0.857-2.234,1.153-3.395c0.337-1.147,0.678-2.294,0.904-3.47l0.384-1.753
			l0.271-1.774c0.212-1.184,0.312-2.367,0.411-3.551c0.138-1.168,0.147-2.401,0.185-3.619l0.026-0.915
			c0.002-0.139,0.015-0.336,0.008-0.427l-0.013-0.448l-0.054-1.794c-0.024-1.196-0.192-2.382-0.28-3.573l-0.006-0.078l-0.002-0.043
			v-0.025l0.017,0.18l-0.893-5.002c-0.165-0.716-0.459-1.563-0.682-2.339c-0.248-0.79-0.456-1.594-0.736-2.371l-0.959-2.292
			c-0.321-0.763-0.612-1.54-1.038-2.255l-1.18-2.189c-0.363-0.747-0.858-1.418-1.311-2.114l-1.376-2.078l-1.54-1.966
			c-0.529-0.644-0.996-1.335-1.582-1.935l-1.686-1.853c-0.548-0.63-1.138-1.223-1.746-1.798l-1.8-1.752
			c-0.591-0.593-1.249-1.12-1.87-1.683l-1.89-1.664l-0.121-0.121c-0.015-0.003-0.023-0.009-0.029-0.021l0.622,0.217h-0.013h-0.07
			c-0.192,0-0.369-0.069-0.506-0.183l-4.607-3.826l-4.691-3.565l-4.821-3.402l-4.92-3.272l-0.031-0.021l-0.054-0.04l-0.185-0.137
			l0.064,0.048l-7.813-5.174c-1.311-0.849-2.586-1.754-3.925-2.558l-3.995-2.441l-3.994-2.442c-1.33-0.818-2.657-1.641-4.033-2.365
			l-8.179-4.504c-1.343-0.78-2.762-1.447-4.175-2.122l-4.232-2.037l-4.232-2.036c-1.354-0.661-2.846-1.214-4.262-1.826
			c-1.424-0.623-2.885-1.153-4.345-1.687c-1.458-0.541-2.912-1.089-4.4-1.547c-1.483-0.468-2.947-0.992-4.446-1.413l-4.488-1.286
			l0.26,0.034l-0.063-0.012l-0.202-0.021l-0.173-0.05l-0.098-0.025c-7.664-2.352-15.481-4.176-23.365-5.425l-5.998-0.767
			l-1.431-0.18l-1.505-0.139l-0.753-0.068l-0.376-0.035c-0.037-0.005-0.182-0.014-0.131-0.015l-0.174,0.002l-1.513,0.017
			l-12.104,0.131l-12.104,0.13c-4.034,0.036-8.063-0.011-12.095-0.012l-24.186-0.073l-6.046-0.019
			c-0.513-0.005-0.988,0.006-1.532-0.013l-1.524-0.103l-3.048-0.205c-1.014-0.088-2.037-0.096-3.044-0.248l-3.025-0.433
			l-3.024-0.433c-1.003-0.172-1.992-0.419-2.989-0.626c-7.976-1.657-15.71-4.32-23.138-7.572l-5.531-2.551
			c-1.845-0.851-3.614-1.795-5.424-2.688c-3.624-1.827-7.171-3.721-10.737-5.614c-7.123-3.787-14.21-7.626-21.343-11.363
			c-14.254-7.474-28.77-14.495-43.947-19.733c-3.783-1.331-7.628-2.49-11.479-3.571c-1.937-0.497-3.857-1.026-5.807-1.498
			l-5.908-1.29l-11.855-2.075c-1.974-0.38-3.973-0.602-5.964-0.873l-5.977-0.791c-3.977-0.596-7.993-0.863-11.992-1.271
			c-2.002-0.177-4-0.408-6.006-0.54l-6.021-0.37l-6.021-0.37c-2.009-0.1-4.021-0.141-6.031-0.214
			c-4.021-0.119-8.041-0.309-12.066-0.3c-4.024-0.014-8.049-0.117-12.073-0.059l-12.073,0.139l-12.089,0.303
			c-4.204,0.036-8.352-0.822-12.186-2.452l0.393,0.081h-0.013h-0.044c-0.124,0-0.245-0.03-0.35-0.081l-2.667-1.3
			c-0.886-0.439-1.699-1-2.551-1.495c-0.86-0.481-1.639-1.103-2.449-1.669l-1.201-0.87l-1.114-0.916l-1.114-0.915l-0.278-0.229
			c-0.132-0.104-0.19-0.172-0.288-0.26l-0.533-0.498l-2.13-1.992c-0.705-0.668-1.432-1.319-2.117-2.003l-2.007-2.091
			c-1.342-1.394-2.679-2.788-3.972-4.188c-1.312-1.394-2.587-2.813-3.957-4.167l-2.024-2.054l-1.012-1.027l-1.011-0.875
			c-0.328-0.315-0.726-0.541-1.09-0.809c-0.365-0.269-0.744-0.517-1.15-0.723c-0.775-0.474-1.622-0.816-2.457-1.18l0.356,0.065
			h-0.024c-0.105,0-0.206-0.017-0.301-0.047l-0.055-0.018l-0.007-0.002c-0.609-0.187-1.208-0.4-1.822-0.568
			c-0.626-0.131-1.239-0.307-1.873-0.405c-0.637-0.081-1.264-0.217-1.908-0.256c-0.644-0.036-1.28-0.132-1.929-0.122
			c-0.647,0.001-1.291-0.046-1.941-0.001c-0.648,0.036-1.296,0.03-1.944,0.106c-0.647,0.068-1.296,0.098-1.942,0.201
			c-0.646,0.098-1.294,0.158-1.937,0.286c-2.578,0.434-5.131,1.064-7.649,1.826c-2.518,0.762-5.001,1.656-7.447,2.646l-0.472,0.091
			c0.297,0.013,0.683-0.144,0.888-0.36l-0.073,0.065l-0.102,0.076c-0.072,0.049-0.151,0.092-0.235,0.127
			c-0.167,0.07-0.348,0.103-0.503,0.104l0.472-0.091c-1.738,0.766-3.476,1.493-5.213,2.281c-1.749,0.837-3.434,1.714-5.234,2.518
			c-3.6,1.715-7.493,2.914-11.477,3.392c-3.98,0.51-8.01,0.394-11.938-0.144c-3.933-0.536-7.771-1.474-11.522-2.583
			c-3.752-1.11-7.417-2.41-11.056-3.682l-2.73-0.957l-1.366-0.478L27.119,81.2l-0.346-0.106L26.6,81.042
			c0.053,0.016-0.079-0.021-0.109-0.028l-0.327-0.085c-1.794-0.446-3.674-0.819-5.534-1.148c-1.864-0.322-3.738-0.604-5.587-0.777
			c-0.922-0.085-1.842-0.147-2.722-0.152c-0.437-0.001-0.874,0.007-1.259,0.048c-0.392,0.027-0.763,0.111-0.902,0.168
			c-0.024,0.01-0.085,0.026-0.021,0.006c0.017-0.008,0.031-0.021,0.042-0.037c0.004-0.012,0.101-0.07,0.134-0.119
			c0.055-0.058,0.062-0.106,0.123-0.19c0.057-0.085,0.098-0.187,0.117-0.289c0.03-0.201,0.064-0.314,0.009-0.469
			c0.005-0.05-0.002-0.085-0.031-0.116c0.005-0.007,0.016,0,0.01,0.008c-0.04-0.009,0.341,0.409,0.315,0.387l2.004,2.069
			c1.345,1.368,2.651,2.784,4.028,4.111l4.09,4.03l4.18,3.857c1.365,1.299,2.915,2.508,4.359,3.771l2.17,1.841l2.26,1.67
			c5.999,4.474,12.663,8.111,19.72,10.869c7.038,2.805,14.347,4.992,21.758,6.865c7.42,1.854,14.956,3.372,22.511,4.902
			c7.557,1.517,15.16,3.006,22.732,4.828l2.841,0.673l2.854,0.761c1.89,0.523,3.841,0.988,5.654,1.59l2.763,0.859l1.381,0.43
			l0.346,0.107l0.172,0.054l0.233,0.082l0.717,0.271c1.934,0.685,3.785,1.522,5.601,2.41c7.223,3.647,13.425,8.484,19.694,12.843
			c3.128,2.194,6.262,4.303,9.503,6.109c1.615,0.89,3.282,1.774,4.88,2.455l1.214,0.546l1.356,0.504l1.356,0.504l0.169,0.063
			c0.139,0.051,0,0.001,0.078,0.027l0.343,0.115l0.686,0.23l10.976,3.692L204.444,165l2.739,0.901l2.734,0.822l5.468,1.643
			c1.832,0.534,3.625,1.128,5.487,1.613l5.612,1.412l5.613,1.412l0.701,0.177l0.351,0.088c0.022,0.006,0.197,0.049,0.095,0.024
			l0.176,0.038l1.408,0.3l2.815,0.601c3.751,0.808,7.523,1.549,11.297,2.293l22.729,4.31c15.185,2.854,30.417,5.982,45.417,10.278
			c3.737,1.129,7.479,2.237,11.174,3.52l2.78,0.938l2.775,1.026c1.84,0.691,3.733,1.347,5.488,2.1l2.677,1.098l1.339,0.549
			l0.669,0.274l0.167,0.068c0.159,0.065,0.139,0.063,0.218,0.098l0.332,0.155l5.312,2.497c3.534,1.677,7.123,3.261,10.509,5.191
			l5.149,2.777c1.71,0.935,3.454,1.821,5.106,2.841l10.034,5.941c6.579,4.097,13.148,8.208,19.63,12.381
			c13.049,8.308,25.852,16.484,39.441,23.695c6.829,3.571,13.654,7.158,20.509,10.58l5.138,2.585l5.171,2.388l5.172,2.39
			c0.868,0.392,1.71,0.815,2.6,1.18l2.689,1.068l5.379,2.137l2.689,1.068l1.345,0.534l0.672,0.268l0.336,0.134
			c-0.11-0.043,0.067,0.02,0.086,0.024l0.17,0.056l10.863,3.584l22.248,6.591c3.781,1.041,7.357,2.426,11.013,3.68l2.73,0.959
			l1.365,0.479l0.752,0.269l0.673,0.261l5.381,2.086c7.181,2.733,14.39,5.307,21.727,7.379c0.918,0.256,1.83,0.54,2.753,0.773
			l2.776,0.664l2.778,0.665c0.927,0.203,1.854,0.354,2.781,0.533c3.657,0.782,7.565,1.173,11.357,1.667
			c3.878,0.511,7.648,1.032,11.461,1.435c3.778,0.367,7.664,0.756,11.265,0.287l-0.07,1.951l-1.641-0.432
			c-0.534-0.141-0.854-0.688-0.713-1.223c0.047-0.18,0.14-0.335,0.263-0.456L611.617,311.616z"/>
	</g>
	
		<path fill-rule="evenodd" clip-rule="evenodd" fill="#FFA800" stroke="#000000" stroke-width="0.5546" stroke-linecap="round" stroke-linejoin="round" d="
		M613.729,226.624c-4.07-3.429-8.499-6.674-13.076-9.905c-1.973-1.395-3.947-2.776-5.946-4.146
		C601.517,216.989,608.018,221.615,613.729,226.624z"/>
	<g>
		<path fill-rule="evenodd" clip-rule="evenodd" fill="#840271" d="M799.676,190.047c-9.363,1.542-17.629,3.195-22.563,3.651
			c-1.58,0.148-3.221,0.297-4.923,0.432c-3.072,0.259-6.291,0.494-9.549,0.593c-3.343,0.11-6.698,0.086-9.954-0.174
			c-2.258-0.172-6.268,0.157-8.364-0.274c7.599-0.469,18.06-4.684,25.351-4.783c7.908-0.099,15.827-0.197,23.735-0.308
			C795.456,189.541,797.554,189.824,799.676,190.047z"/>
		<path d="M802,190.261l-15.947,2.748c-2.291,0.394-4.59,0.761-6.906,1.07c-2.343,0.29-4.636,0.441-6.964,0.658
			c-2.316,0.168-4.621,0.379-6.96,0.466c-1.16,0.048-2.341,0.135-3.498,0.146c-1.156,0.036-2.325,0.04-3.498,0.032
			c-1.171-0.007-2.338-0.047-3.507-0.1c-1.179-0.066-2.331-0.165-3.463-0.176l-3.468,0.007c-1.177-0.02-2.346-0.008-3.589-0.245l0,0
			l0.085-1.197c1.007-0.063,2.017-0.166,3.026-0.311c1.009-0.151,2.017-0.331,3.022-0.529c2.01-0.419,4.008-0.925,6.014-1.421
			c4.013-0.969,8.016-2.13,12.238-2.445c2.118-0.112,4.146-0.156,6.222-0.238c2.065-0.066,4.13-0.194,6.194-0.288l6.194-0.283
			c2.065-0.075,4.131-0.122,6.196-0.157l0.103-0.002l0.117,0.02c1.026,0.17,2.05,0.354,3.066,0.604
			c1.024,0.21,2.045,0.46,3.061,0.826L802,190.261z M799.612,190.649c-1.078,0.114-2.151,0.112-3.222,0.068
			c-1.067-0.07-2.128-0.212-3.187-0.365l0.22,0.018c-2.065,0.019-4.132,0.025-6.198,0.003l-6.199-0.122
			c-2.066-0.04-4.134-0.114-6.2-0.128l-3.1-0.028c-1.03-0.006-2.077-0.04-3.07,0.021c-2.016,0.109-4.037,0.46-6.045,0.872
			c-2.01,0.416-4.014,0.9-6.015,1.414c-2.003,0.508-4.011,1.013-6.041,1.462c-1.016,0.227-2.037,0.436-3.067,0.616
			c-1.032,0.174-2.075,0.308-3.129,0.398l0.085-1.197l0,0c1.043,0.202,2.211,0.204,3.351,0.22l3.495-0.007
			c1.189,0.014,2.353,0.113,3.491,0.178c1.148,0.052,2.303,0.091,3.453,0.098c1.147,0.008,2.3,0.004,3.464-0.032
			c1.165-0.011,2.3-0.097,3.46-0.145c2.301-0.084,4.621-0.296,6.935-0.463c2.294-0.214,4.636-0.371,6.9-0.652
			c2.285-0.307,4.571-0.671,6.856-1.063l13.726-2.365L799.612,190.649z"/>
	</g>
	<g>
		<path fill-rule="evenodd" clip-rule="evenodd" fill="#FC8BE7" d="M839.806,273.428c-15.038,24.229-32.754,47.211-60.954,55.773
			c-27.412,8.314-52.048-9.08-78.952-13.385c-15.396-2.467-30.385-4.367-45.991-4.564c-12.052-0.148-28.039,4.292-39.957,1.517
			c-0.555-0.123-1.11-0.271-1.641-0.432c13.57-13.04,22.637-25.869,22.637-45.595c0-2.086-0.123-4.096-0.357-6.021
			c0-0.013,0-0.025,0-0.025c-0.21-1.714-0.506-3.38-0.888-4.983c-0.025-0.135-0.062-0.259-0.087-0.395
			c-2.91-11.831-10.313-20.627-19.651-28.497c-0.062-0.073-0.111-0.111-0.173-0.16h-0.013c-0.024-0.013-0.036-0.024-0.05-0.037
			c-5.711-5.009-12.212-9.635-19.022-14.051c-0.062-0.05-0.123-0.087-0.185-0.137c-14.421-9.869-29.558-19.059-45.483-26.128
			c-7.009-3.108-14.138-5.514-21.342-7.451c-0.025,0-0.038-0.012-0.063-0.012c-0.062-0.013-0.111-0.037-0.173-0.05
			c-9.943-3.121-20.195-5.329-30.902-6.403c-0.962-0.11-2.937-0.271-2.948-0.271c-0.013,0,1.83-7.342,11.855-11.214
			c4.78-1.846,15.084-4.828,26.461-3.775c11.416,1.057,32.358,9.018,46.607,17.837c13.792,8.538,26.387,19.356,41.362,25.871
			c13.633,5.921,27.486,6.611,41.81,5.601c4.971,3.553,10.103,6.896,15.383,10.004c14.705,8.673,29.656,15.1,45.065,19.813
			c5.365,1.641,10.78,3.072,16.259,4.317c-3.85,7.007-6.526,14.249-6.858,23.181c-0.519,14.112,16.48,22.637,26.769,28.435
			c26.831,15.137,53.787-1.196,69.837-22.242c6.255-8.191,12.929-16.37,16.752-25.857c3.652-1.295,7.969-5.202,10.848-7.669
			C855.76,236.423,846.158,263.201,839.806,273.428z"/>
		<path d="M840.654,273.957c-2.765,4.513-5.631,8.999-8.646,13.373c-3.014,4.381-6.224,8.633-9.599,12.766
			c-3.387,4.123-7.014,8.067-10.928,11.737c-3.924,3.657-8.142,7.027-12.662,9.977c-4.526,2.936-9.34,5.468-14.393,7.43
			c-1.27,0.47-2.537,0.949-3.83,1.354l-0.966,0.317c-0.417,0.141-0.664,0.192-1.004,0.293l-1.915,0.534
			c-2.733,0.673-5.415,1.118-8.15,1.387c-5.461,0.486-10.967,0.199-16.3-0.745c-5.347-0.897-10.541-2.328-15.638-3.905
			c-10.188-3.174-20.025-7.032-30.161-9.454c-2.532-0.624-5.067-1.099-7.64-1.519l-7.824-1.23
			c-5.201-0.805-10.428-1.494-15.655-2.065c-5.229-0.593-10.474-0.961-15.721-1.247l-3.938-0.131l-1.953-0.061
			c-0.67-0.011-1.315-0.008-1.942,0.005c-2.576,0.061-5.188,0.246-7.802,0.496c-5.233,0.493-10.505,1.179-15.854,1.464
			c-2.673,0.141-5.369,0.188-8.071-0.006c-2.684-0.184-5.447-0.622-8.006-1.421l-0.031-0.009l-1.675-0.466l1.266-1.214
			c3.501-3.36,6.863-6.855,9.888-10.612c3.029-3.749,5.679-7.793,7.73-12.124c1.018-2.168,1.88-4.406,2.574-6.696
			c0.353-1.144,0.646-2.305,0.917-3.471c0.259-1.17,0.479-2.347,0.659-3.532c0.356-2.37,0.549-4.768,0.601-7.17l0.015-0.901
			l0.003-0.424l-0.013-0.458l-0.052-1.829c-0.024-1.226-0.191-2.373-0.276-3.563l-0.008-0.096v-0.018v-0.025l0.008,0.113
			l-0.367-2.466l-0.511-2.482l-0.068-0.311l-0.063-0.233l-0.167-0.614l-0.335-1.227c-0.254-0.787-0.501-1.562-0.777-2.341
			c-0.312-0.769-0.573-1.558-0.925-2.311c-0.34-0.757-0.664-1.521-1.056-2.255c-0.363-0.747-0.76-1.477-1.181-2.193
			c-0.396-0.731-0.857-1.425-1.298-2.131s-0.938-1.375-1.405-2.064c-0.501-0.666-0.994-1.339-1.513-1.992
			c-0.535-0.641-1.04-1.306-1.603-1.925c-0.55-0.63-1.099-1.26-1.681-1.863c-1.134-1.229-2.336-2.4-3.556-3.552
			c-1.223-1.15-2.488-2.258-3.767-3.351l-0.107-0.107c-0.002,0.003,0,0.004,0.002,0.003c-0.011-0.01-0.032-0.026-0.047-0.039
			l0.551,0.192h-0.013l-0.231-0.001l-0.178-0.1c-0.064-0.036-0.128-0.078-0.186-0.125l-0.055-0.045l-0.07-0.06l-0.141-0.121
			l-0.281-0.241l-0.563-0.482l-1.127-0.964l-2.276-1.852c-1.542-1.218-3.105-2.409-4.691-3.574c-3.175-2.324-6.435-4.539-9.74-6.689
			l-0.013-0.009l-0.061-0.044l-0.184-0.137l0.055,0.041c-2.595-1.741-5.165-3.522-7.794-5.21c-1.313-0.847-2.607-1.722-3.934-2.546
			l-3.971-2.489c-1.32-0.834-2.674-1.613-4.009-2.423c-1.338-0.805-2.676-1.61-4.04-2.369l-4.07-2.314l-4.127-2.212
			c-1.367-0.752-2.766-1.445-4.161-2.142c-1.4-0.688-2.777-1.425-4.197-2.07l-4.243-1.971c-1.38-0.649-2.871-1.221-4.302-1.832
			c-1.44-0.629-2.899-1.156-4.356-1.688c-1.455-0.538-2.906-1.085-4.397-1.544c-1.486-0.467-2.953-0.992-4.454-1.413l-4.493-1.286
			l0.209,0.028l-0.063-0.012l-0.163-0.018l-0.179-0.049c0.002,0.002,0.004,0.002,0.006,0l-0.078-0.021
			c-8.712-2.718-17.643-4.724-26.688-5.896l-3.397-0.388c-1.062-0.128-2.261-0.215-3.384-0.324l-0.107-0.01l-0.054-0.005
			c0.088,0.048-1.125-0.546-0.656-0.395c-0.113-0.179-0.159-0.475-0.104-0.68l0.029-0.106l0.036-0.119l0.155-0.448
			c0.109-0.29,0.227-0.572,0.355-0.849c0.253-0.554,0.543-1.084,0.856-1.6c0.631-1.026,1.36-1.986,2.176-2.862
			c1.622-1.764,3.567-3.196,5.649-4.326c1.044-0.565,2.118-1.049,3.229-1.477c1.057-0.41,2.2-0.788,3.296-1.133
			c4.442-1.363,9.019-2.265,13.651-2.657c4.612-0.396,9.355-0.254,13.914,0.619c4.585,0.856,9.005,2.192,13.376,3.669
			c4.364,1.494,8.652,3.19,12.867,5.056c4.212,1.868,8.353,3.904,12.382,6.159c4.037,2.254,7.896,4.772,11.706,7.352
			c7.603,5.163,14.978,10.607,22.821,15.252c3.918,2.317,7.966,4.416,12.15,6.145c4.192,1.736,8.539,3.01,12.994,3.868
			c8.906,1.752,18.082,1.776,27.172,1.141l0.313-0.021l0.27,0.186c1.441,0.998,2.867,2.02,4.322,2.998
			c1.466,0.962,2.903,1.966,4.395,2.89c1.479,0.94,2.957,1.886,4.466,2.777l2.243,1.35l2.295,1.307
			c1.533,0.863,3.054,1.768,4.606,2.563c1.551,0.811,3.081,1.655,4.648,2.438l4.721,2.32l4.784,2.184
			c1.59,0.738,3.227,1.372,4.837,2.063c1.608,0.698,3.251,1.313,4.887,1.942l2.454,0.945l2.479,0.877
			c1.656,0.576,3.301,1.186,4.978,1.7c1.668,0.52,3.343,1.105,5.006,1.572l5.08,1.447c1.691,0.508,3.392,0.919,5.092,1.331
			l5.1,1.252l1.187,0.292l-0.58,1.058c-1.752,3.194-3.282,6.499-4.418,9.933c-1.141,3.43-1.885,6.985-2.175,10.588
			c-0.079,0.887-0.135,1.83-0.141,2.679c-0.001,0.462-0.006,0.931,0.043,1.334c0.025,0.418,0.067,0.842,0.147,1.274
			c0.269,1.718,0.828,3.388,1.615,4.956c1.598,3.14,4.04,5.841,6.755,8.199c2.729,2.362,5.752,4.407,8.869,6.309
			c3.112,1.89,6.366,3.679,9.56,5.432c1.641,0.894,3.236,1.646,4.906,2.319c1.674,0.671,3.384,1.256,5.128,1.705
			c3.482,0.922,7.081,1.385,10.682,1.373c7.22,0.001,14.349-2.026,20.835-5.227c3.254-1.6,6.345-3.532,9.284-5.669
			c2.938-2.141,5.718-4.504,8.335-7.037c2.614-2.535,5.076-5.233,7.352-8.082c2.245-2.862,4.504-5.827,6.712-8.744
			c2.206-2.935,4.337-5.91,6.269-8.999c1.935-3.086,3.644-6.299,5.006-9.646l0.167-0.41l0.424-0.156
			c1.9-0.701,3.718-1.944,5.446-3.251c1.734-1.326,3.391-2.777,5.086-4.236l2.888-2.484l-1.301,3.578
			c-2.306,6.341-4.723,12.621-7.302,18.854c-1.285,3.117-2.626,6.214-4.045,9.284c-0.362,0.765-0.7,1.537-1.082,2.295l-1.127,2.28
			l-1.193,2.258L840.654,273.957z M838.957,272.898l1.241-2.134l1.164-2.2l1.107-2.241c0.375-0.743,0.711-1.511,1.068-2.266
			c1.403-3.033,2.735-6.108,4.014-9.208c2.563-6.192,4.979-12.466,7.27-18.763l1.587,1.093c-1.678,1.443-3.371,2.929-5.174,4.306
			c-1.814,1.362-3.702,2.693-5.989,3.545l0.591-0.566c-1.42,3.481-3.19,6.796-5.173,9.952c-1.979,3.159-4.146,6.179-6.371,9.134
			c-2.242,2.958-4.452,5.854-6.758,8.789c-2.327,2.908-4.845,5.664-7.523,8.257c-2.68,2.591-5.53,5.011-8.55,7.208
			c-3.021,2.192-6.205,4.18-9.568,5.83c-6.703,3.302-14.129,5.417-21.688,5.411c-3.769,0.01-7.539-0.479-11.18-1.445
			c-1.822-0.472-3.607-1.083-5.352-1.785c-1.747-0.703-3.487-1.533-5.081-2.404c-3.265-1.795-6.471-3.561-9.657-5.498
			c-3.17-1.938-6.274-4.035-9.12-6.502c-2.828-2.465-5.439-5.326-7.194-8.777c-0.865-1.725-1.491-3.589-1.79-5.513
			c-0.086-0.475-0.137-0.968-0.166-1.47c-0.053-0.514-0.045-0.967-0.045-1.426c0.01-0.993,0.066-1.892,0.149-2.84
			c0.305-3.745,1.084-7.455,2.271-11.016c1.183-3.565,2.768-6.975,4.562-10.239l0.606,1.35l-5.16-1.271
			c-1.723-0.419-3.444-0.838-5.127-1.346l-5.079-1.451c-1.728-0.487-3.38-1.067-5.073-1.597c-1.69-0.521-3.349-1.136-5.019-1.719
			l-2.5-0.887l-2.475-0.955c-1.65-0.637-3.307-1.259-4.929-1.964c-1.625-0.698-3.274-1.339-4.879-2.086l-4.825-2.206l-4.76-2.345
			c-1.582-0.792-3.136-1.65-4.705-2.474c-1.581-0.813-3.088-1.71-4.623-2.576l-2.295-1.309l-2.282-1.376
			c-1.522-0.901-3.012-1.855-4.503-2.806c-1.503-0.933-2.953-1.946-4.431-2.918c-1.467-0.987-2.903-2.019-4.357-3.026l0.582,0.164
			c-9.177,0.635-18.514,0.609-27.635-1.19c-2.281-0.42-4.527-1.017-6.761-1.646c-2.198-0.686-4.459-1.438-6.561-2.331
			c-4.29-1.776-8.401-3.915-12.372-6.268c-7.943-4.713-15.341-10.186-22.901-15.328c-3.781-2.563-7.607-5.064-11.576-7.283
			c-3.972-2.227-8.066-4.245-12.234-6.097c-4.169-1.849-8.414-3.532-12.724-5.012c-4.309-1.46-8.693-2.785-13.126-3.615
			c-4.451-0.854-8.961-0.987-13.479-0.609c-4.505,0.377-8.976,1.254-13.301,2.578c-1.089,0.344-2.125,0.683-3.207,1.1
			c-1.029,0.396-2.05,0.854-3.021,1.379c-1.944,1.053-3.742,2.377-5.227,3.991c-0.747,0.801-1.412,1.676-1.982,2.602
			c-0.282,0.464-0.543,0.941-0.767,1.43c-0.113,0.243-0.216,0.49-0.309,0.736l-0.126,0.364l-0.026,0.087
			c0.001-0.007-0.02,0.073-0.001-0.004c0.046-0.171-0.01-0.432-0.132-0.575c0.448,0.195-0.754-0.376-0.616-0.336l0.053,0.005
			l0.107,0.01c1.158,0.113,2.246,0.193,3.461,0.334l3.435,0.396c9.145,1.19,18.17,3.226,26.962,5.977l-0.078-0.021l0.179,0.05
			c-0.002-0.001-0.004-0.001-0.006,0l-0.163-0.017l0.063,0.012l0.21,0.028l4.536,1.302c1.515,0.426,2.998,0.958,4.499,1.432
			c1.502,0.463,2.981,1.021,4.462,1.57c1.484,0.544,2.971,1.084,4.4,1.71c1.447,0.621,2.883,1.17,4.341,1.847l4.281,1.976
			c1.433,0.648,2.82,1.387,4.232,2.076c1.407,0.698,2.816,1.394,4.194,2.147l4.159,2.216l4.101,2.319
			c1.374,0.761,2.721,1.567,4.068,2.374c1.344,0.811,2.707,1.591,4.035,2.427l3.995,2.491c1.336,0.825,2.638,1.701,3.958,2.549
			c2.646,1.689,5.229,3.471,7.838,5.213l0.056,0.041l0.185,0.137l-0.073-0.053c3.33,2.155,6.621,4.38,9.835,6.722
			c1.604,1.173,3.189,2.375,4.755,3.605l2.329,1.887l1.13,0.962l0.564,0.481l0.282,0.24l0.142,0.12l0.07,0.061l0.018,0.015
			l0.004,0.004c-0.002-0.002,0.048,0.042,0.021,0.018l-0.024-0.022c-0.033-0.027-0.072-0.052-0.111-0.069l-0.409-0.101h0.013h0.32
			l0.23,0.192l0.134,0.112l0.167,0.172l-0.107-0.107c1.302,1.107,2.592,2.23,3.843,3.401c1.248,1.173,2.48,2.367,3.647,3.628
			c0.598,0.617,1.164,1.264,1.731,1.91c0.579,0.636,1.103,1.321,1.655,1.98c0.538,0.673,1.05,1.367,1.568,2.055
			c0.486,0.714,1.003,1.405,1.462,2.137s0.938,1.45,1.353,2.21c0.44,0.745,0.854,1.504,1.234,2.281
			c0.409,0.764,0.751,1.56,1.106,2.349c0.367,0.784,0.645,1.606,0.971,2.409c0.293,0.817,0.563,1.659,0.829,2.484l0.338,1.227
			l0.168,0.613l0.042,0.152l0.057,0.229l0.068,0.311l0.521,2.499l0.387,2.564l0.007,0.045l0.001,0.068v0.025l-0.008-0.112
			c0.097,1.242,0.272,2.518,0.299,3.733l0.056,1.829l0.015,0.457c0.006,0.209-0.002,0.325-0.002,0.491l-0.013,0.929
			c-0.048,2.478-0.241,4.956-0.604,7.413c-0.184,1.229-0.41,2.451-0.676,3.666c-0.278,1.212-0.581,2.419-0.944,3.608
			c-0.717,2.383-1.608,4.713-2.659,6.966c-2.119,4.5-4.852,8.685-7.946,12.531c-3.091,3.857-6.504,7.419-10.036,10.824l-0.41-1.68
			l-0.029-0.009c4.99,1.379,10.207,1.283,15.413,0.914c5.214-0.4,10.427-1.203,15.714-1.828c2.645-0.309,5.309-0.587,8.021-0.683
			c0.696-0.023,1.373-0.035,2.024-0.035l2.014,0.033l3.995,0.075c5.321,0.213,10.641,0.51,15.935,1.032
			c5.298,0.502,10.573,1.121,15.84,1.857c2.642,0.352,5.253,0.744,7.867,1.149c2.649,0.419,5.32,0.907,7.929,1.537
			c10.481,2.458,20.419,6.31,30.444,9.374c5.013,1.525,10.054,2.883,15.15,3.711c5.092,0.843,10.231,1.196,15.317,0.789
			c2.532-0.22,5.083-0.627,7.495-1.188l1.912-0.512c0.294-0.084,0.693-0.178,0.901-0.254l0.923-0.293
			c1.236-0.372,2.448-0.817,3.663-1.252c2.407-0.93,4.805-1.897,7.128-3.037c2.319-1.143,4.598-2.377,6.807-3.735
			c4.418-2.718,8.578-5.868,12.491-9.318c3.902-3.465,7.557-7.225,10.995-11.187c3.442-3.96,6.611-8.162,9.664-12.448
			C833.251,281.771,836.139,277.373,838.957,272.898z"/>
	</g>
	
		<path fill-rule="evenodd" clip-rule="evenodd" fill="#FF0054" stroke="#000000" stroke-width="0.5546" stroke-linecap="round" stroke-linejoin="round" d="
		M855.448,239.91c-0.062,0.198-0.123,0.407-0.186,0.605c-0.222,0.099-0.457,0.184-0.679,0.271v0.013
		c-3.244,1.282-6.514,2.394-9.672,3.293c0.013-0.023,0.024-0.049,0.038-0.073c0.036-0.087,0.062-0.174,0.099-0.259
		c0.69-0.223,1.406-0.457,2.084-0.666c0.037-0.013,0.075-0.038,0.111-0.05c2.529-0.852,5.033-1.801,7.488-2.837
		C854.967,240.12,855.213,240.01,855.448,239.91z"/>
	
		<path fill-rule="evenodd" clip-rule="evenodd" fill="#FF0054" stroke="#000000" stroke-width="0.5546" stroke-linecap="round" stroke-linejoin="round" d="
		M854.387,202.704c-0.05,0.062-0.111,0.136-0.16,0.209c0.025-0.122,0.062-0.259,0.099-0.382
		C854.351,202.581,854.362,202.643,854.387,202.704z"/>
	<path fill="none" stroke="#000000" stroke-width="0.5546" stroke-linecap="round" stroke-linejoin="round" d="M594.257,140.409
		c1.417,3.708,1.751,8.004,1.337,11.933"/>
	<g>
		<path fill-rule="evenodd" clip-rule="evenodd" fill="#C19B6F" d="M816.283,244.854c-10.325,4.302-42.058,1.249-30.486,2.372
			s-32.149-3.171-47.384-6.649c-5.479-1.245-10.894-2.677-16.259-4.317c-15.409-4.713-30.36-11.14-45.065-19.813
			c-5.28-3.108-10.412-6.451-15.383-10.004c-7.575-5.417-14.78-11.288-21.626-17.53c-9.13-8.327-20.948-22.81-33.556-25.907
			c-2.368-0.543-6.229,11.633-9.474,9.512c-4.454-3.221-0.814-12.905-1.345-21.516c0-0.012,0-0.012,0-0.024v-0.025
			c-0.321-5.07-2.098-9.733-7.809-12.533c-6.811-3.319-39.712-6.551-33.556-14.965c-9.066,0.074-4.207-5.464-4.576-9.967
			c-0.519-6.39-7.513-6.872,3.503-9.4c10.967-2.517,24.068,1.432,35.022,6.058c5.256,2.22,9.229,6.057,12.484,10.633
			c0.014,0,0.014,0,0.014,0.013c5.637,5.156,11.263,10.301,16.899,15.457c5.219,4.787,12.042,14.088,18.764,16.679
			c17.963,6.92,76.618,30.655,81.347,32.506s11.72,5.346,14.804,6.169c3.084,0.822,8.018,2.261,10.896,2.467
			c2.88,0.206,6.93,0.309,9.188,0.48c3.256,0.26,6.611,0.284,9.954,0.174c3.258-0.099,6.477-0.334,9.549-0.593
			c1.702-0.135,3.343-0.283,4.923-0.432c4.935-0.456,13.2-2.109,22.563-3.651c2.837,0.309,5.723,0.506,8.623,0.604
			c7.55,0.309,15.211,0.074,22.427-0.26c4.774-0.21,19.072-2.902,30.175,2.649c0.025,0-0.835,5.95-0.822,5.962
			c-3.906,8.225-11.296,16.05-11.308,16.037C849.374,215.015,826.152,240.742,816.283,244.854z"/>
		<path d="M816.379,245.087c-1.64,0.682-3.37,1.068-5.094,1.387c-1.722,0.345-3.46,0.592-5.201,0.79
			c-3.485,0.39-6.986,0.586-10.487,0.695c-3.5,0.098-7.005,0.121-10.501,0.035l-1.304-0.034l-0.315-0.006h-0.115
			c0.043,1.706,0.418-2.408,0.142-1.964l0.038,0.004l0.622,0.059l2.602,0.227l0.649,0.059l0.316,0.028
			c-0.104,0.916,0.341-2.042-0.258,2.051c0.18,0.036,0.027,0.008,0.042,0.013l-0.155-0.018l-1.297-0.138l-2.603-0.276
			c-6.941-0.735-13.873-1.567-20.802-2.452c-6.928-0.904-13.848-1.84-20.755-3.11l-2.591-0.514L738,241.631l-1.271-0.311
			l-5.081-1.244c-1.695-0.386-3.384-0.902-5.074-1.375l-5.08-1.454c-6.647-2.032-13.313-4.451-19.764-7.148
			c-6.466-2.716-12.819-5.714-18.975-9.082c-6.15-3.369-12.162-6.984-17.969-10.94c-1.44-1.013-2.875-1.982-4.319-3.031
			l-4.212-3.104c-1.409-1.021-2.772-2.152-4.161-3.225c-1.391-1.077-2.765-2.171-4.098-3.308c-1.34-1.13-2.704-2.231-4.025-3.384
			l-3.938-3.483c-2.636-2.324-5.121-4.843-7.591-7.286c-4.939-4.903-9.881-9.797-15.466-13.728
			c-2.788-1.949-5.749-3.644-8.892-4.706c-0.393-0.128-0.784-0.266-1.183-0.364l-0.596-0.163l-0.075-0.02
			c0.224,0.04,0.016,0.004,0.045,0.01c-0.121-0.02,0.069,0.022,0.138,0.003c0.068,0,0.11-0.027,0.105-0.02
			c-0.022-0.007-0.314,0.233-0.527,0.5c-0.232,0.272-0.467,0.598-0.695,0.934c-0.919,1.368-1.766,2.911-2.746,4.421
			c-0.496,0.759-1.016,1.519-1.681,2.265c-0.338,0.371-0.711,0.743-1.21,1.085c-0.488,0.326-1.203,0.682-2.098,0.594
			c-0.434-0.043-0.845-0.204-1.164-0.404c0.054,0.046-0.219-0.149-0.208-0.146l-0.063-0.052L596,173.363
			c-0.09-0.076-0.153-0.115-0.28-0.243c-0.483-0.455-0.791-0.877-1.078-1.358c-0.556-0.955-0.817-1.964-0.977-2.926
			c-0.29-1.936-0.175-3.754-0.041-5.531c0.146-1.776,0.355-3.509,0.523-5.228c0.329-3.413,0.54-6.855-0.141-10.015
			c-0.332-1.582-0.925-3.066-1.783-4.367c-0.878-1.287-2.009-2.399-3.359-3.252c-0.336-0.216-0.674-0.429-1.036-0.609l-0.51-0.272
			c-0.208-0.099-0.391-0.178-0.546-0.24c-0.725-0.291-1.538-0.546-2.35-0.78c-1.635-0.466-3.319-0.868-5.009-1.262
			c-3.384-0.784-6.802-1.525-10.21-2.373c-3.407-0.859-6.818-1.769-10.167-3.123c-1.666-0.709-3.346-1.457-4.885-2.798
			c-0.741-0.668-1.528-1.595-1.748-2.895c-0.106-0.636-0.031-1.3,0.157-1.873c0.197-0.569,0.482-1.05,0.79-1.486l0.001-0.002
			l0.999,1.949c-0.894-0.005-1.8-0.042-2.747-0.21c-0.928-0.176-1.986-0.447-2.919-1.332c-0.456-0.438-0.79-1.049-0.936-1.633
			c-0.153-0.588-0.156-1.134-0.126-1.634c0.072-1.001,0.295-1.858,0.485-2.686c0.194-0.821,0.383-1.607,0.47-2.354
			c0.046-0.374,0.068-0.737,0.051-1.08l-0.005-0.129l-0.001-0.032c0.007,0.064-0.001-0.005,0-0.001l-0.009-0.079l-0.034-0.315
			c-0.02-0.232-0.061-0.35-0.085-0.531c-0.136-0.708-0.402-1.406-0.741-2.082c-0.35-0.691-0.79-1.312-1.274-2.153
			c-0.119-0.215-0.242-0.46-0.347-0.763c-0.102-0.309-0.182-0.722-0.1-1.188c0.1-0.466,0.357-0.856,0.607-1.099
			c0.251-0.251,0.497-0.416,0.729-0.554c0.929-0.519,1.765-0.755,2.613-1.013c0.844-0.243,1.68-0.449,2.514-0.64
			c0.912-0.218,1.685-0.326,2.534-0.494c0.865-0.111,1.765-0.228,2.634-0.294c0.869-0.03,1.738-0.128,2.605-0.099
			c0.867,0.003,1.735-0.001,2.598,0.068c0.865,0.037,1.726,0.111,2.581,0.215c1.718,0.176,3.414,0.469,5.099,0.802
			c1.684,0.34,3.347,0.756,4.999,1.204c1.645,0.471,3.279,0.973,4.894,1.526c1.614,0.556,3.217,1.14,4.801,1.768
			c0.793,0.311,1.584,0.626,2.367,0.958l1.195,0.502c0.39,0.182,0.761,0.329,1.168,0.543c1.596,0.795,3.076,1.716,4.461,2.795
			c2.773,2.142,5.095,4.776,7.087,7.584l-0.74-0.384c0.204-0.005,0.462,0.091,0.612,0.231c0.174,0.138,0.321,0.454,0.311,0.689
			l-0.297-0.668l10.101,9.287l5.05,4.644c1.681,1.516,3.402,3.149,4.949,4.836c3.143,3.345,6.14,6.789,9.564,9.693
			c1.709,1.438,3.539,2.749,5.534,3.56l6.377,2.52l51.063,20.118l12.738,5.098c4.263,1.675,8.459,3.438,12.798,4.986
			c4.24,1.846,8.267,4.119,12.442,5.65l0.77,0.263l0.827,0.229l1.654,0.454c1.1,0.301,2.198,0.595,3.297,0.867
			c1.099,0.264,2.201,0.529,3.295,0.709c0.551,0.111,1.086,0.158,1.626,0.225l1.697,0.104l6.86,0.403l3.41,0.226
			c1.127,0.041,2.251,0.099,3.39,0.098c4.534,0.056,9.116-0.235,13.65-0.545c2.288-0.187,4.551-0.319,6.82-0.589
			c2.245-0.276,4.509-0.627,6.763-0.986l13.547-2.191h0.002c0.022-0.004,0.045-0.005,0.066-0.003l0.009,0.001l3.837,0.341
			c1.28,0.099,2.564,0.141,3.847,0.215c1.276,0.081,2.571,0.075,3.855,0.118c1.286,0.022,2.575,0.084,3.859,0.061l3.854-0.018
			c1.285-0.005,2.571-0.059,3.857-0.086c2.571-0.05,5.142-0.182,7.713-0.28c1.276-0.056,2.55-0.202,3.834-0.321
			c1.282-0.124,2.568-0.239,3.855-0.327c2.576-0.179,5.164-0.25,7.75-0.144c5.153,0.21,10.377,1.143,15.057,3.463l-0.122-0.029
			c0.052-0.009,0.221,0.061,0.259,0.194c0.031,0.142,0.008,0.13,0.015,0.13l-0.003,0.027l-0.006,0.052l-0.012,0.096l-0.024,0.188
			l-0.05,0.374l-0.104,0.746l-0.21,1.49l-0.21,1.489l-0.104,0.745l-0.052,0.372l-0.025,0.185l-0.013,0.092l-0.005,0.044
			l-0.003,0.021c0.008,0.06,0.001-0.18-0.088-0.21l0.061,0.322c-1.426,2.983-3.197,5.778-5.114,8.454
			c-0.96,1.337-1.965,2.643-3.002,3.92c-0.519,0.639-1.047,1.27-1.585,1.894l-0.814,0.929l-0.415,0.458l-0.21,0.229l-0.106,0.113
			l-0.056,0.059l-0.027,0.028l-0.007,0.008c-0.02,0.02-0.058,0.053-0.109,0.072c-0.115,0.052-0.257-0.004-0.296-0.041l-0.019-0.016
			c-0.112-0.091-0.131-0.255-0.04-0.368c0.052-0.064,0.128-0.098,0.204-0.098h0.028c0.042,0.001,0.154,0.013,0.237,0.119
			c0.077,0.103,0.06,0.21,0.057,0.226l-0.017,0.053c-0.011,0.031-0.031,0.078-0.041,0.093l-0.057,0.091l-0.108,0.154l-0.219,0.28
			l-0.444,0.541l-0.909,1.054l-1.853,2.067c-1.246,1.367-2.51,2.718-3.786,4.056c-2.553,2.676-5.155,5.305-7.818,7.872
			c-2.665,2.565-5.386,5.076-8.227,7.453c-1.421,1.188-2.874,2.34-4.384,3.421C819.677,243.314,818.113,244.342,816.379,245.087z
			 M816.188,244.62c1.665-0.718,3.211-1.731,4.706-2.794c1.493-1.072,2.937-2.219,4.35-3.401c2.823-2.369,5.535-4.876,8.19-7.438
			c2.654-2.564,5.249-5.191,7.794-7.865c1.272-1.337,2.532-2.687,3.773-4.051l1.844-2.063l0.899-1.046l0.436-0.529l0.206-0.267
			l0.092-0.129l0.035-0.056c0.006-0.01-0.007,0.009-0.005,0.015v0.013c-0.002,0.009-0.026,0.11,0.048,0.207
			c0.079,0.101,0.188,0.106,0.226,0.101l0.192-0.466l-0.015-0.019c-0.03-0.047-0.162-0.11-0.268-0.068
			c-0.048,0.016-0.081,0.044-0.096,0.06l0.006-0.007l0.025-0.026l0.051-0.054l0.104-0.11l0.206-0.225l0.41-0.454l0.809-0.921
			c0.534-0.619,1.059-1.246,1.574-1.881c1.031-1.27,2.029-2.566,2.982-3.895c1.902-2.655,3.658-5.427,5.063-8.368l0.062,0.322
			c-0.088-0.046-0.094-0.301-0.084-0.257l0.003-0.025l0.006-0.05l0.013-0.095l0.025-0.188l0.052-0.373l0.104-0.745l0.211-1.49
			l0.209-1.489l0.104-0.744l0.05-0.372l0.024-0.185l0.011-0.091l0.005-0.042l0.002-0.019c0.008-0.009-0.015-0.028,0.017,0.105
			c0.037,0.126,0.207,0.188,0.259,0.171l-0.122-0.029c-4.581-2.272-9.729-3.197-14.832-3.404c-2.56-0.105-5.127-0.035-7.688,0.142
			c-1.28,0.088-2.56,0.203-3.84,0.326c-1.279,0.119-2.565,0.268-3.862,0.323c-2.574,0.1-5.146,0.231-7.724,0.281
			c-1.289,0.026-2.575,0.081-3.865,0.086l-3.87,0.018c-1.291,0.022-2.575-0.038-3.863-0.062c-1.288-0.042-2.57-0.036-3.864-0.118
			c-1.288-0.073-2.578-0.116-3.865-0.216l-3.856-0.343l0.075-0.002h-0.002l-13.496,2.471c-2.254,0.406-4.503,0.803-6.792,1.133
			c-2.268,0.317-4.57,0.501-6.835,0.732c-4.582,0.411-9.135,0.785-13.75,0.813c-1.148,0.022-2.311-0.015-3.469-0.038l-3.438-0.167
			l-6.842-0.313l-1.728-0.084c-0.597-0.065-1.201-0.118-1.773-0.229c-1.164-0.185-2.289-0.447-3.416-0.709
			c-1.122-0.27-2.235-0.559-3.344-0.853c-1.12-0.313-2.174-0.551-3.348-0.925c-2.268-0.722-4.341-1.674-6.484-2.508
			c-2.134-0.857-4.223-1.734-6.331-2.553c-4.137-1.892-8.437-3.519-12.658-5.261l-12.725-5.137l-25.433-10.312l-25.467-10.225
			l-6.37-2.556c-2.257-0.909-4.193-2.302-5.985-3.789c-3.576-3.003-6.618-6.474-9.753-9.772c-1.557-1.676-3.165-3.184-4.887-4.724
			l-5.074-4.617l-10.149-9.234l-0.297-0.668c-0.013,0.228,0.135,0.536,0.306,0.667c0.144,0.139,0.394,0.234,0.59,0.229l-0.74-0.384
			c-1.93-2.691-4.146-5.169-6.743-7.152c-1.286-0.995-2.699-1.857-4.131-2.562c-0.341-0.181-0.757-0.347-1.134-0.521l-1.146-0.473
			c-0.774-0.323-1.556-0.629-2.338-0.932c-1.563-0.61-3.14-1.175-4.726-1.712c-1.586-0.534-3.188-1.016-4.795-1.467
			c-1.613-0.428-3.233-0.825-4.865-1.146c-1.633-0.313-3.273-0.588-4.921-0.749c-0.823-0.095-1.646-0.163-2.472-0.192
			c-0.824-0.062-1.647-0.053-2.471-0.052c-0.824-0.024-1.64,0.075-2.46,0.107c-0.813,0.072-1.592,0.183-2.401,0.291
			c-0.807,0.169-1.708,0.313-2.438,0.503c-0.812,0.195-1.615,0.403-2.393,0.637c-0.765,0.232-1.56,0.501-2.103,0.821
			c-0.13,0.077-0.232,0.157-0.278,0.206c-0.055,0.053-0.014,0.039-0.015-0.016c0.004-0.116,0.019,0.135,0.219,0.445
			c0.362,0.621,0.905,1.383,1.33,2.196c0.429,0.827,0.785,1.72,0.979,2.671c0.042,0.236,0.106,0.53,0.122,0.72l0.038,0.315
			l0.01,0.079l0.011,0.125l0.01,0.188c0.03,0.501,0.003,0.985-0.048,1.45c-0.101,0.934-0.303,1.797-0.486,2.623
			c-0.185,0.819-0.364,1.613-0.401,2.301c-0.04,0.715,0.085,1.156,0.38,1.42c0.301,0.3,0.941,0.542,1.662,0.653
			c0.72,0.12,1.509,0.15,2.305,0.145c0.676-0.005,1.228,0.54,1.232,1.216c0.002,0.246-0.068,0.475-0.191,0.667l-0.042,0.066
			l-0.001,0.001c-0.403,0.565-0.589,1.089-0.5,1.52c0.063,0.442,0.423,0.975,0.969,1.453c1.096,0.967,2.641,1.703,4.177,2.338
			c3.125,1.256,6.476,2.149,9.83,2.983c3.363,0.827,6.766,1.555,10.179,2.336c1.708,0.394,3.418,0.796,5.139,1.281
			c0.864,0.248,1.72,0.509,2.615,0.864c0.249,0.101,0.467,0.196,0.652,0.284l0.646,0.338c0.419,0.209,0.82,0.458,1.22,0.713
			c1.602,1.006,3.021,2.374,4.107,3.969c1.071,1.607,1.785,3.421,2.175,5.249c0.791,3.689,0.534,7.315,0.216,10.821
			c-0.166,1.753-0.371,3.484-0.505,5.185c-0.129,1.694-0.207,3.388,0.03,4.908c0.121,0.752,0.319,1.459,0.646,2.015
			c0.152,0.271,0.38,0.547,0.527,0.695c0.018,0.036,0.135,0.122,0.211,0.187l0.127,0.104l0.063,0.051
			c0.051,0.041-0.176-0.126-0.073-0.054c0.049,0.03,0.057,0.027,0.058,0.028c-0.016,0.007,0.123-0.003,0.352-0.157
			c0.223-0.15,0.479-0.389,0.728-0.663c0.499-0.555,0.975-1.233,1.433-1.934c0.924-1.411,1.758-2.931,2.785-4.458
			c0.264-0.383,0.537-0.768,0.871-1.159c0.354-0.385,0.673-0.805,1.447-1.185c0.19-0.09,0.447-0.167,0.731-0.197
			c0.177-0.018,0.478,0.011,0.464,0.015c0.082,0.016-0.07-0.019,0.205,0.039l0.083,0.022l0.665,0.183
			c0.447,0.113,0.88,0.265,1.315,0.408c3.474,1.185,6.619,3.013,9.536,5.059c5.83,4.128,10.831,9.125,15.771,14.045
			c2.482,2.468,4.894,4.925,7.485,7.221l3.892,3.457c1.305,1.144,2.651,2.237,3.976,3.358c1.319,1.13,2.671,2.211,4.035,3.272
			c1.37,1.063,2.688,2.165,4.102,3.194l4.203,3.113c1.376,1.004,2.828,1.991,4.239,2.987c5.715,3.915,11.662,7.51,17.738,10.857
			c6.077,3.344,12.351,6.32,18.738,9.021c6.413,2.694,12.87,5.061,19.56,7.124l4.976,1.437c1.667,0.47,3.314,0.98,5.02,1.373
			l5.079,1.256l1.27,0.313l1.241,0.278l2.539,0.509c6.813,1.269,13.722,2.219,20.623,3.135c6.907,0.91,13.831,1.712,20.754,2.521
			l2.598,0.299l1.303,0.15l0.169,0.021c0.069,0.012-0.029-0.011,0.204,0.033c-0.641,4.095-0.259,1.129-0.415,2.041l-0.334-0.031
			l-0.653-0.066l-2.605-0.282l-0.678-0.083l-0.124-0.02c-0.368,0.436,0.034-3.707,0.157-1.993l0.21,0.004l0.34,0.016l1.31,0.071
			c3.473,0.2,6.942,0.397,10.418,0.475c3.474,0.084,6.952,0.082,10.419-0.113C809.461,246.209,812.98,245.887,816.188,244.62z"/>
	</g>
	
		<path fill-rule="evenodd" clip-rule="evenodd" fill="#FFA800" stroke="#000000" stroke-width="0.5546" stroke-linecap="round" stroke-linejoin="round" d="
		M844.369,189.813c-0.012-0.013-0.036-0.024-0.062-0.024c0.013,0,0.013,0,0.025,0C844.346,189.8,844.357,189.813,844.369,189.813z"
		/>
	<g>
		<path fill-rule="evenodd" clip-rule="evenodd" fill="#E0DA00" d="M1032.018,129.669c-7.229-10.351-15.63-21.811-25.968-29.274
			c-9.362-6.748-23.97-6.539-35.085-6.366c-14.198,0.223-28.114,0.765-42.215,2.431c-11.547,1.369-22.958,9.129-34.061,9.967
			c-14.385,1.098-28.176-2.159-42.709-2.011c-12.063,0.136-23.858,1.11-35.639,3.565c-14.064,2.936-27.276,4.318-41.438,1.678
			c-12.732-2.369-22.009-11.423-35.221-3.405c8.697,0.53,21.354,7.303,7.784,13.015c-3.282,1.382-7.958,1.518-12.806,1.468
			c-5.156-0.061-10.511-0.333-14.594,0.457c17.073,3.972,29.484,4.848,41.364,18.837c-16.359,1.801-29.953,4.996-43.042-6.686
			c2.985,30.668,66.974,20.935,87.526,32.444c-5.712,4.515-9.549,8.414-15.334,10.029c-1.357,0.37-2.813,0.629-4.429,0.728h-0.013
			c-0.69,0.05-1.418,0.074-2.183,0.063c-8.488-0.124-16.014-3.258-23.76-6.366c2.232,3.787,5.069,6.896,8.363,9.424
			c6.329,4.873,14.359,7.649,23.106,9.142c2.048,0.358,4.146,0.642,6.267,0.864c2.837,0.309,5.724,0.506,8.623,0.604
			c7.551,0.309,15.211,0.073,22.428-0.26c4.774-0.21,9.363-0.456,13.582-0.604c0.012,0-4.301-0.13,0.025,0
			c4.326,0.131,14.605,0.132,17.689,3.627c3.084,3.494-4.111,13.158-10.279,19.942c-6.168,6.785-17.271,23.234-57.364,35.571
			c5.962,1.027,37.121,1.065,50.669-5.169c0.69-0.223,1.406-0.456,2.085-0.666c0.037-0.012,0.074-0.037,0.11-0.049
			c2.862-1.333,5.466-2.985,7.896-4.874c0.346-0.259,0.678-0.518,1.012-0.789v-0.013c9.153-7.426,12.271-8.146,20.993-15.954
			c4.49-4.021,9.252-5.964,20.149-5.552c10.896,0.412,31.756-23.888,34.43-26.355c2.673-2.467,36.346-28.847,80.901-2.829
			c1.802,1.05,3.318,2.024,4.639,2.863c5.674,3.626,10.806,2.849,15.655,0.529c4.859-2.318,9.634-9.572,11.484-16.357
			C1046.365,158.685,1038.21,141.389,1032.018,129.669z"/>
		<g>
			<path fill="#565200" d="M1031.351,130.078c-3.706-5.281-7.479-10.501-11.62-15.405c-4.149-4.905-8.667-9.523-13.815-13.296
				c-2.516-1.891-5.388-3.197-8.414-4.13c-3.022-0.931-6.171-1.488-9.346-1.833c-6.361-0.686-12.818-0.523-19.285-0.395
				c-12.929,0.263-25.848,0.826-38.664,2.324c-6.366,0.577-12.278,2.959-18.321,5.327c-3.017,1.181-6.063,2.365-9.229,3.301
				c-0.792,0.233-1.584,0.465-2.396,0.646c-0.803,0.209-1.618,0.376-2.443,0.514c-1.627,0.311-3.366,0.439-4.95,0.524
				c-13.181,0.705-26.033-1.94-38.834-2.026c-6.418,0.01-12.872,0.296-19.268,0.893c-6.411,0.588-12.746,1.567-19.056,2.904
				c-6.368,1.319-12.841,2.365-19.388,2.776c-6.543,0.422-13.159,0.188-19.661-0.85c-3.265-0.458-6.555-1.356-9.634-2.457
				c-3.1-1.082-6.086-2.317-9.092-3.221c-2.998-0.9-6.043-1.453-9.025-1.149c-2.981,0.277-5.846,1.384-8.469,2.978l-0.668-2.703
				h0.002c2.358,0.199,4.613,0.744,6.79,1.537c1.088,0.401,2.153,0.873,3.185,1.443c1.029,0.574,2.031,1.242,2.936,2.122
				c0.871,0.868,1.77,2.044,1.856,3.618c0.039,0.768-0.168,1.53-0.499,2.154c-0.336,0.623-0.769,1.133-1.226,1.568
				c-0.924,0.863-1.944,1.473-2.975,2c-1.035,0.518-2.071,0.967-3.207,1.309c-2.265,0.66-4.52,0.822-6.753,0.901
				c-2.233,0.064-4.446,0-6.648-0.084c-2.203-0.081-4.397-0.178-6.584-0.196c-1.095-0.011-2.184,0.016-3.272,0.059l-1.625,0.124
				l-1.609,0.216h-0.002l0.015-0.745c3.785,0.812,7.593,1.52,11.399,2.309c3.803,0.792,7.614,1.675,11.335,2.956
				c1.859,0.64,3.689,1.389,5.467,2.26c0.888,0.437,1.766,0.898,2.621,1.4c0.858,0.496,1.702,1.022,2.519,1.586
				c0.824,0.554,1.626,1.144,2.401,1.763c0.784,0.61,1.54,1.255,2.274,1.922c1.473,1.331,2.859,2.752,4.171,4.236l0.001,0.001
				l1.493,1.73l-2.273,0.233c-3.733,0.383-7.476,0.864-11.257,1.223c-3.778,0.355-7.61,0.588-11.465,0.346
				c-0.963-0.061-1.925-0.158-2.885-0.279c-0.96-0.134-1.916-0.296-2.865-0.5c-1.898-0.412-3.766-0.989-5.561-1.739
				c-1.796-0.749-3.518-1.668-5.141-2.728c-0.815-0.525-1.599-1.096-2.363-1.686c-0.766-0.591-1.495-1.221-2.219-1.858L717.807,134
				l1.457-0.739c0.211,1.966,0.71,3.887,1.516,5.666c0.796,1.785,1.91,3.416,3.266,4.836c2.696,2.868,6.226,4.907,9.927,6.452
				c3.717,1.548,7.645,2.633,11.62,3.503c3.98,0.862,8.022,1.497,12.083,2.039c8.126,1.074,16.329,1.735,24.552,2.689
				c4.11,0.485,8.23,1.037,12.344,1.865c4.102,0.853,8.246,1.896,12.174,3.997l0.003,0.001l2.271,1.221l-2.048,1.594
				c-1.488,1.159-2.957,2.367-4.464,3.576c-1.506,1.208-3.056,2.42-4.746,3.514c-0.839,0.551-1.723,1.061-2.637,1.523
				c-0.913,0.465-1.87,0.858-2.845,1.199c-0.505,0.163-0.954,0.308-1.516,0.452c-0.462,0.111-0.919,0.226-1.462,0.319
				c-0.525,0.11-1.03,0.169-1.538,0.237c-0.254,0.039-0.509,0.053-0.764,0.075l-0.857,0.063l0.11-0.004
				c-0.595,0.026-1.188,0.061-1.785,0.051h-0.446l-0.458-0.016l-0.84-0.037c-0.547-0.014-1.175-0.089-1.757-0.133
				c-0.593-0.052-1.16-0.141-1.741-0.21c-1.151-0.168-2.293-0.38-3.422-0.63c-1.127-0.26-2.246-0.544-3.348-0.869
				c-4.416-1.293-8.607-3.046-12.754-4.742l-0.002-0.001l1.658-1.93c1.809,3.056,4.115,5.803,6.828,8.103
				c0.701,0.574,1.354,1.1,2.121,1.649c0.74,0.527,1.439,1.001,2.216,1.473c1.523,0.936,3.115,1.767,4.755,2.504
				c3.279,1.479,6.752,2.559,10.287,3.386c1.767,0.412,3.559,0.762,5.355,1.036c1.833,0.311,3.643,0.524,5.415,0.725
				c1.836,0.148,3.7,0.38,5.506,0.442l2.727,0.145l2.761,0.072l2.773,0.071l2.75-0.003c1.831,0.002,3.666-0.01,5.511-0.069
				c1.841-0.04,3.684-0.079,5.527-0.157l5.545-0.215l5.543-0.239c1.848-0.083,3.696-0.136,5.538-0.366
				c-2.407,3.703,1.454,2.33-0.014,2.593l-0.028-0.001l-0.056-0.002l-0.111-0.005l-0.223-0.009l-0.447-0.017l-0.893-0.031
				l-0.114-0.004c0.147-5.138,0.061-1.423,0.1-2.569h0.028l0.056,0.002l0.224,0.008l0.447,0.016l0.893,0.03l3.583,0.106
				c2.409,0.088,4.835,0.233,7.277,0.608c1.222,0.188,2.448,0.43,3.678,0.81c1.224,0.379,2.475,0.877,3.642,1.789
				c0.143,0.124,0.29,0.232,0.426,0.373l0.204,0.206l0.101,0.104l0.143,0.173l0.141,0.174l0.07,0.088l0.102,0.162
				c0.128,0.215,0.283,0.474,0.342,0.66c0.334,0.813,0.398,1.632,0.367,2.371c-0.091,1.479-0.518,2.743-0.979,3.951
				c-0.97,2.389-2.237,4.522-3.592,6.574c-1.368,2.042-2.852,3.979-4.417,5.84c-1.589,1.871-3.171,3.585-4.714,5.391
				c-1.583,1.814-3.228,3.624-4.973,5.33c-0.873,0.854-1.788,1.665-2.681,2.497l-2.79,2.37l-2.9,2.225
				c-0.982,0.719-1.994,1.395-2.988,2.092c-0.984,0.716-2.042,1.313-3.062,1.97c-1.022,0.652-2.054,1.287-3.119,1.862l-3.166,1.771
				l-3.226,1.646l-1.61,0.826l-1.642,0.756l-3.282,1.512c-2.21,0.952-4.45,1.831-6.684,2.719c-2.269,0.792-4.545,1.561-6.824,2.304
				c-2.309,0.656-4.648,1.225-7.072,1.466l0,0l-0.039-0.604c2.091,0.191,4.235,0.155,6.36,0.164c2.129-0.012,4.26-0.081,6.389-0.133
				c2.129-0.062,4.256-0.179,6.382-0.292c2.126-0.111,4.25-0.26,6.369-0.448c4.235-0.382,8.46-0.884,12.628-1.63
				c2.083-0.376,4.15-0.817,6.177-1.374c1.013-0.279,2.016-0.584,3.001-0.923c0.986-0.341,1.946-0.729,2.887-1.148l0.061-0.027
				l0.052-0.017l1.104-0.356l0.553-0.179l0.276-0.089c0.102-0.031,0.173-0.055,0.262-0.099l-0.12,0.047l1.147-0.583
				c0.379-0.201,0.773-0.373,1.14-0.599c0.732-0.448,1.499-0.839,2.205-1.332c0.715-0.479,1.441-0.939,2.122-1.47
				c0.692-0.507,1.382-1.029,2.076-1.585l-0.406,0.832v-0.013l-0.006-0.497l0.396-0.322l3.257-2.652
				c1.116-0.845,2.214-1.725,3.348-2.542c2.256-1.671,4.537-3.235,6.719-4.896c1.09-0.827,2.161-1.677,3.195-2.57
				c1.059-0.862,2.065-1.796,3.08-2.716c1.007-0.887,2.032-1.929,3.255-2.852c1.187-0.918,2.509-1.707,3.898-2.333
				c1.39-0.629,2.843-1.099,4.297-1.423c1.453-0.337,2.919-0.56,4.368-0.65c1.453-0.124,2.891-0.149,4.324-0.16l2.141,0.03h0.449
				l0.322-0.024c0.263-0.029,0.537-0.067,0.814-0.123c2.248-0.466,4.613-1.726,6.828-3.135c2.229-1.435,4.375-3.085,6.461-4.824
				c4.168-3.492,8.102-7.338,11.928-11.298l5.763-6.064c0.142-0.138,0.273-0.276,0.473-0.446l0.42-0.352
				c0.32-0.262,0.623-0.495,0.911-0.709c0.59-0.438,1.177-0.864,1.782-1.259c1.219-0.776,2.442-1.524,3.722-2.17
				c2.536-1.329,5.18-2.408,7.838-3.386c2.669-0.951,5.331-1.874,8.041-2.645c5.397-1.6,10.947-2.695,16.586-3.179
				c5.634-0.471,11.364-0.314,16.967,0.688c5.604,0.981,11.058,2.732,16.228,5.04c1.296,0.573,2.588,1.149,3.829,1.829
				c1.249,0.662,2.516,1.29,3.717,2.033c1.211,0.729,2.437,1.404,3.632,2.177c1.172,0.733,2.345,1.496,3.513,2.29
				c0.506,0.333,1.182,0.784,1.701,1.055c0.531,0.303,1.123,0.576,1.715,0.815c1.188,0.471,2.438,0.764,3.713,0.851
				c2.559,0.195,5.17-0.492,7.614-1.594c2.365-1.056,4.307-2.965,6.004-5.066c1.687-2.118,3.044-4.509,4.131-7.003
				c0.526-1.244,0.997-2.56,1.352-3.819c0.35-1.366,0.561-2.66,0.72-4.026c0.276-2.712,0.231-5.46-0.09-8.181
				c-0.651-5.449-2.243-10.767-4.244-15.899C1036.462,139.863,1033.968,134.938,1031.351,130.078z M1032.707,129.305
				c2.563,4.943,4.961,9.995,6.977,15.211c1.997,5.215,3.591,10.637,4.228,16.234c0.629,5.58,0.3,11.383-1.973,16.672
				c-1.086,2.616-2.475,5.099-4.151,7.403c-0.846,1.147-1.787,2.235-2.84,3.231c-1.025,0.978-2.305,1.926-3.597,2.544
				c-2.561,1.253-5.442,2.161-8.46,2.111c-1.5-0.024-3.003-0.294-4.423-0.774c-0.708-0.244-1.396-0.517-2.091-0.866
				c-0.724-0.347-1.219-0.65-1.894-1.043c-4.718-2.919-9.606-5.294-14.654-7.37c-5.044-2.048-10.243-3.647-15.547-4.762
				c-2.651-0.566-5.333-0.976-8.033-1.302c-2.704-0.235-5.428-0.415-8.154-0.331c-5.459,0.046-10.917,0.957-16.15,2.563
				c-5.244,1.618-10.088,4.327-14.543,7.369c-1.109,0.77-2.227,1.519-3.283,2.333c-0.537,0.395-1.071,0.79-1.582,1.197
				c-0.264,0.207-0.505,0.405-0.718,0.588l-0.37,0.328l-0.281,0.271l-5.72,6.008c-3.895,4.021-7.917,7.952-12.268,11.591
				c-2.182,1.814-4.445,3.558-6.89,5.128c-2.464,1.537-5.055,3.016-8.265,3.704c-0.404,0.081-0.817,0.14-1.244,0.185l-0.718,0.041
				l-0.592-0.003l-2.023-0.068c-1.343-0.015-2.686-0.017-4.001,0.071c-2.631,0.184-5.218,0.465-7.556,1.379
				c-1.174,0.442-2.284,1.024-3.358,1.719c-1.052,0.674-2.073,1.52-3.175,2.438c-2.149,1.811-4.391,3.542-6.697,5.157
				c-2.299,1.624-4.654,3.121-6.917,4.678c-1.147,0.768-2.247,1.589-3.374,2.381l-3.293,2.494l0.391-0.819v0.013l-0.007,0.517
				l-0.399,0.315c-0.687,0.542-1.405,1.081-2.14,1.611c-0.715,0.549-1.481,1.03-2.235,1.527c-0.745,0.512-1.556,0.923-2.33,1.388
				c-0.388,0.234-0.805,0.414-1.206,0.624l-1.215,0.607l-0.12,0.047c-0.085,0.042-0.196,0.076-0.279,0.102l-0.273,0.087
				l-0.548,0.173l-1.095,0.346l0.112-0.044c-1.015,0.448-2.041,0.855-3.079,1.208c-1.038,0.352-2.084,0.663-3.135,0.947
				c-2.102,0.564-4.222,1.011-6.35,1.387c-4.255,0.758-8.538,1.242-12.828,1.545c-2.145,0.157-4.29,0.275-6.438,0.354
				c-2.146,0.079-4.296,0.089-6.443,0.081c-2.147,0-4.296-0.087-6.441-0.218c-1.073-0.059-2.146-0.146-3.218-0.265
				c-1.071-0.118-2.143-0.246-3.214-0.486l-1.261-0.281l1.222-0.323h0.001c2.105-1.245,4.295-2.164,6.516-2.995l6.588-2.654
				l6.492-2.838l3.186-1.538l1.592-0.769l1.556-0.836l3.099-1.691l3.005-1.841c1.012-0.598,1.984-1.251,2.946-1.921
				c0.958-0.673,1.958-1.289,2.875-2.015c0.929-0.71,1.875-1.396,2.788-2.121l2.69-2.233l2.59-2.339
				c0.825-0.82,1.672-1.615,2.479-2.454c1.613-1.677,3.201-3.374,4.734-5.167l2.355-2.718l2.361-2.642
				c1.539-1.756,3.045-3.539,4.453-5.372c1.405-1.828,2.738-3.721,3.726-5.685c0.48-0.974,0.863-1.989,0.976-2.894
				c0.096-0.91-0.046-1.492-0.707-1.991c-0.704-0.574-1.689-1.026-2.732-1.356c-1.044-0.34-2.159-0.58-3.289-0.771
				c-2.268-0.375-4.608-0.534-6.961-0.63l-3.564-0.103l-0.894-0.023l-0.446-0.011l-0.224-0.006l-0.056-0.002h-0.027
				c0.026-1.147-0.1,2.565,0.059-2.571l0.109,0.003l0.893,0.022l0.447,0.011l0.224,0.005l0.111,0.002l0.057,0.002h0.028
				c-1.452,0.263,2.435-1.109,0.036,2.595c-1.854-0.066-3.7,0.045-5.548,0.127l-5.542,0.254c-3.678,0.163-7.396,0.378-11.105,0.462
				c-1.853,0.065-3.717,0.085-5.585,0.088l-2.798,0.013l-2.773-0.062l-2.786-0.063l-2.814-0.141
				c-1.894-0.063-3.704-0.283-5.556-0.427c-1.903-0.206-3.769-0.425-5.585-0.727c-1.86-0.277-3.703-0.63-5.539-1.052
				c-3.668-0.846-7.3-1.957-10.773-3.509c-1.736-0.773-3.433-1.65-5.064-2.646c-0.807-0.484-1.643-1.046-2.408-1.591
				c-0.739-0.524-1.533-1.151-2.263-1.749c-2.942-2.475-5.467-5.457-7.436-8.763l-2.027-3.402l3.686,1.473l0.002,0
				c4.181,1.643,8.315,3.298,12.54,4.468c1.055,0.295,2.115,0.549,3.18,0.777c1.064,0.221,2.134,0.403,3.205,0.544
				c0.534,0.055,1.078,0.133,1.604,0.17c0.537,0.03,1.026,0.093,1.602,0.1l0.842,0.025c0.123,0.002,0.317,0.013,0.384,0.008
				l0.395-0.007c0.526,0.003,1.053-0.037,1.579-0.066l0.064-0.004h0.046h0.012c-0.186,0.006-0.049,0.001-0.089,0.002h0.006
				l0.021-0.002l0.042-0.004l0.083-0.009l0.166-0.016l0.333-0.031c0.222-0.022,0.445-0.036,0.664-0.075
				c0.439-0.065,0.886-0.124,1.296-0.217c0.401-0.07,0.872-0.192,1.339-0.313c0.363-0.1,0.826-0.252,1.229-0.389
				c0.827-0.305,1.64-0.649,2.427-1.065c0.788-0.414,1.561-0.872,2.313-1.383c3.018-2.028,5.842-4.64,8.88-7.053l0.224,2.814
				l-0.002-0.001c-3.325-1.861-7.243-2.964-11.174-3.838c-3.951-0.865-7.995-1.477-12.057-2.024
				c-8.129-1.082-16.346-1.881-24.539-3.102c-4.096-0.616-8.188-1.329-12.246-2.277c-4.053-0.958-8.083-2.14-11.949-3.825
				c-3.847-1.685-7.594-3.907-10.514-7.112c-1.463-1.585-2.676-3.422-3.525-5.416c-0.86-1.988-1.371-4.114-1.563-6.247l-0.196-2.178
				l1.653,1.439l0.002,0.001c0.701,0.599,1.406,1.191,2.143,1.743c0.734,0.551,1.485,1.082,2.263,1.566
				c1.548,0.98,3.179,1.821,4.873,2.5c3.39,1.365,7.026,2.05,10.705,2.219c3.683,0.18,7.401-0.094,11.122-0.497
				c3.722-0.406,7.455-0.939,11.22-1.38l-0.781,1.963l-0.001-0.001c-1.206-1.465-2.482-2.869-3.842-4.185
				c-0.677-0.661-1.376-1.3-2.101-1.906c-0.718-0.616-1.46-1.203-2.226-1.757c-0.759-0.564-1.544-1.094-2.347-1.595
				c-0.799-0.508-1.622-0.979-2.459-1.427c-1.674-0.895-3.413-1.679-5.197-2.364c-3.569-1.372-7.297-2.377-11.053-3.297
				c-3.758-0.917-7.548-1.76-11.313-2.707l-1.901-0.478l1.915-0.268l0.002,0l1.652-0.291l1.661-0.195
				c1.107-0.09,2.216-0.163,3.323-0.196c2.214-0.072,4.42-0.064,6.617-0.073c2.198-0.006,4.389-0.032,6.552-0.184
				c2.151-0.16,4.319-0.424,6.264-1.083c0.96-0.329,1.936-0.797,2.847-1.302c0.907-0.508,1.766-1.089,2.424-1.761
				c0.663-0.675,1.043-1.424,0.963-2.08c-0.049-0.666-0.556-1.403-1.254-2.029c-1.426-1.262-3.385-2.146-5.35-2.788
				c-1.982-0.634-4.066-1.041-6.101-1.126l-0.002,0l-4.579-0.343l3.911-2.36c2.904-1.753,6.229-3.04,9.716-3.347
				c3.487-0.337,6.938,0.332,10.113,1.301c3.192,0.978,6.19,2.238,9.198,3.3c3.014,1.086,5.992,1.916,9.144,2.375
				c6.283,1.03,12.683,1.288,19.06,0.905c6.382-0.372,12.73-1.366,19.041-2.645c6.364-1.32,12.85-2.294,19.336-2.859
				c6.499-0.576,12.995-0.837,19.523-0.819c6.552,0.086,13.032,0.787,19.463,1.403c6.425,0.616,12.853,1.108,19.215,0.796
				c6.348-0.135,12.339-2.432,18.367-4.757c3.016-1.167,6.052-2.358,9.188-3.343c3.122-0.997,6.434-1.732,9.682-2.033
				c12.918-1.452,25.905-1.959,38.861-2.167c6.469-0.098,12.997-0.24,19.521,0.491c3.256,0.369,6.51,0.956,9.674,1.945
				c3.147,0.98,6.252,2.409,8.911,4.428c5.29,3.914,9.868,8.645,14.051,13.632c4.183,4.997,7.97,10.289,11.666,15.606l0.03,0.044
				L1032.707,129.305z"/>
		</g>
	</g>
	<path fill-rule="evenodd" clip-rule="evenodd" fill="#595236" d="M879.611,151.097c0,0-19.328-9.458-37.01-6.168
		c-17.682,3.29-18.503,10.281-28.784,12.336c-10.281,2.056-20.561-5.757-20.561-5.757s7.813,12.336,28.784,13.57
		c20.972,1.233,21.383-2.056,25.906-4.523S852.882,151.097,879.611,151.097z"/>
	<path fill-rule="evenodd" clip-rule="evenodd" fill="#535432" d="M880.122,166.413c-6.203,2.422-12.144,6.118-19.314,8.443
		c-8.61,2.791-19.103,3.804-28.188,3.793c-5.557-0.007-22.464-1.721-23.685,5.593c6.593-0.657,13.376-0.578,20.098-0.249
		c6.978,0.341,14.028-0.627,20.972,0.321c7.28,0.995,13.65,5.775,20.55,6.99c8.313,1.462,12.726-3.384,19.228-6.599
		c1.375-0.68,3.374-0.752,4.725-1.433c1.791-0.902,2.495-2.216,4.155-3.308c1.324-0.87,3.239-0.952,4.707-1.841
		c1.559-0.944,2.338-2.295,3.702-3.268c3.904-2.781,13.825-5.793,18.543-5.555c0.14,0.15,0.136,0.165-0.007,0.044
		C915.281,160.699,892.463,161.596,880.122,166.413z"/>
	<path fill-rule="evenodd" clip-rule="evenodd" fill="#E7D200" d="M790.377,141.228c-11.514,2.057,2.276-2.126-19.422-17.923
		s21.891-0.17,57.569-9.458c0,0,30.841,4.112,69.495,0.411c0,0,42.354-15.626,53.457-11.103c0,0,35.363-4.112,41.943,0.822
		c0,0,25.495,6.169,41.533,53.869c0,0,2.467,18.916-7.402,21.383c0,0-38.654-22.205-55.103-13.159l-32.896,5.757
		c0,0-8.226-14.804-34.954-16.038c0,0-11.515-10.28-28.373-13.158C876.225,142.632,801.891,139.171,790.377,141.228z"/>
	<path fill-rule="evenodd" clip-rule="evenodd" fill="#D8BE00" d="M785.854,122.312c-2.055-6.168,21.384,2.467,41.926-1.199
		c2.687-0.908,6.043-2.026,9.761-3.399c3.578,0.092,30.755-0.773,59.14,0.462c2.197,0.096,7.105-1.374,14.861-3.325
		c2.029-0.626,7.387-1.824,9.638-2.431c1.351-0.364,4.361-1.808,5.716-2.127c7.314-1.864,16.595-1,22.359-1.997
		c1.768-0.306,7.479-0.69,13.411-0.943c0.866-0.037,1.478,0.005,1.959-0.008c0.22-0.012,0.725,0.091,0.946,0.08
		c0.225-0.012,0.753-0.059,0.979-0.069c3.534-0.165,9.853-0.502,15.113-0.268c3.943,0.176,6.233,0.687,7.483,1.225
		c0.157,0.067,0.482,0.271,0.617,0.345c0.146,0.081,0.521,0.224,0.641,0.314c0.025,0.008,20.119,5.522,34.372,44.207
		c0.143,0.385,0.624,3.299,0.542,6.648c-0.18,4.554-1.413,9.916-5.337,11.292c-1.538-0.814-17.557-9.771-31.785-12.129
		c-3.095-0.512-6.05-0.646-8.734-0.385c-2.72-0.064-7.792,1.158-9.781,2.251l-14.445,3.048c-0.709-0.805-12.494,0.317-14.756-0.124
		c-0.518-0.102-2.085-1.9-5.22-4.016c-4.153-3.495-14.592-7.626-27.751-9.103c-0.274-0.031-10.593-8.628-26.323-10.561
		c-0.847-0.104-4.626-0.54-10.185-1.142c-13.927-1.51-50.605-1.843-71.165-0.198C792.449,135.96,787.91,128.48,785.854,122.312z"/>
	<path fill-rule="evenodd" clip-rule="evenodd" fill="#FFC600" d="M805.835,126.207c4.132-0.04,15.385-0.193,32.44-3.055
		c1.689-0.415,4.609-2.034,8.283-1.57c7.102,0.897,30.799-0.104,48.783,0.513c4.398,0.15,7.804-0.385,14.833-1.663
		c1.015-0.313,8.422-1.735,9.549-2.039c0.675-0.182,4.646-2.548,5.323-2.708c5.214-1.505,14.801-1.508,21.986-2.249
		c3.567-0.368,8.891-0.598,13.168-0.705c1.074-0.027,1.631,0.09,1.914,0.102c0.109-0.006,0.787,0.218,0.897,0.212
		c0.112-0.006,0.831-0.082,0.944-0.087c1.806-0.088,8.864-0.709,14.808-0.586c4.738,0.083,6.646,0.659,7.371,0.978
		c0.079,0.033,0.509,0.336,0.576,0.373c0.073,0.041,0.618,0.199,0.679,0.244c0.052,0.015,15.9,4.465,27.211,34.544
		c0.289,0.769,0.755,2.822,0.928,5.124c0.057,3.661-0.727,7.986-3.115,9.375c-3.078-1.627-17.123-9.099-28.893-10.218
		c-2.873-0.273-5.511-0.088-7.82,0.506c-1.361-0.032-7.793,1.798-8.787,2.345l-12.893,3.298c-1.418-1.61-8.091-2.325-12.613-3.207
		c-1.038-0.203-2.738-1.222-5.394-2.357c-3.263-2.669-14.778-6.419-25.594-7.842c-0.549-0.072-9.759-6.365-24.273-7.964
		c-1.697-0.188-4.96-0.438-9.196-0.766c-9.07-0.703-55.488-3.986-65.223-2.646L805.835,126.207z"/>
	<path fill-rule="evenodd" clip-rule="evenodd" fill="#FFC800" d="M1004.846,154.898c-4.618-2.44-16.694-8.308-25.999-8.308
		c-2.653,0-4.972,0.47-6.908,1.399l-19.131,5.985c-2.615-2.97-4.374-6.144-16.037-6.99c-2.372-1.843-14.96-5.132-23.439-6.58
		c-0.979-0.149-12.284-5.757-30.43-5.757c-4.207,0-54.815-2.823-57.981-2.467l-1.645-4.524c6.197-0.06,16.046,2.515,25.495-2.467
		c2.776,0.311,35.096,0.823,45.233,0.823c6.602,0,8.499,0.604,14.804,0l9.458-1.645l4.935-3.29
		c5.037-1.858,27.675-2.967,34.534-2.967c1.286,0,1.785,0.176,1.871,0.211l0.849,0.346l0.909-0.106
		c0.078-0.009,7.875-0.905,14.502-0.905c5.534,0,7.058,0.632,7.261,0.73l0.534,0.401l0.715,0.173
		c0.083,0.023,12.949,3.773,21.363,28.48C1006.032,150.21,1005.698,153.498,1004.846,154.898z"/>
	
		<path fill-rule="evenodd" clip-rule="evenodd" fill="none" stroke="#000000" stroke-linecap="round" stroke-linejoin="round" stroke-miterlimit="10" d="
		M554.754,122.723c5.104-0.863,11.125-0.604,16.05,0.399c2.575,0.526,5.456,0.79,8.119,1.337c1.772,0.365,5.945,1.761,5.438,2.376"
		/>
	
		<path fill-rule="evenodd" clip-rule="evenodd" fill="none" stroke="#000000" stroke-linecap="round" stroke-linejoin="round" stroke-miterlimit="10" d="
		M550.641,116.555c6.491-1.836,16.335-5.405,23.507-2.035c1.013-0.105-1.464,0.007-0.889-0.021"/>
	
		<path fill-rule="evenodd" clip-rule="evenodd" fill="none" stroke="#000000" stroke-linecap="round" stroke-linejoin="round" stroke-miterlimit="10" d="
		M549.819,109.976c3.836-1.198,8.977-1.008,12.337-2.467"/>
</g>
</svg>
