<?xml version="1.0" encoding="utf-8"?>
<!DOCTYPE svg PUBLIC "-//W3C//DTD SVG 1.1//EN" "http://www.w3.org/Graphics/SVG/1.1/DTD/svg11.dtd">
<svg version="1.1" id="Layer_1" xmlns="http://www.w3.org/2000/svg" xmlns:xlink="http://www.w3.org/1999/xlink" x="0px" y="0px"
	 viewBox="0 0 2230 2049" enable-background="new 0 0 2230 2049" xml:space="preserve">
<path d="M2110.76,1616.96c-0.8401-1.51-0.51-3.26-0.3-4.83c1.6401-9.42,3.8-18.75,5.22-28.21c2.75-1.0901,5.5-2.2101,8.1501-3.5701
	c-0.1401-2.11-0.27-4.22-0.77-6.24c-1.48-5.42,0-11.11-1.28-16.5599c-2.1501-0.41-4.28-0.8101-6.3801-1.1801
	c0.26-5.33-0.01-10.75,1.2102-15.96c2.1499-2.4401,8.1699-3.02,6.74-7.3301c-3.3601-5.96-2.1602-13.0399-3.98-19.45
	c-1.5701-0.91-3.1501-1.8-4.7002-2.65c-1.22-4.72-1.9199-9.63-1.1599-14.47c1.99-1.79,5.71-3.25,4.8501-6.52
	c-1.75-3.8099-5.9502-5.37-9.3401-7.3c-1.5901-0.62-1.9299-2.4199-2.3801-3.83c-1.71-6.91-3.3098-13.86-4.2998-20.9
	c1.47-2.52,3.0498-4.98,4.3499-7.58c1.51-2.72,0.3201-6.34-1.8101-8.35c-2.6599-1.53-5.8999-1.23-8.8298-1.64
	c-3.45-8.04-7.73-15.83-9.54-24.4501c-0.48-3.95,4.78-6.12,3.9299-10.1299c-4.03-4.28-8.0898-8.54-11.73-13.17
	c-1.9099-0.15-3.8599-0.0601-5.6599-0.53c-3.75-3.48-4.97-8.74-7.4399-13.0699c0.01-0.76,0.0198-2.26,0.0298-3.02
	c2.1201-2.4501,3.3501-5.42,3.0701-8.6901c-3.5999-3.1799-7.9299-5.34-11.52-8.5c-2.3-2.1799-5.4399-2.84-8.3999-3.51
	c-3.3201-4.6699-7.9502-9.1-8.4199-15.1c1.6599-1.89,2.4497-4.23,2.3999-6.73c-2.3599-1.96-4.49-4.75-7.7002-5.13
	c-2.6499,0.36-5.1997,1.26-7.8699,1.37c-5.05-6.14-12.0398-10.8099-15.46-18.1699c-1.77-3.2001-0.5701-6.9701-1.51-10.3301
	c-1.47-2.0499-3.8301-3.0499-6.01-4.0599c-2.4399,1.5299-5.1699,4.61-8.23,2.61c-7.27-4.36-14.1899-9.73-19.4399-16.4401
	c0-2.23,0.2898-4.49-0.1501-6.6699c-1.6899-3.55-5.5999-5.3301-9.3699-5.4c-1.3,1.1699-2.5901,2.34-3.8601,3.53
	c-11.6599-1.7001-20.3999-11.26-25.8301-21.1101c-2.0498-2.7699-5.8599-2.3799-8.8799-2.3799
	c-0.8198,1.12-1.6599,2.23-2.4299,3.3899c-3.1501,0.25-6.3801,0.16-9.25-1.25c-3.52-1.6899-7.73-2.72-10.0999-6.0599
	c-2.7803-3.9301-6.3604-7.1801-9.8604-10.4301c-1.8198-1.99-4.6899-1.4299-7.0598-1.63c-2.0701,2.03-4.0901,4.11-6.04,6.25
	c-8.84-1.73-17.83-3.6-25.99-7.49c-0.39-2.1899-0.84-4.34-1.25-6.49c-1.97-1.23-4.0599-2.8199-6.52-2.35
	c-4.5399,1.49-8.5299,4.24-12.8099,6.3c-5.78,0.48-11.5601-1-17.25-1.87c-6.14-0.5901-7.76-8.9401-14.05-9.1901
	c-3.71,1.45-4.84,5.6-5.86,9.05c-5.12,0.1599-10.22-0.4601-15.29-1.03c-1.4099-1.67-2.7899-3.34-4.1699-4.99
	c-6.17-0.61-12.38-0.76-18.5601-1.1c-0.75,0.8999-1.48,1.8099-2.2,2.73c-0.51,2.11-1.04,4.22-1.53,6.35
	c-5.6799,0.62-11.37,1.8101-17.09,1.1899c-1.5601-1.5599-2.4601-4.61-5.04-4.47c-5.4299,0.0701-10.88,0.5801-16.23,1.42
	c-3.25,0.91-3.04,4.99-3.7,7.67c-4.79,3.0099-10.55,3.5499-15.8,5.3799c-4.53,1.16-8.8101,3.3401-13.47,3.9
	c-2.36-0.83-4.05-2.7899-5.91-4.33c-2.67,0.26-5.83,0.6799-7.25,3.28c-1.1899,2.58-1.2,5.5-1.5601,8.2899
	c-2.36-0.3199-4.3099-1.6-5.5-3.62c-16.4199-22.87-31.8099-46.45-47.1899-70.02c-22.62-35.86-44.55-72.24-63-110.45
	c-1.23-2.14-1.17-4.64-1.22-7.01c5.8099-2.49,11.95-4.0599,17.89-6.1899c7.8099-2.65,15.14-6.4401,22.6499-9.8
	c18.3601-8.14,37.3201-14.84,56.38-21.14c22.39-6.99,45.25-13.05,68.6901-15.15c10.62-1.25,21.5499-1.33,31.9299,1.56
	c8.4701,2.45,16.55,6.07,24.39,10.1c6.5601,3.36,13.61,5.89,20.98,6.7001c16.0801,1.58,32.16,3.61,47.92,7.2599
	c17.26,4.1801,34.16,9.9,50.4,17.0901c7.5701,3.0399,14.6199,7.25,22.3,10.0299c10.27,4.39,22.0698,5.0901,32.7998,2.01
	c0.1902-4.1399,0.27-8.2799,0.0503-12.4199c-4.2603-2.5901-8.7402-4.8201-12.77-7.76c-6.4702-5.23-15.2402-4.79-22.9102-6.79
	c-4.3701-1.58-9.03-2.62-12.8398-5.37c-2.9302-2.1-4.7002-5.61-8.1501-6.96c-2.48-1.13-4.8401-2.4901-6.9299-4.21
	c1.46-2.54,3.9199-4.1,6.4099-5.52c1.03-1.9-1.5398-2.99-2.76-3.85c-6.9399-3.77-13.0699-8.8-19.98-12.62
	c-8.16-4.42-15.74-10-24.5-13.24c-7.9199-2.62-14.72-7.63-22.47-10.64c-4.24-2.01-9.01-2.36-13.29-4.21
	c-6.39-2.74-12.83-5.34-19.24-8.01c-8.76-3.7599-18.1-5.78-27.12-8.75c-9.4399-1.7599-18.8199-3.78-28.17-5.94
	c-11.8999-2.25-23.97-3.31-35.97-4.79c-27.96-2.54-56.1799-0.95-83.89,3.35c-26.0299,3.8101-51.71,9.83-76.96,17.19
	c-7.64,2.11-15.14,4.8-22.97,6.09c-3.72-7.61-5.38-16-8.89-23.69c-2.88-5.89-4.42-12.29-6.0701-18.59
	c-4.2599-14.3799-10.71-28.03-14.6299-42.5099c-2.5601-8.91-6.2001-17.44-9.53-26.06c-0.77-1.88-0.4401-3.92-0.3301-5.86
	c4.1001,5.38,7.51,11.26,10.1901,17.47c0.2999,1.51,1.99,0.93,3.12,1.15c1.9399-5.5699,3.6899-11.2,5.29-16.8799
	c1-3.6801,0.85-7.61,2.34-11.16c1.67-3.99,1.38-8.38,1.41-12.6c-0.04-4.84-0.0801-9.71-0.92-14.48c-1.25-5.23-4.22-9.87-7.55-14.02
	c-1.0199-0.02-2.0199-0.03-2.99-0.03c-0.47,2.95-0.84,5.97-2.1799,8.69c-2.13-4.39-3.87-9.03-6.9701-12.8599
	c-0.6799-0.01-2.0399-0.04-2.73-0.05c-0.13-2.2-0.24-4.39-0.3099-6.5801c-3.2101-2.0399-6.88-3.3099-9.86-5.6799
	c-0.3501-1.88,2.0599-2.96,2.1799-4.76c-0.1-1.99-0.73-3.89-1.1799-5.8c-2.92-0.8699-7.11,0.15-8.65-3.1299
	c-2.48-4.7201-6.63-8.6301-11.97-9.7201c-6.61-1.21-13.3401-1.9401-20.0601-1.7799c-0.87,1.3499-1.6799,2.75-2.54,4.1099
	c-3.5699-2.8398-7.0199-5.8199-10.3899-8.8799c-5.2301-4.96-11.8501-7.98-17.8201-11.8801c-6.66-3.2699-12.6799-7.95-19.96-9.7699
	c-9.5-2.67-18.42-7.1-28.09-9.15c-4.5901-1.0901-8.8601-3.28-13.53-4.05c-3.17-0.6599-6.9301-0.8599-8.9401-3.78
	c-5.26-6.8599-11.9-12.4299-17.87-18.6399c-0.02-0.54-0.0699-1.63-0.1-2.17c3.36,0.7101,6.96,1.87,10.35,0.65
	c2.42-2.51,3.2001-6.03,4.48-9.16c1.13-3.34,2.79-6.62,2.9701-10.2c-0.74-5.0599-4.7001-8.7001-8.1001-12.16
	c-4.2699-4.23-5.61-10.3201-8.96-15.1499c-1.78-2.5701-3.58-5.1301-5.26-7.77c-2.5404-4.1504-6.4757-7.1121-9.8395-10.5566
	c-1.157,0.5857-2.3344,1.1003-3.5862,1.3643c-0.2593,2.0818-1.7444,3.7476-2.6943,5.5522c-0.72,0.0901-1.4199,0.1801-2.1,0.28
	c-1.26-3.22-1.9401-7.1699-5.17-9.0599c-5.87-3.76-12.1899-6.7401-18.1899-10.25c-0.09-1.4-0.15-2.8-0.2001-4.1901
	c-2.7899-2.1399-5.98-3.77-9.46-4.3899c-2.63-0.75-6.14-0.3601-7.49-3.29c2.89-0.27,5.8101-0.4399,8.71-0.8
	c-0.34-3.88-3.0199-6.84-6.26-8.6799c-0.1499-1.0901-0.2699-2.1801-0.36-3.25c-0.36-0.02-1.1-0.0701-1.46-0.1001l1.7-0.1599
	c-0.0499-0.8601-0.1399-2.5801-0.1899-3.4301c-5.61-3.76-11.48-7.3099-18-9.23c-5.89-1.4601-11.9301,0.0299-17.61,1.65
	c-6.2001,1.8199-12.61,3.09-18.53,5.76c2.21,4.8,7.34,7,10.6801,10.8699c4.37,3.9401,6.8899,9.79,12.24,12.6401
	c1.6699,1.03,3.62,1.97,4.48,3.8899c2.16,4.0701,3.65,8.5901,3.73,13.24c-5.42-2.8099-10.77-5.95-15.15-10.26
	c-4.21,0.1501-8.4199,0.7201-12.61,0.1801c-0.1-1.5-0.1899-2.99-0.26-4.48c-3.08-2.25-5.38-5.3199-6.84-8.8099
	c-2.33-5.3301-6.72-9.23-10.29-13.67c-2.47-3.01-6.13-4.58-9.1699-6.87c-3.1901-2.5601-7.3101-3.2-11.01-4.66
	c-4.3101-1.6801-8.5701-3.48-12.9801-4.89c-2.86-1.1-6.11-1.77-8.24-4.1299c-2.2799-2.4401-4.01-5.3501-6.3999-7.6901
	c-5.6101-5.76-13.1901-9.4701-17.8401-16.1801c-7.84-11.4299-16.5-22.25-24.87-33.28c-3.9-5.22-10.35-9.1-11.13-16.11
	c-0.89-11.4301-8.46-20.5199-13.12-30.5599c-1.5399-2.88-1.01-6.21-1.0499-9.3201c0.11-3.5599-1.49-6.84-2.29-10.23
	c-0.91-3.52-0.22-7.1599-0.21-10.73c0.08-5.61,0.1899-11.23-0.2201-16.8301c-0.5199-6.25-3.46-11.8999-6.5299-17.25
	c-1.16-1.72-0.86-3.8398-0.8201-5.7899c7.4601-4.91,8.9501-14.1801,11.35-22.08c4.2201-8.99,13.51-14.01,19.3201-21.8101
	c1.58-3.78-0.34-7.78-1.47-11.4199c-1.4401-3.9001-0.99-8.1801-2.36-12.1001c-2.5-7.3199-4.0901-15.73-10.4701-20.8199
	c-3.0499-1.08-6.37-0.9801-9.52-1.53c-0.73-9.4301,3.7101-18.0499,6.9701-26.59c1.7899-5.24-2.9601-9.22-4.7001-13.6901
	c-0.9-2.65,1.49-4.66,3.2201-6.25c4.97-4.0599,11.21-6.99,14.45-12.8099c2.29-4.49,4.15-9.1801,6.54-13.6201
	c0.2699,0.2201,0.8099,0.6702,1.08,0.8901c-0.53,3.3199-1.38,6.5699-1.78,9.8999c4.61-1.5,9.0801-3.51,13.1801-6.1199
	c2.75-1.76,4.6599-4.5,7.24-6.4701c2.3199-1.13,5.02-0.61,7.51-0.4301c9.0599,1.1801,17.9,3.7201,26.39,7.0601
	c12.12,4.5701,24.01,9.72,35.7899,15.1c0.73,0.05,2.2001,0.15,2.9301,0.2001c0.52-0.3501,1.5599-1.05,2.08-1.39
	c2.2596-7.4886,6.7112-16.0021,3.51-23.8345c-2.6089-6.3837-9.3425-9.8812-14.8501-13.3949
	c-6.4564-4.119-11.5261-9.0936-17.1013-14.5386c-15.0642-15.0643-30.4189-34.1094-47.8386-46.3621
	c-8.3199-8.8401-15.74-18.53-22.7599-28.42c-4.6801-7.1801-9.87-15.5299-18.91-17.4301c0.3199,3.9401,1.96,7.5601,3.04,11.3201
	c-6.41-2.72-11.1901-7.98-17.0701-11.5601c-7.0599-4.3599-14.08-8.8999-21.72-12.21c-13.88-6.1899-28.25-11.6299-43.1899-14.5599
	c1.4099,4.23,7.8499,4.5499,7.49,9.7c-5.4501-1.0299-10.0701-4.2-15-6.5199c-18.5482-9.303-42.0713-21.3208-59.863-3.9167
	c-3.5168,3.4401-14.2313,5.0834-18.9675,7.3253c-6.9495,3.2898-13.6266,7.1552-19.9446,11.537
	c-11.6392,8.0725-23.2986,18.3489-31.8849,29.6443c-4.93,6.67-11.86,11.7001-15.8,19.1101c1.39,1.71,2.84,3.3899,4.33,5.03
	c0.25,5.5-3.5,9.83-6.18,14.25c-2.11,3.2899-2.95,7.1499-4.31,10.77c-2.46,6.5698-4.68,13.23-6.58,19.97
	c-1.24,4.24-0.56,8.6499-0.11,12.95c0.99,9.6799-1.09,19.34-0.73,29.03c1.45,5.2,5.55,9.08,7.91,13.86
	c-5.07,3.1899-10.89,4.7699-16.24,7.36c-10.34,4.6599-19.63,11.23-29.56,16.6599c-5.88,3.42-12.1,6.3401-17.4301,10.6301
	c-6.6154,5.3247-14.2156,8.8984-21.2695,13.4772c0.7462,1.995,1.8648,3.9435,2.917,5.8995
	c-17.7363,2.9932-32.454,15.4197-44.062,29.1598c-13.4547,15.9259-25.804,33.0676-38.3354,49.5635
	c-4.84,6.5499-9.04,13.6-14.6904,19.5204c-8.5065,8.9128-16.759,17.8901-23.2831,28.3962
	c-6.2604,10.0814-6.3869,23.2032-8.4929,34.892c-5.0302,27.9191-11.0283,55.6636-17.9804,83.167
	c-3.4899,13.8062-7.354,27.7953-14.1719,40.3866c-7.1187,13.1469-17.1334,22.2556-22.6014,36.4878
	c-2.44,11.4399-8.9,21.3501-13.8,31.8101c-4.43,9.2999-8.61,18.73-12.11,28.4199c-4.97,13.26-7.84,27.23-9.49,41.2703
	c-0.5707,4.0934,0.938,7.8048,0.8495,11.7766c-0.1451,6.5142,0.8181,3.4845-3.5642,7.2188
	c-5.921,5.0454-11.2133,8.257-13.2208,16.4856c2.2513,1.0439,4.5027,2.0879,6.754,3.1317
	c1.0307,9.1954,2.0615,18.3909,3.0922,27.5864c2.7368,24.4147,2.7015,51.224,9.7393,74.8307c1.91,6.27,2.3,12.94,5,18.98
	c5.83,17.48,13.9,34.38,25.28,48.95c7.69,10.06,17.78,17.93,28.01,25.23c6.49,4.81,14.29,7.44,20.68,12.38
	c14.78,11.65,31.81,20.23,49.52,26.45c0.01,0.46,0.01,1.38,0.02,1.84c-0.7-0.52-1.38-1.02-2.05-1.5099c0.17,0.43,0.5,1.29,0.67,1.73
	c-41.14-4.67-82.4-8.89-123.84-9.07c-9.1801,0.21-18.2-2.98-27.39-1.36c-7.1,1.35-14.53,1.97-21.12,5.12
	c-2.26,1.26-5.37,5.05-2.51,7.2c6.1,4.89,14.6,6.17,19.92,12.22c-4.19,0.1899-8.38,0.86-12.15,2.7899
	c-3.19,1.62-6.77,2.24-10.28,1.41c0.91-2.11,1.8-4.23,2.62-6.36c-5.68-2.02-10.89-5.08-15.85-8.47c-6.71-0.84-13.45-1.77-20.24-1.63
	c-5.71,0.11-11.34-1.09-17.05-0.99c-5.02,0.02-9.97-1.02-14.9901-0.96c-5.36-0.17-10.91,0.51-16.06-1.34
	c-22.32-0.54-44.66,0.03-66.99-0.23c-6.84,0.29-13.85-0.82-20.52,1.0699c-3.7401,1.05-7.54,2.08-11.45,2.05
	c-7.38-0.24-14.66,1.02-21.98,1.72c-5.34,0.44-10.84-0.54-16.06,0.99c-10.31,0.56-20.58,1.46-30.92,1.26
	c-3.79,0.98-7.71,1.08-11.6,0.97l0.08,1.02c-5.36,0.07-10.72,0.1-16.07-0.01l0.15,1.13c-1.7-0.08-3.41-0.14-5.11-0.18l0.07,1.09
	c-4.68,0.04-9.37,0.13-14.05,0l0.02,0.74c-2.84,0.48-5.63,1.17-8.4,1.96c-5.71,2.2399-11.69,3.68-17.86,3.3799
	c0.36,1.8301-0.11,4.17,1.66,5.42c4.77,4.61,10.84,7.48,16.48,10.86c6.17,3.62,13.19,5.3199,19.55,8.54
	c5.95,2.09,12.16,3.35,18.13,5.38c7.06,2.52,14.62,2.52,21.95,3.5699c12.03,0.34,24.03,1.26,36.05,1.49
	c5.32,0.4301,10.6,1.3,15.96,1.17c4.73-0.16,9.26,1.6,13.99,1.59c7.26,0.0601,14.47,1.1,21.67,2.05c0.58,0.39,1.17,0.7999,1.76,1.22
	c-1.88,2.79-3.83,5.5699-6.33,7.87c-1.73-1.12-3.47-2.21-5.15-3.37c-4.76-0.62-8.88,2.34-11.88,5.72
	c-6.42,7.39-9.63,17.24-9.71,26.9601c-0.13,5.35,1.5,10.7899,5.18,14.7799c0.88,5.63-2.5699,11.11-0.83,16.6901
	c0.97,3.02,3.91,4.6,6.53,6.01c26.34,13.3099,52.45,27.09,78.71,40.58c-0.43-0.04-1.29-0.1-1.72-0.13c4.53,1.37,8.59,3.83,12.77,6
	c19.65,10.02,38.94,20.73,58.72,30.5c6.69,3.23,12.29,8.1801,18.17,12.63c17.62,13.39,35.2,26.83,52.95,40.05
	c7.4,5.62,14.89,11.1599,22.87,15.95c7.65,4.67,16.2,8.36,25.27,8.77c11.02,0.5699,22.05,0.71,33.08,0.9399
	c4.77-0.0399,8.35,3.39,11.92,6.0801c15.45,11.1,30.61,22.61,45.88,33.96c9.9,7.38,19.54,15.59,31.25,19.98
	c2.11,0.72,3.92,2.05,5.59,3.51c-5.86,16.74-9.42,34.1901-13.13,51.51c-2.31,17.1901-4.27,34.4301-6.07,51.6801
	c-2.17,1.5499-4.74,2.1699-7.38,1.87c-1.44-5.3301-3.73-10.3501-5.83-15.42c-1.6-3.61,0.12-7.97-2.19-11.3101
	c-3.85-5.74-10.29-9.6-17.11-10.5599c-2.29-0.39-4.92-0.66-6.3-2.79c-2.07-2.9399-5.08-6.26-3.92-10.13
	c0.36-2.36,1.41-4.8999,0.3-7.1899c-2.5-5.87-8.13-9.54-13.7-12.12c-4.28-1.9501-9.09-1.4501-13.56-2.5701
	c-3-1.72-5.08-4.59-7.39-7.08c0.01-3.22,0.76-6.54-0.14-9.66c-4.34-6.7-12.11-10.12-19.59-11.99c-3.11,1.1-6.39,3.05-9.79,1.97
	c-6.22-3.8199-8.22-11.4299-12.89-16.61c-4.9-3.36-10.83-7.01-17.01-5.26c-3.96,0.8401-8.03,0.7201-12.05,0.9401
	c-2.63,0.26-4.91-1.15-7.1-2.37c-0.81-3.88-2.78-7.63-6.41-9.52c-5.61-3.1-12-6.37-18.59-5.11c-2.0699,1.35-3.3,3.5599-4.91,5.37
	c-1.99,2.8099-6.01,1.78-8.9,1.45c-5.99-1.01-8.2599-7.63-13.45-10.09c-6.15-3.6801-13.54-4-20.44-2.87
	c-1.98,2.48-3.57,5.24-5.05,8.0601c-4.05,0.25-8.25,0.9399-12.22-0.15c-4.91-4.0801-10.47-7.6901-16.85-8.86
	c-2.97-0.3601-5.87,0.5199-8.75,1.09c-1.14,1.54-2.27,3.1-3.36,4.7c-4.65,1.53-9.7,1.23-14.27,3.01c-2.83,0.97-5.64,2.39-8.7,2.3
	c-4.06-0.54-7.68-3.88-11.92-2.67c-4.47,1.17-9.09,2.35-13.04,4.8301c-4.35,2.48-1.54,9.08-5.95,11.45
	c-3.03,1.83-6.53,3.1899-10.11,3.22c-4.49-1.16-8.39-3.98-12.94-4.9199c-3.83-0.4501-7.27,1.61-10.32,3.6499
	c-0.72,3.5801-0.98,7.42-2.77,10.6901c-3.21,3.65-7.65,5.9-11.87,8.1799c-2.89,1.39-5.78,3.1801-9.06,3.4
	c-4.09-0.63-7.61-3.89-11.94-3.1799c-5.01,0.34-8.42,4.63-10.88,8.58c-2.8,3.86-1.08,9.34-4.27,13.01
	c-3.12,3.78-7.29,6.76-11.85,8.53c-3.25,0.01-6.18-1.9301-9.2-2.9701c-6.47,1.7101-10.22,7.4801-15.02,11.62
	c-1.9,1.7401-4.03,3.37-5.24,5.7201c-0.48,3.1499,2.23,5.89,1.79,9.0299c-1.52,4.7201-4.85,8.6001-8.37,11.9901
	c-2.97-1.4801-6.07-3.38-9.55-2.67c-5.23,0.2999-8.51,4.79-11.18,8.75c0.48,2.98,2.07,6.1799,0.64,9.16
	c-2.21,5.3899-3.96,10.98-6.75,16.12c-0.81,0.2-1.61,0.4199-2.41,0.6699c-3.3-0.3099-7.03-1.33-10.03,0.65
	c-3.95,2.65-6.72,6.9-7.9901,11.46c-1.15,3.79,3.1801,6.9801,1.64,10.8301c-0.92,4.2-4.87,6.34-7.38,9.45
	c-1.69,4.96-1.49,10.4-3.36,15.36c-3.7,0.12-7.75-0.86-11.11,1.15c-3.38,2.4401-4.7,6.8201-4.11,10.84
	c1.84,1.61,3.59,3.3101,5.31,5.0701c-0.28,2.53-0.4901,5.09-1.02,7.61c-0.55,4.23-4.69,6.38-7.26,9.33
	c-3.11,2.98-2.86,7.62-4.31,11.39c-1.23,1.47-3.31,1.8-4.93,2.73c-2.6,0.91-3.42,3.8-4.57,6.03c-1.2,3-3,5.91-3.25,9.21
	c-0.07,4,5.97,4.16,6.39,7.99c0.49,4.13,0.87,8.53-0.57,12.53c-2.19,2.86-4.64,5.5701-6.03,8.9601
	c-2.07,0.47-4.19,0.7899-6.19,1.5499c-2.5699,3.0801-3.35,7.6901-2.36,11.55c1.96,2.21,4.91,3.47,6.5,6.0399
	c2.38,6.1901,2.18,13.1801,0.25,19.4901c-4.34,1.4399-10.13,3.5299-10.49,8.9199c-0.51,5.9401-1.04,12.14,0.66,17.96
	c2.51,1.9901,5.08,4.1201,6.3701,7.16c2.95,6.5601,4.77,13.87,3.71,21.09c-4.12,3.3201-7.02,7.92-9,12.78
	c-0.81,3.2101,0.05,6.8,2.02,9.4601c2.01,1.46,4.73,1.5499,6.69,3.08c3.11,4.8199,4.53,10.51,6.57,15.83
	c1.47,3.67,2.17,7.63,1.58,11.5901c-3.25,2.45-6.41,5.72-6.83,9.99c0.1,3.4199,1.26,7.39,4.52,9.1c3.06,1.47,7.06,1.62,9.1,4.72
	c2.9,4.3,6.47,8.85,6.55,14.28c0.24,3.54-4.38,4.3099-5.43,7.26c-0.99,5.4399,1.64,10.6699,4.45,15.14
	c2.3,3.76,6.98,4.74,9.97,7.7699c1.73,1.76,3.41,3.6901,4.35,6.01c0.56,2.6801,0.0099,5.5901,1.18,8.17
	c1.28,3.1,3.62,5.67,4.71,8.88c0.78,3.51,0.83,7.4301,3.26,10.35c2.66,4,7.6,5.02,11.93,6.2001c7.11,1.86,12.55,8.1399,14.07,15.24
	c0.17,3.23-1.56,6.6899,0.5,9.6599c3.71,7.5601,12.55,9.78,20.15,11.17c5.9,0.51,11.21,4.09,14.64,8.8
	c2.37,4.3999,1.41,9.6499,2.08,14.4399c0.25,1.25,1.45,1.99,2.39,2.79c4.08,2.51,9.15,4.53,13.89,2.64
	c6-2.5,13.41-0.8201,17.63,4.14c2.7,3.1599,3.55,7.3099,5.02,11.09c0.8,2.54,3.72,3.0699,5.85,4.0599
	c3.89,1.26,7.87,3.8301,12.08,2.38c5.7599-1.97,12.45-1.59,17.67,1.6801c4.28,2.9399,4.95,8.84,8.93,12.04
	c6.26,3.49,13.9,4.2,20.8,2.38c0.88-1.7201,1.79-3.42,2.72-5.0801c3.44,0.01,6.91,0.05,10.3,0.76c4.92,0.6,6.82,5.92,10.73,8.29
	c7.05,4.12,15.96,4.9,23.6,1.98c0.6-1.9301,1.18-3.84,1.71-5.75c5.73-0.1801,13.03-2.85,17.54,1.99c4.92,4.4,11.99,6.54,18.52,5.73
	c5.02-0.65,5.82-7.09,10.43-8.4299c5.58-2,11.6-2.26,17.48-2.26c5.23-0.1801,9.81,3.4399,15.09,2.85c4.15-0.62,7.98-2.6,11.58-4.67
	c2.63-1.3199,3.21-4.4299,4.31-6.88c1.5-5.1699,7.68-6.24,12.14-7.49c5.1-1.27,9.65,1.72,14.03,3.84
	c5.27,1.6801,10.21-1.99,14.29-4.8899c0.71-4.4601,0.16-9.63,3.45-13.1801c4.59-5.62,12.26-7.1,19.12-7.4399
	c4.73-0.3,9.7,3.6399,14.12,0.6699c6.2-3.49,3.12-11.99,6.83-17.1699c3.99-5.3401,10.15-8.4801,15.83-11.7101
	c4.86-3.15,10.35,2.01,15.4-0.28c3.83-2.5199,5.63-7.0199,8.86-10.1599c2.78-2.76,5.24-5.88,6.63-9.5801
	c-1.25-2.33-2.94-4.7699-2.27-7.5399c2.51-3.55,6.26-5.91,9.53-8.6801c4.3-0.39,9.26,3,12.9901-0.29
	c2.99-2.49,5.95-5.86,6.3199-9.86c-1.3799-3.64-3.78-7.0699-2.92-11.1699c3.98-5,8.04-9.9401,12.44-14.5901
	c3.06-0.1799,6.15,0.25,9.21-0.1399c5.32-2.78,9.25-8.8101,8.69-14.9301c-2-1.87-3.74-3.99-5.22-6.27
	c6.31-7.54,7.49-18.04,14.58-25.03c2.05-2.24,5.43-1.35,8.09-2.0699c4.85-0.15,5.99-5.9,6.55-9.7c-0.6-1.0701-1.18-2.1101-1.75-3.14
	c-1.8-1.11-3.61-2.1801-5.43-3.2101c0.04-1.8199-0.1-3.7,0.77-5.33c2.56-5.5,5.65-10.73,8.25-16.2c1.35-2.53,2.33-5.39,4.48-7.37
	c3.02-1.9401,7.88-1.76,9.11-5.79c1.26-4.34,1.78-8.87,2.14-13.35c-0.31-4-4.94-4.4301-7.8-5.8201c0.19-8.45,3.65-16.73,8.64-23.47
	c1.82-0.02,3.64-0.05,5.48-0.03c2.71-4.0599,3.04-9.0399,2.04-13.7c-2.89-1.9301-6.01-3.46-9.24-4.72
	c0.05-1.55-0.24-3.1801,0.3-4.63c1.51-2.27,4.29-3.01,6.6-4.15c3.81-1.65,6.88-4.55,10.65-6.27c2.66-1.24,5.09-2.87,7.44-4.6
	c3.61-2.6901,8.31-3.41,11.76-6.37c3.33-2.5701,7.34-5.4501,11.8-4.42c2.68,1.74,4.53,5.24,8.09,5.25
	c5.42,0.3201,11.08,0.05,16.1-2.25c4.27,0.77,8.57,3.0601,12.96,1.6c1.61-0.7799,1.67-2.6899,1.99-4.1899
	c1.14-5.78-1.9-11.73,0.74-17.3101c5.09-2.23,10.84-1.76,15.97-3.8099c2.33-0.8301,4.8-2.16,7.34-1.2001
	c6.78,2.2101,13.88,3.52,20.99,3.99c3.7,0.4601,5.81-3.1699,6.5-6.25c1.9-8.0099-0.98-16.5099,1.37-24.4199
	c4.36-4.64,11.04-6.21,17.01-7.78c0.31,0.51,0.95,1.51,1.27,2.02c-4.1199,7.08-8.79,13.84-12.92,20.92
	c-0.93,1.97-2.68,4.4399-1.06,6.5399c2.27,3.0601,3.59,7.5901,7.7,8.65c6.2,2.28,14.02-0.3099,17.33-6.1
	c2.1499-4.2001,2.6799-8.9401,3.97-13.41c-0.1899-6.6,3.27-12.37,4.64-18.66c4.23,1.2001,8.24,3.0601,12.09,5.1901
	c3.3201,0.84,6.73,1.01,10.15,0.86c5.76-0.22,10.66,3.3101,15.5599,5.86c4.3401,2.51,9.53,2.2001,14.29,3.33
	c10.92,2.0601,21.8701,5.26,33.0901,4.28c14.6299-0.95,29.2999-0.48,43.95-0.75c6.71-0.0699,13.22-2.2,19.95-1.97
	c16.7001,0.27,33.37-0.9,50.0701-0.99c8.3199,0.11,16.64-0.5701,24.96-0.3101c16.55-0.59,33.34-0.46,49.4301-4.98
	c7.9399-2.5,16.14-4.34,23.62-8.13c1.95-0.1899,3.9399-0.58,5.9299-0.2899c3.55,1.48,6.9601,4.5499,11.0901,3.09
	c4.85-0.99,6.3899-5.98,8.7-9.64c3.22-2.5699,7.5601-3.4399,10.6-6.3199c1.8201-1.9601,2.7101-4.5801,4.51-6.54
	c2.76-1.21,6.09-1.38,8.24-3.72c2.85-2.8501,6.15-5.15,9.4401-7.4501c2.21-1.21,1.9299-3.95,2.6-6.03
	c0.35-2.7,2.75-4.2699,4.4-6.1699c2.0699-2,2.75-4.88,3.8099-7.4501c1.89-4.7699,3.6801-9.58,4.9501-14.5499
	c0.9099-3.64,2.99-6.84,4.0399-10.42c0.53-4.63-1.27-9.52,0.8401-13.9299c2.33-5.41,3.22-11.37,6.25-16.4801
	c2.5199-5.5299,6.2899-10.5,7.7999-16.46c1.15-3.99,3-7.72,4.77-11.45c3.9-8.13,4.89-17.2001,6.5-25.9501
	c-1.45-2.8199-4.39-4.3199-6.9399-5.96c-1.63-9.5-1.38-19.25-0.4301-28.8099c0.13-4.6901-0.8-9.3701-0.17-14.04
	c1.1901-11.04,4.77-21.63,6.76-32.53c4.5901,0.08,9.05,1.41,13.27,3.16c2.61,1.3199,4.27,3.9399,6.84,5.38
	c2.41,1.34,5.15,1.98,7.8201,2.7c1.1,1.05,2.1899,2.11,3.3099,3.2001c5.3201-0.2201,9.4601-3.8301,14.2201-5.7201
	c4.6-1.77,8.87-4.3099,12.8099-7.26c4.83-3.84,7.45-9.58,10.28-14.8999c3.41-7.0701,6.02-14.5,8.86-21.8101
	c7.9399-20.4299,15.98-40.8199,25.15-60.74c2.4199-5.35,7.2899-8.88,11-13.25c5.36-6.25,11.4399-11.8199,16.77-18.09
	c10.63-11.39,22.1799-21.9,32.59-33.51c7.34-7.89,15.21-15.26,22.49-23.2101c1.65-0.1,3.3099-0.1599,5-0.1799
	c8.2,14.64,16.84,29.12,23.9,44.35c-0.05-0.49-0.0801-0.97-0.0901-1.4299c3.4701,7,7.27,13.8199,10.9301,20.73
	c2.91,5.86,7.03,11.26,8.29,17.8199c0.86,4.41,3.7799,8,5.22,12.2001c0.91,3.8999,0.61,8.1499,2.7,11.73
	c2.4301,4.2899,3.63,9.45,7.3401,12.9099c2.89,2.8501,7.3199,2.4701,10.7699,4.26c1.77,1.55,2.8101,3.7101,3.9601,5.74
	c4.11,7.8101,8.25,15.6101,12.45,23.38c2.78,5.4601,6.04,11.1101,6.09,17.42c-3.5299,3.25-7.25,6.47-9.5399,10.77
	c-2.64,5.01-6.62,9.09-10.22,13.4c-1.4,0.0399-2.78,0.0699-4.15,0.1c-0.63-0.6801-1.24-1.35-1.8301-1.99
	c-1.34-0.04-2.62-0.02-3.9099,0.01c0.39,0.0699,1.1599,0.21,1.5499,0.2799c-1.37,0.9-3.5499,1.9801-2.97,4.02
	c0.62,2.86,3.4401,5.92,1.28,8.79c-3.6,4.97-6.84,10.67-12.4601,13.61c-3.7899,2.01-6.2999,5.5701-8.9299,8.83
	c-2.21,0.4901-5.4401,0.1801-6.39,2.7401c-1.3099,3.45-1.45,7.3099-3.37,10.5599c-1.52,3.45-5.24,4.8201-8.15,6.8101
	c-0.52,4.3199-0.8199,8.83-2.97,12.73c-1.55,3.47-4.98,5.47-7.17,8.46c0.48,1.83,0.89,3.6901,1.2001,5.59
	c-1.91,2.14-3.39,4.6001-4.61,7.2001c-1.2101,2.86-4.27,4.1799-6.01,6.63c-2.4301,4.85-2.1801,10.39-2.63,15.65
	c-1.48,1.35-3.28,2.2799-4.9301,3.3899c0.12,3.7001,0.38,7.4301-0.0699,11.14c-0.6801,4.7001,1,9.37,0.2,14.0701
	c-0.83,5.13-2.01,10.21-3.4299,15.21c-2.14-0.01-4.28-0.03-6.4-0.02c-0.54,0.47-1.62,1.41-2.16,1.88
	c-0.11,1.59-0.1899,3.21-0.23,4.85c1.65,2.0801,4.1899,3.89,4.4,6.77c0.35,5.15-0.4301,10.4501-2.4701,15.23
	c-2.11,4.99-1.48,10.52-1.9299,15.8c-2.4401,0.85-4.8101,1.87-7.11,3.03c-0.29,7.36-0.9401,14.7999,0.12,22.14
	c1.72,1.36,3.64,2.6,5,4.3999c1.0499,4.4,1.34,9,1.21,13.54c-2.61,1.33-7.7,1.95-6.98,5.92c1.23,6.86,0.99,13.89,2.14,20.74
	c1.6899,1.99,4.41,2.72,6.66,3.96c0.4199,4.1801,1.0399,8.36,2.0399,12.46c-2.6799,1.38-5.5399,2.7401-7.0699,5.4901
	c0.5,1.45,1.0699,2.98,1.59,4.49c1.74,0.5399,3.49,1.11,5.26,1.6699c3.52,5.25,5.24,11.4401,6.9,17.48
	c0.6699,4.54,1.52,9.74-1.4401,13.7101c-2.51,3.49-1.5299,8.08,0.6901,11.47c2.28,0.36,4.5699,0.79,6.87,1.2
	c4.12,7.91,8.22,15.9401,10.96,24.4601c1.47,3.5699-1.77,6.3199-3.9299,8.6799c0,6.0901,4.5599,10.77,7.8199,15.49
	c1.76,2.73,4.86,3.65,7.98,3.5801c3.34,3.3999,5.9401,7.3999,8.75,11.23c0.24,3.63-2.49,6.23-4.45,8.95
	c2.77,6.3201,8.4299,10.54,13.14,15.3401c2.35,0.4199,4.7,0.9099,7.08,1.36c2.64,2.76,5.5699,5.34,7.67,8.59
	c1.35,2.7-0.16,5.65-1.8301,7.8199c-0.7,3.77,1.65,7.25,5.14,8.5901c3.14,1.76,7.15-1.55,10.01,1.11
	c5.46,4.33,11.12,8.8199,14.71,14.9199c0.77,4.1801,1.2201,8.4501,2.3401,12.5701c1.23,2.87,4.45,3.65,7.2999,3.12
	c2.5901-1.37,5.8501-1.78,8.41-0.05c6.15,3.77,12,8.1,17.21,13.12c-0.0499,3.27-0.8999,6.7101,0.1801,9.91
	c1.74,2.66,4.86,4.75,8.1799,4.15c4.3-0.41,8.76-0.26,12.8401,1.37c5.6699,2.33,11.76,4.6899,15.59,9.78
	c0.09,1.98-0.12,4.08,0.49,6.0499c2.24,2.9601,5.9501,4.35,9.55,4.8101c4.88-4.1,11.33-1.67,16.73-0.1
	c5.53,1.6499,11.91,4.5399,13.5699,10.6399c1.62,5.02,7.8501,5.7101,12.38,5.66c1.16-1.84,2.3401-3.66,3.5701-5.45
	c9.02,1.4099,18.37,2.5,26.75,6.33c0.0599,2.11,0.1799,4.26,0.23,6.39c2.4399,2.4301,6.0699,3.59,9.4299,2.5699
	c4.2001-1.9199,7.9901-5.5299,12.9301-5.1499c5.53,0.1699,11.11,0.2999,16.58,1.3199c3.27,0.71,3.8301,4.63,6,6.73
	c3.04,2.74,7.49,2.9601,11.3501,2.1801c0.84-1.73,1.73-3.41,2.6599-5.0801c5.39-1.2799,11.54-2.7799,16.65,0.2401
	c4.77,2.72,10.45,1.58,15.5601,3.09c2.49,0.77,5.11,0.8099,7.73,0.7c0.58-0.7,1.1899-1.37,1.8199-2.02
	c0.0601-1.71,0.11-3.4299,0.2101-5.09c5.1499-2.25,10.7699-3.26,16.3799-3.21c1.2401,1.4199,2.55,2.83,3.8701,4.23
	c6.2-0.03,12.47-2.13,18.58-0.15c1.35-0.77,2.75-1.51,4.12-2.28c-0.0601-2.12-0.08-4.23-0.0701-6.3099
	c6.5701-3.24,13.4901-5.72,20.53-7.7001c3.78-1,8.5901-2.0299,11.54,1.3301c2.0701,2.4399,5.6599,2.78,8.3,1
	c3.6099-1.79,4-6.2001,4.9099-9.65c5.02-3.5601,10.6599-6.12,16.29-8.5699c6.54-3.2301,13.6101,0.86,20.45,0.58
	c1.3301-2.61,1.26-5.46,0.5801-8.22c4.5298-2.3201,9.21-4.4701,12.6899-8.3501c1.5801,0.9,3.02,2.9401,5.1201,2.3101
	c3.52-1.5,6.3101-4.24,9.52-6.25c3.3398-2.54,7.9099-2.4399,11.1799-5.13c-0.49-2.36-1.1799-4.74-0.9802-7.14
	c3.29-3.0499,7.2603-5.3199,10.27-8.72c0.77,0.11,2.3101,0.35,3.0801,0.47c1.4102,0.3301,2.8401,0.61,4.3101,0.91
	c2.8-2.37,5.5701-4.8101,8.54-6.98c2.73-2.03,6.1799-3.11,8.4399-5.76c1.04-2.61-0.1699-5.42-0.6899-8
	c6.96-8.6901,14.0898-17.25,21.3999-25.64c3.6802,0.33,7.1201,2.67,10.8601,1.24c0.3801-4.3-2.3499-8.85,0.1199-12.8199
	c4.7002-8.79,12.02-15.6801,18.6802-22.9301c2.4199-0.4,4.98,0.29,7.3699-0.49c2.6401-2.72,3.5-6.55,5.1899-9.84
	c2.1501-4.8201,5.3701-9.0801,7.3901-13.9601c1.6299-3.96,1.29-8.37,2.3899-12.45c2.03-2.5701,6.3801-1.76,7.99-4.87
	c2.3101-4.39,3.05-9.41,5.22-13.87c3.3901-7.12,5.6602-14.71,7.2302-22.41c0.2798-2.1,2.71-2.6799,4.1199-3.88
	c0.1401-1.38,0.27-2.76,0.45-4.1c-1.53-0.63-3.05-1.25-4.55-1.83c0.3701-4.7001,1.3801-9.3201,1.6301-14.02
	c0.3699-7.0701,2.6799-13.8101,4.77-20.51c2.49-0.38,5.05-0.52,7.5-1.24c1.01-1.27,1.5901-2.8,2.29-4.23
	c-0.51-1.04-0.99-2.0601-1.4402-3.0601C2114.27,1619.04,2112.3799,1618.21,2110.76,1616.96z M563.168,1756.4351l-17.0267-12.0232
	c10.654-4.5347,21.1147-9.5425,31.3589-14.8824C573.3184,1738.7871,568.5243,1747.7856,563.168,1756.4351z M265.6096,1533.2939
	l38.0284,31.1611c-2.8309,3.6082-5.4447,7.3871-7.8255,11.3105l-44.0498-20.3776
	C255.9777,1547.7825,260.6083,1540.4091,265.6096,1533.2939z M243.5441,1571.6586c2.2186-4.8611,4.6126-9.6385,7.1578-14.3335
	l43.9826,20.3466c-3.9329,6.7683-7.1855,13.934-9.6968,21.3503l-47.7773-11.9805
	C239.1314,1581.8345,241.2429,1576.7009,243.5441,1571.6586z M236.4612,1589.1465l47.8249,11.9924
	c-3.1037,9.7733-4.9175,19.9471-5.3114,30.1838l-51.9883-6.9744C229.1885,1612.3838,232.3666,1600.5948,236.4612,1589.1465z
	 M226.5999,1626.5476l52.3016,7.0165c-0.0608,3.3669,0.0325,6.7379,0.2871,10.1007c0.3491,4.611,1.0043,9.173,1.916,13.6755
	l-57.6473,3.3171l-0.0991-1.5428C223.6331,1648.2125,224.7277,1637.3164,226.5999,1626.5476z M223.7056,1664.5184l-0.1049-1.6318
	l57.9692-3.3357c1.0348,4.6371,2.3498,9.2052,3.936,13.682l-57.1531,18.9875l-0.4143-1.5723l-2.9541,0.9219
	c-1.1428-8.9468-1.6996-17.9773-1.697-27.0198L223.7056,1664.5184z M561.4634,1498.2678c-5.9526,2.0249-11.9052,4.05-17.8578,6.075
	l5.7785-6.751l1.264,1.2388l5.6858-6.8732C558.7493,1495.1077,561.2618,1498.3364,561.4634,1498.2678z M540.5953,1474.6985
	c3.9556,3.6206,7.7215,7.449,11.2698,11.4697c0.1625,0.1841,0.5471,0.6735,1.0685,1.3489l-6.192,7.4851l1.1169,1.0945
	l-8.2108,9.5925c-16.9601,5.7697-33.9203,11.5393-50.8805,17.309c-0.2922-0.5265-0.5844-1.0531-0.8766-1.5797l33.9897-49.0481
	l1.1841,1.0071l5.9417-8.2776C533.0195,1468.1123,536.8936,1471.3103,540.5953,1474.6985z M514.7701,1455.5723
	c3.361,1.9907,6.6461,4.1099,9.8498,6.3455l-5.6977,7.9373l1.3405,1.1396l-33.5153,48.3635
	c-1.6357-2.9475-3.2714-5.895-4.9071-8.8425c-0.7688,8.0769-10.5255,12.3315-18.5933,11.4727
	c-0.6797-0.0723-1.353-0.175-2.0238-0.29l32.2336-68.9351l1.5286,0.8115l2.9714-6.6311
	C503.7269,1449.4832,509.3482,1452.3608,514.7701,1455.5723z M493.0383,1444.8679l-2.7776,6.1985l1.3508,0.717l-32.4945,69.4929
	c-3.2256-0.741-6.3754-1.8499-9.5359-2.9246l16.3148-76.7559l1.4581,0.3958l1.065-4.6493
	C476.8164,1439.1555,485.0598,1441.6764,493.0383,1444.8679z M454.2682,1434.9806c3.0036,0.3494,5.9933,0.8021,8.9683,1.3352
	l-0.9831,4.2919l1.6505,0.4478l-16.2897,76.6383c-2.5703-0.8436-5.1599-1.6066-7.8173-2.0643
	c-3.569-0.615-7.5227-0.3999-11.0157,0.7111l3.8215-80.0732l1.6996,0.0646l0.0446-1.3889c1.7324-0.2117,3.4451-0.4602,5.1233-0.7728
	C444.1415,1433.0773,449.5711,1434.4342,454.2682,1434.9806z M411.6421,1437.582c2.3218-0.3405,4.6463-0.6624,6.9708-0.9844
	c3.4245-0.4745,6.9495-0.7683,10.4561-1.0986l-0.0203,0.6332l1.5021,0.057l-3.864,80.9631
	c-3.3741,1.5376-6.0731,4.0439-7.1384,7.6321c-6.1792-1.5179-12.4815-2.4677-18.8197-2.8901l-3.9052-81.8264
	C401.7422,1439.1232,406.6862,1438.3085,411.6421,1437.582z M391.1998,1441.2073c1.1934-0.2571,2.3907-0.4941,3.5876-0.7336
	l3.8801,81.3025c-6.0353-0.2911-12.094-0.0992-18.1053,0.5613l-15.5222-73.0273
	C373.3087,1445.9121,381.949,1443.1995,391.1998,1441.2073z M363.1043,1450.1151l15.4033,72.4681
	c-3.0551,0.3906-6.0956,0.8956-9.1112,1.5251l-29.0197-62.0618C347.7549,1457.4414,355.2669,1453.4624,363.1043,1450.1151z
	 M329.1288,1469.5983c3.146-2.2599,6.2998-4.3927,9.4728-6.4218l28.7064,61.3916c-6.5063,1.4821-12.8853,3.5168-19.0414,6.0813
	l-34.2283-49.3922C318.9418,1477.209,323.9658,1473.3071,329.1288,1469.5983z M312.4094,1482.6167l33.8749,48.8823
	c-8.6498,3.7939-16.8284,8.6401-24.254,14.4832l-34.2406-40.0029C295.498,1497.6873,303.733,1489.8912,312.4094,1482.6167z
	 M280.6811,1513.9014c1.8445-2.1516,3.7266-4.2703,5.6391-6.3611l34.0516,39.782c-0.4443,0.3643-0.8939,0.7218-1.3325,1.0933
	c-5.1222,4.3384-9.8211,9.1516-14.0579,14.3438l-38.1185-31.2351C271.2095,1525.4524,275.8218,1519.5698,280.6811,1513.9014z
	 M225.7909,1697.2705l3.5964-1.1226l-0.4688-1.7794l57.3579-19.0558c2.6299,7.0135,5.9066,13.7949,9.7471,20.2712l-55.264,30.6837
	l-0.7985-1.6344l-6.6819,3.8671C229.9401,1718.3098,227.445,1707.8623,225.7909,1697.2705z M239.6839,1745.3511
	c-1.6465-3.7683-3.1526-7.589-4.5455-11.4468l7.2905-4.2192l-0.7056-1.4443l55.424-30.7725
	c5.0751,8.2462,11.0727,15.9656,17.7896,23.0137l-56.2574,39.7251l-0.7963-1.3872l-8.3949,5.7095
	C245.845,1758.333,242.5588,1751.9312,239.6839,1745.3511z M252.3923,1769.3008l8.2763-5.6289l-0.9012-1.5698l56.6949-40.0339
	c4.8184,4.9026,9.9961,9.4541,15.4609,13.6106l-52.6954,53.5343l-1.1815-1.3317l-6.4626,6.793
	C264.4865,1786.7761,258.0472,1778.283,252.3923,1769.3008z M275.3147,1798.7063l6.3831-6.7092l-1.0439-1.1765l52.9934-53.8372
	c2.6715,1.9688,5.4147,3.8329,8.2115,5.6047l-40.2412,67.3787l-1.2459-0.9148l-4.918,7.9364
	C288.3157,1811.4021,281.5809,1805.2837,275.3147,1798.7063z M299.7653,1820.2626l4.9642-8.0111l-1.41-1.0352l40.3206-67.5115
	c5.3972,3.3091,10.9791,6.2687,16.7122,8.8883l-29.1237,74.775l-1.577-0.6934l-3.5953,9.6858
	C316.861,1831.7839,308.067,1826.3748,299.7653,1820.2626z M330.8715,1838.662l3.6539-9.8439l-1.3934-0.6128l29.1199-74.7651
	c8.0424,3.5505,16.3676,6.4458,24.8802,8.7229l-22.133,78.6667l-1.4293-0.5056l-2.6285,8.8048
	C350.5942,1846.6243,340.5307,1843.1017,330.8715,1838.662z M374.1573,1851.7598c-2.6965-0.4119-5.3717-0.9182-8.0356-1.4692
	l2.4474-8.1982l-1.6176-0.572l22.1785-78.8281c5.9221,1.512,11.9299,2.7274,17.9911,3.6597l-9.2512,82.3215l-1.6916-0.1934
	l-0.4922,5.0974C388.4868,1853.4404,381.2942,1852.8501,374.1573,1851.7598z M400.9697,1853.5981l0.4365-4.5203l-1.4948-0.1709
	l9.2443-82.2583c2.9893,0.4277,5.9899,0.7894,8.9994,1.0818l9.1227,81.1765l-1.4948,0.1709l0.2303,2.3845
	C417.7228,1852.7732,409.3497,1853.4946,400.9697,1853.5981z M431.2113,1850.5554l-0.2004-2.0754l-1.6916,0.1934l-9.0748-80.752
	c6.4811,0.5623,12.9949,0.8157,19.5042,0.7756l20.489,72.8232l-1.6177,0.572l0.2875,0.9631
	C449.8787,1846.2681,440.6099,1848.7854,431.2113,1850.5554z M463.8848,1841.2139l-0.2656-0.8896l-1.4293,0.5056l-20.2996-72.1509
	c6.5123-0.1045,13.0152-0.4998,19.4697-1.1755c2.8884-0.3025,5.7673-0.6635,8.6383-1.0691l23.4516,60.2115
	C484.0532,1832.3462,474.1437,1837.2335,463.8848,1841.2139z M495.9948,1825.0835c-0.2469,0.1553-0.498,0.3037-0.7457,0.4578
	l-23.1404-59.413c7.4756-1.1222,14.8898-2.5848,22.2368-4.3464l26.6652,44.6473
	C513.173,1813.2773,504.8231,1819.5332,495.9948,1825.0835z M522.6113,1805.0101l-26.1292-43.7499
	c5.5184-1.3691,10.9984-2.9043,16.4369-4.5912l28.6577,29.114C535.6603,1792.5874,529.3287,1799.0173,522.6113,1805.0101z
	 M542.9794,1784.1516l-27.7639-28.2059c9.6576-3.077,19.1832-6.6215,28.561-10.5403l18.2375,12.8781
	C556.2837,1767.3452,549.924,1776.0051,542.9794,1784.1516z M1166.41,882.08c-5.9401,3.32-12.3401,6.17-17.01,11.28
	c-3.9501,4.15-7.9301,8.72-9.24,14.46c-1.28,4.34-0.35,8.86-0.51,13.29c0.2999,1.97-1.78,2.68-3.0701,3.59
	c-4.1899,2.37-8.6499,4.37-12.33,7.53c-2.85,2.29-5.05,5.3-8.08,7.36c-3.9501,0.8199-7.2201-3.22-11.1801-1.95
	c-10,3.19-20.04,6.43-29.5,11.04c-15.85,7.01-31.34,14.84-47.39,21.38c-4.8099,1.98-9.0099-1.8-12.12-4.97
	c-7.35-7.61-17.3899-11.76-25.08-18.95c-5.7101-5.04-11.65-9.8-17.79-14.29c-3.39-2.33-3.5699-6.84-5.73-10.05
	c-4-6.08-10.8099-9.24-17.0399-12.51c-3.9401-2.16-8.25-3.53-12.2301-5.57c-3.0399-1.52-3.15-5.35-4.86-7.9
	c-3.61-1.95-8.3-1.59-11.29-4.68c-2.34-2.29-5.48-4.46-5.61-8.06c6.3199-2.62,12.7301-5.2,18.28-9.29
	c7.77-5.52,14.36-12.53,20.02-20.16c6.9401-8.79,12.5699-18.55,16.98-28.83c2.2999-4.82,3.15-10.41,6.73-14.55
	c3.01-3.7,6.9501-6.68,9.2999-10.89c2.2401-4.7999,2.6602-10.1901,2.9901-15.41c0.0399-3.26,1.7899-6.09,3.3199-8.84
	c2.51-4.46,3.74-9.47,5.75-14.15c10.5601-25.49,17.42-52.3099,24.0601-79.03c4.87-14.3899,5.53-29.72,8.88-44.46
	c1.22,0.02,2.46,0.05,3.72,0.0901c12.41,12.78,26.84,23.2999,40.72,34.3599c5.9501,5.77,10.17,13.0901,16.41,18.6101
	c9.13,9.6599,20.63,16.47,31.9399,23.23c5.78,3.46,12.4,5.6699,17.28,10.48c6.6,6.27,13.96,11.66,21.47,16.79
	c7.78,5.3101,16.89,8.04,25.27,12.21c5.27,2.7,11.2001,3.9399,16.24,7.11c-0.37,1.9501-0.73,3.92-1.13,5.88
	c0.7201,1.41,1.4601,2.8401,2.2201,4.26c0.83,0.01,2.5,0.04,3.34,0.0601c3.5-2.24,6.65-4.97,9.59-7.9
	c1.7001-1.4301,3.53-3.67,6.05-3.01c4.37,1.46,7.7899,4.7899,11.96,6.71c4.0701,2.14,8.72,2.58,13.0701,3.9501
	c3.5099,0.8099,3.11,5.2,3.87,7.95c1.7699,3.4,3.96,6.6,6.7,9.3c3.79,3.7,6.42,8.6,11.22,11.1899c-0.0499,1.54-0.09,3.1-0.12,4.67
	c-3.95,1.83-8.35,1.67-12.5699,2.15c-17.91,2.33-35.77,8.17-50.0701,19.5c-7.72,5.85-15.3199,11.86-22.74,18.08
	c-7.15,6.98-13.9199,14.83-17.3199,24.38C1167.98,872.2,1167.5,877.22,1166.41,882.08z M1208.49,1365.1801
	c-5.37,3.2799-11.64,4.85-17.85,5.3899c-0.99-7.0199,1.8199-14.1399,7.11-18.7799c1.73-1.65,4.1899-0.86,6.3199-0.76
	c4.25,0.48,8.3601-1,12.51-1.67C1217.49,1355.74,1213.4301,1361.59,1208.49,1365.1801z M1237.59,1294.91
	c-3.5299-2.2201-7.5699-4.64-8.87-8.86c-0.4-2-0.27-4.03-0.25-6.02c3.91-1.42,7.8401-2.77,11.91-3.66
	C1240.84,1282.6,1240.96,1289.37,1237.59,1294.91z M1310.85,856.02c-3.24,7.46-2.83,16.26-7.96,22.91c-3.48-1.43-6.4-3.86-9.84-5.34
	c-5.75,0.93-9.6801,5.89-14.7101,8.47c-5.11,2.69-6.84,8.5-9.02,13.42c-1.6599,4.36-5.24,7.51-8,11.14
	c-6.87,1.36-11.61-4.49-17.5-6.65c-7.59-3.06-15.8899-2.59-23.88-2.42c-3.6599,0.57-5.2799-3.17-6.8799-5.69
	c-2.6101-4.7-6.5-8.7-11.3201-11.12c-3.98-2.08-8.58-1.92-12.91-2.53c-4.51-0.76-9.0199,0.2599-13.5199,0.49
	c-0.9-7.24,2.5299-14.05,6.5399-19.81c6.65-9.33,16.4301-15.57,25.04-22.87c5.02-4.65,10.62-8.63,16.54-12.07l1.2799,1.39
	c-0.21-0.69-0.45-1.36-0.6699-2.01c12.74-5.82,26.26-10.69,40.4199-10.99c0.4601,2.16,0.92,4.34,1.23,6.54
	c6.4301,4.47,14.29,6.24,20.7401,10.7c4.0499,2.43,7.9299,5.34,10.2,9.61c2.58,5.01,9.9,2.78,12.89,7.33
	C1311.36,849.26,1312.28,852.88,1310.85,856.02z M2017.5925,1623.0657l-3.4875-1.0198l-0.5205,1.8506l-104.5828-32.5503
	c0.5471-2.6013,1.0129-5.2203,1.3845-7.856l109.1677,5.885l-0.1318,1.9204l5.199,0.3706
	c-1.1213,6.1187-2.3799,12.1686-3.7241,18.0979C2019.8867,1614.22,2018.7832,1618.6545,2017.5925,1623.0657z M1541.6934,1623.7931
	c-1.9333-10.6342-3.1941-21.3885-3.7917-32.1803l4.4497-0.3171l-0.1318-1.9204l105.826-5.7048
	c1.5009,2.5732,3.1078,5.0942,4.4564,7.7598l-104.313,32.4663l-0.5205-1.8506L1541.6934,1623.7931z M1538.5665,1553.2361
	c0.1617-1.793,0.3529-3.58,0.5587-5.364l4.0027,0.5736l0.2974-2.1573l94.8604,11.922c1.8878,6.8965,4.2615,13.6615,7.0543,20.2496
	c0.3917,0.9045,0.8317,1.7837,1.2894,2.6537l-104.5901,5.6383l-0.1489-2.1732l-4.2699,0.3044
	C1537.3064,1574.3274,1537.6173,1563.7529,1538.5665,1553.2361z M1562.6378,1461.5984l0.4808,0.2183l0.8691-1.9902l72.4841,31.4136
	c-0.0208,0.5754-0.0427,1.1494-0.0619,1.72c-3.306,7.7729-2.6625,16.2954-2.8937,24.5891l-81.7986-19.2159l0.4441-2.131
	l-1.998-0.433c1.2843-4.5143,2.6173-9.0131,3.9763-13.4994C1556.3025,1475.1309,1559.3514,1468.2883,1562.6378,1461.5984z
	 M1582.6113,1427.363l43.562,33.4407c3.1174,5.8727,6.1271,11.8008,8.7666,17.9063c1.3713,3.0649,1.6213,6.3792,1.5959,9.7007
	l-71.4991-30.9866l0.5099-1.168c1.9797-2.9756,4.3479-5.7146,5.6234-9.0961
	C1573.8795,1439.9573,1578.198,1433.6155,1582.6113,1427.363z M1656.208,1580.5973c-3.6519-6.9418-7.4624-13.8607-9.7977-21.3658
	l14.0114,1.761c-0.3956,1.7637-0.161,3.7327,0.4283,5.3876c2.16,3.29,5.1901,5.9399,7.22,9.37
	c-2.7997,0.802-5.2428,2.3027-6.8409,4.5767L1656.208,1580.5973z M1641.67,1537.98c-0.4183-5.2792,0.4612-10.5583-0.0458-15.8279
	l15.0808,3.5427c2.0157,1.976,3.7661,4.2139,5.2449,6.6451c2.03,3.6,6.3501,5.4301,7.5801,9.55c1.52,4.23,3.6699,8.22,4.95,12.5599
	c-3.99,0.8401-8.6799,0.1801-11.9199,3.0901c-0.375,0.2816-0.6941,0.6028-0.9709,0.9497l-16.0018-2.011
	C1643.9407,1550.3831,1643.7004,1543.9802,1641.67,1537.98z M1641.6801,1508.79c0.23-0.92,0.7-2.75,0.9399-3.66
	c0.92,0.01,2.75,0.04,3.67,0.05c2.24,4.2599,4.9299,8.2699,7.4099,12.4099c0.9375,1.4642,0.9639,3.222,1.0579,4.9491
	l-13.3057-3.1257C1641.2836,1515.8674,1641.3765,1512.313,1641.6801,1508.79z M1550.7891,1502.7883l0.3923-1.8829l82.2195,19.3148
	c-0.014,0.2432-0.0243,0.4873-0.0409,0.7297c-0.8099,9.75,1.11,19.4501,2.91,29c0.3918,1.8496,0.8323,3.6882,1.2964,5.5208
	l-93.7822-11.7866l0.2627-1.9063l-4.0498-0.5803c1.9067-13.1748,4.8835-26.1257,8.3633-38.9355L1550.7891,1502.7883z
	 M1908.4324,1593.9182l104.4412,32.5061l-0.5889,2.0942l3.4868,1.0195c-3.4551,11.8562-7.5601,23.5227-12.2998,34.9261
	l-4.4695-2.4233l-1.0032,1.9235l-96.0049-49.9369C1904.6528,1607.4954,1906.8359,1600.7762,1908.4324,1593.9182z
	 M2019.8828,1584.5787l-0.1489,2.1732l-109.0171-5.877c0.032-0.272,0.073-0.5426,0.103-0.8149
	c0.2195-6.8401,0.1355-13.5801-0.3572-20.2128l107.8855-13.559l0.2971,2.1573l10.5437-1.5111
	c-0.0325,12.6816-1.3613,25.489-3.4136,38.0642L2019.8828,1584.5787z M2027.3701,1521.9301
	c0.9546,5.9979,1.4883,12.0875,1.7085,18.2208l-11.3521,1.627l0.2627,1.9063l-107.7429,13.541
	c-0.9763-10.6855-3.074-21.084-6.7659-31.1572l107.1113-25.1625l0.3926,1.8829l12.1035-2.6233
	C2024.7993,1507.3525,2026.2307,1514.6143,2027.3701,1521.9301z M2021.4548,1493.6353l-11.8435,2.5669l0.4441,2.131
	l-107.5164,25.2576c-2.0503-5.1898-4.5349-10.2924-7.5293-15.3004c-0.6226-1.0413-1.2673-2.0687-1.9236-3.0889l104.6992-45.375
	l0.8691,1.9902l10.2888-4.671C2013.9927,1468.9712,2018.1638,1481.175,2021.4548,1493.6353z M2006.231,1451.0063l-10.2625,4.6591
	l0.7681,1.7587l-105.1277,45.5605c-1.248-1.8428-2.5464-3.6503-3.9014-5.416l91.8408-70.502l1.1094,1.5574l9.5933-7.1073
	C1996.2507,1430.9861,2001.5742,1440.8445,2006.231,1451.0063z M1975.8435,1401.1926c3.7791,4.7786,7.3533,9.6926,10.7375,14.7202
	l-9.8044,7.2639l1.2556,1.7625l-91.9336,70.5734c-4.1182-5.1193-8.6816-9.8788-13.6145-14.2198l78.9792-86.4423l1.5876,1.4576
	l9.3872-10.6306C1967.115,1390.665,1971.6028,1395.8301,1975.8435,1401.1926z M1930.9021,1357.4764
	c9.5498,7.0934,18.5249,14.9432,26.8975,23.3912l-9.6558,10.9351l1.4031,1.2881l-79.0398,86.5085
	c-6.7292-5.6571-14.0952-10.5554-21.948-14.5088c-1.3896-0.5321-2.8107-1.1396-4.2484-1.7715l72.6029-98.1501l1.4873,1.1852
	l8.7712-11.4476C1928.7612,1355.9595,1930.0566,1356.8484,1930.9021,1357.4764z M1898.5776,1337.6359
	c4.1846,2.0553,14.8267,8.4679,22.991,13.6478l-8.3713,10.925l1.6841,1.3412l-73.0032,98.691
	c-3.9888-1.7788-8.0732-3.5791-12.0382-4.491c-1.9078-0.4387-3.8263-0.8436-5.7523-1.2133l57.1206-114.4423l1.9202,0.9548
	l4.9126-10.2708C1891.5908,1334.3138,1895.1057,1335.9305,1898.5776,1337.6359z M1881.9124,1330.2318l-4.719,9.8658l1.6968,0.844
	l-57.4553,115.1128c-1.1829-0.2053-2.3677-0.3986-3.5554-0.5745l28.7073-126.5275l1.8315,0.4657l2.274-9.3005
	C1861.3103,1322.7852,1871.7488,1326.1638,1881.9124,1330.2318z M1836.9586,1317.0746c2.4417,0.4664,4.8752,0.9747,7.3016,1.5153
	l-2.2493,9.1995l2.0734,0.5271l-28.771,126.809c-5.722-0.7389-11.4869-1.1085-17.2438-1.028l6.6946-131.416l2.135,0.076
	l0.3428-10.0149C1817.4374,1313.6008,1827.5651,1315.28,1836.9586,1317.0746z M1772.14,1314.3199
	c9.0446-2.0065,18.7429-2.464,28.5099-2.0172l-0.3501,10.2197l1.887,0.0671l-6.7029,131.5764
	c-4.4827,0.1711-8.9558,0.6172-13.3939,1.4039c-5.3512,0.4185-10.4574,2.0892-15.5402,3.7054l-6.9633-136.6858l1.8871-0.0671
	l-0.2722-7.947C1764.8378,1314.2665,1768.4907,1314.1604,1772.14,1314.3199z M1722.12,1323.08c5.75-1.87,12.01-1.58,17.58-4.11
	c4.8643-1.5857,9.8621-2.7905,14.9214-3.595l0.2527,7.3824l2.1351-0.076l7.0062,137.5342
	c-3.0413,1.1896-6.8428,2.6277-9.2312,1.2466c-1.5645-0.905-2.6421-2.4409-3.6687-3.9286
	c-2.0502-2.9713-4.1021-5.9474-6.1367-8.9364l-27.2896-120.2808l2.0729-0.5271l-0.9039-3.6967
	C1719.9456,1323.7487,1721.0337,1323.4121,1722.12,1323.08z M1690.9301,1348.0198c0.35-5.3999,2.0699-11.3799,6.87-14.4897
	c4.553-3.1475,9.5864-5.4231,14.7717-7.3156l0.7833,3.2037l1.8318-0.4657l25.8003,113.7152
	c-7.8512-11.8049-15.2251-23.9095-20.9-36.8772c-2.3203-5.3022-4.3574-10.7491-7.2175-15.7806
	c-4.1775-7.3492-10.0745-13.7499-13.1785-21.613C1696.8228,1362.7485,1690.5011,1354.6384,1690.9301,1348.0198z M1597.41,1409.51
	c1.6799,1.0699,3.21,2.41,4.12,4.26c6.0399,10.79,11.2999,21.99,17.0499,32.9299c1.5201,2.8413,3.0612,5.6743,4.5958,8.5117
	l-39.0562-29.9817c0.9485-1.3408,1.8939-2.6816,2.8203-4.03C1589.85,1416.73,1595.34,1414.62,1597.41,1409.51z M1545.22,1640.88
	l-0.4399-0.6901c-0.73-3.1914-1.2217-6.4965-1.8232-9.7615l6.5317-1.9099l-0.5889-2.0942l104.8369-32.6294
	c2.8922,4.7877,7.9342,7.9514,10.5934,12.9851c-0.0265,1.5918,0.0964,3.1638,0.2966,4.726l-100.8524,52.4584l-1.0032-1.9235
	l-8.0291,4.3533C1551.1447,1658.0291,1547.8433,1649.5283,1545.22,1640.88z M1561.5151,1681.4373
	c-1.3699-2.9446-2.7273-5.9084-4.0625-8.8867l8.4185-4.5645l-0.8864-1.6997l100.0669-52.0498
	c0.601,3.3821,1.4174,6.738,1.8284,10.1534c0.45,2.8099,0.58,5.85,2.17,8.34c1.87,2.4,4.87,3.74,6.47,6.42
	c0.9019,1.3915,1.4656,2.9109,1.875,4.4835l-91.1101,60.2719l-1.0005-1.6326l-9.2509,5.8943
	C1570.6565,1699.5823,1565.8024,1690.6533,1561.5151,1681.4373z M1579.6763,1713.7859l9.1073-5.8029l-1.1322-1.8475l90.3267-59.7534
	c0.2437,1.4153,0.438,2.843,0.692,4.2379c1.8099,2.02,3.5399,4.21,5.8999,5.65c2.9901,0.75,6.14,0.22,9.2201,0.35
	c0.4893,0.7477,1,1.4891,1.5133,2.2292l-83.2062,79.1915l-1.4841-1.5671l-7.3407,7.2284
	C1594.6147,1734.3944,1586.7295,1724.3813,1579.6763,1713.7859z M1607.8892,1748.5161l7.3109-7.199l-1.3114-1.3848l82.9448-78.9426
	c0.2898,0.3964,0.5708,0.7975,0.8665,1.1903c1.9216,0.2406,3.7312,0.8053,5.4954,1.5055l-62.9724,98.7791l-1.5651-1.0765
	l-5.8997,8.9191C1623.9153,1763.656,1615.6206,1756.3582,1607.8892,1748.5161z M1640.1794,1775.6746
	c-0.6897-0.4751-1.3574-0.9774-2.041-1.46l5.9937-9.0613l-1.7711-1.2183l63.2479-99.2113c2.0811,0.941,4.1409,1.949,6.2911,2.7063
	c4.4919,1.5482,9.3063-1.7482,13.6149-0.1711l-48.095,115.6842l-1.9811-0.816l-4.4772,11.2999
	C1660.3105,1788.3535,1650.0122,1782.4458,1640.1794,1775.6746z M1676.9852,1796.199l4.576-11.5496l-1.7504-0.7212l47.9988-115.4519
	c3.886,2.2302,7.5599,4.838,11.5103,7.0037c4.9181,2.8064,10.1605,4.9572,15.5072,6.812l-34.9854,116.4932l-1.7954-0.5948
	l-3.4663,10.8776C1701.7188,1805.8416,1689.1367,1801.5601,1676.9852,1796.199z M1721.0361,1810.5969l3.2903-10.3259l-2.032-0.6731
	l34.9805-116.4763c1.6208,0.5339,3.2468,1.0505,4.8751,1.5485c4.3976,1.3829,8.9185,2.0719,13.4642,2.6288l-14.4807,120.717
	l-2.125-0.2278l-0.8357,8.1078C1745.6494,1815.0642,1733.2297,1813.3011,1721.0361,1810.5969z M1782.906,1816.3394
	c-6.053,0.186-12.1006,0.1521-18.1299-0.0902l0.7997-7.7572l-1.8778-0.2012l14.4775-120.6874
	c1.835,0.2122,3.6707,0.4203,5.5015,0.6595l14.3983,120.0278l-1.8778,0.2012l0.7185,6.9707
	C1792.2607,1815.8958,1787.5894,1816.1954,1782.906,1816.3394z M1803.4836,1814.7625l-0.719-6.9744l-2.125,0.2278l-14.3198-119.3772
	c1.5741,0.2405,3.1427,0.5137,4.7002,0.8513c5.0365-0.0442,10.0698-0.416,15.0632-1.0918l33.3956,111.1997l-2.0321,0.6731
	l2.2769,7.145C1827.8534,1810.7886,1815.738,1813.2665,1803.4836,1814.7625z M1846.0637,1805.5239l-2.3369-7.3336l-1.7955,0.5948
	l-33.2697-110.7808c10.2528-1.6118,20.3058-4.5164,29.8184-8.665l43.4824,104.5889l-1.7506,0.7212l2.4469,6.1755
	C1870.8484,1796.6589,1858.6079,1801.5934,1846.0637,1805.5239z M1905.4468,1778.1281c-5.4998,3.434-11.1274,6.6605-16.8623,9.6779
	l-2.25-5.6788l-1.981,0.816l-43.521-104.6816c6.1306-2.832,12.0178-6.1783,17.5752-10.0187l61.0046,95.6923l-1.7712,1.2183
	l2.2002,3.3262C1915.1106,1771.8719,1910.3047,1775.0948,1905.4468,1778.1281z M1925.1982,1764.5367l-2.0828-3.1487l-1.5652,1.0765
	l-61.0159-95.7102c1.1621-0.8425,2.3154-1.6979,3.4456-2.5844c0.8185-0.5826,1.6191-1.1859,2.4109-1.799l81.4934,77.5613
	l-1.311,1.3848l2.7388,2.6969C1941.6589,1751.3562,1933.5701,1758.2188,1925.1982,1764.5367z M1954.0664,1739.3354l-2.9063-2.8618
	l-1.4839,1.5671l-81.2339-77.3142c5.3477-4.4313,10.1077-9.5178,14.5513-14.8748l91.1284,60.2837l-1.1326,1.8475l5.0063,3.1898
	C1970.822,1721.1221,1962.7664,1730.5455,1954.0664,1739.3354z M1996.1138,1680.911c-4.1033,8.5363-8.9058,16.8077-14.2783,24.7684
	l-5.3464-3.4066l-1.0005,1.6326l-90.8315-60.0874c2.4382-3.0243,4.7922-6.1146,7.103-9.208
	c3.4475-5.8379,6.5457-11.9091,9.2209-18.1578l95.8076,49.8342l-0.8865,1.6997l4.9202,2.6677
	C1999.3086,1674.0981,1997.7437,1677.52,1996.1138,1680.911z"/>
</svg>
