<?xml version="1.0" encoding="utf-8"?>

<!DOCTYPE svg PUBLIC "-//W3C//DTD SVG 1.1//EN" "http://www.w3.org/Graphics/SVG/1.1/DTD/svg11.dtd">
<svg version="1.1" id="Layer_1" xmlns="http://www.w3.org/2000/svg" xmlns:xlink="http://www.w3.org/1999/xlink" x="0px" y="0px"
	 viewBox="0 0 1124.511 1824.703" enable-background="new 0 0 1124.511 1824.703" xml:space="preserve">
<g>
	<path d="M210.859,1679.165c-8.872-0.75-17.926-0.656-26.784-2.493c-4.209-0.873-7.772-3.478-11.827-4.845
		c-11.074-3.733-19.897-11.068-28.812-18.232c-0.891-0.716-1.788-1.4-2.723-2.06c-3.399-2.403-6.446-5.114-8.682-8.77
		c-3.726-6.092-7.636-12.08-11.682-17.964c-3.4-4.944-4.86-10.613-6.582-16.187c-1.645-5.326-3.015-10.736-4.57-16.091
		c-1.47-5.064-2.442-10.029-2.395-15.489c0.068-7.818-0.029-15.692-0.376-23.533c-0.122-2.754,0.229-5.392,1.094-8.02
		c2.807-8.53,5.503-17.095,8.29-25.631c0.485-1.487,1.061-2.981,1.845-4.327c4.898-8.406,9.862-16.773,14.816-25.146
		c1.406-2.377,3.437-4.172,5.494-5.973c6.507-5.698,13.136-11.283,18.979-17.676c2.7-2.954,4.261-6.759,6.59-10.037
		c2.171-3.056,5.1-4.486,8.422-5.477c1.631-0.486,3.392-0.551,5.008-1.072c5.856-1.886,10.195,1.263,14.596,4.248
		c0.334,0.227,0.673,0.621,0.769,0.999c1.274,5.004,2.599,10.005-0.647,14.838c-1.835,2.733-3.724,5.453-5.286,8.343
		c-3.173,5.869-8.379,9.708-13.373,13.742c-2.504,2.023-4.459,4.427-6.186,7.072c-3.68,5.635-7.303,11.308-11.018,16.92
		c-1.681,2.539-2.914,5.163-3.387,8.238c-0.821,5.337-1.977,10.622-2.913,15.943c-0.398,2.26-0.542,4.568-0.269,6.857
		c0.961,8.063,0.934,16.26,2.779,24.192c1.455,6.255,3.15,12.496,5.376,18.508c0.935,2.524,3.469,4.478,5.357,6.62
		c1.703,1.933,3.647,3.664,5.253,5.67c4.39,5.483,10.182,9.083,16.141,12.532c4.205,2.433,8.35,4.985,12.394,7.675
		c1.598,1.063,3.185,1.778,5.069,1.932c7.819,0.639,15.626,1.55,23.458,1.858c6.429,0.252,12.886-0.176,19.329-0.365
		c3.145-0.092,6.292-0.54,9.427-0.453c6.057,0.17,11.414-2.01,16.736-4.463c0.906-0.417,1.847-0.761,2.782-1.112
		c5.53-2.079,10.718-4.6,14.889-9.048c2.725-2.906,5.866-5.483,9.082-7.852c3.803-2.8,6.388-6.514,8.788-10.413
		c2.701-4.385,5.203-8.893,7.927-13.264c1.833-2.942,1.783-6.259,2.24-9.472c0.801-5.643,0.552-11.39,1.659-17.015
		c0.272-1.381,0.297-2.904,0.028-4.282c-0.961-4.927-0.677-9.952-1.318-14.916c-0.427-3.306-1.262-6.425-2.129-9.583
		c-2.853-10.396-7.235-20.165-12.21-29.687c-0.395-0.756-0.848-1.552-1.473-2.106c-5.031-4.46-9.764-9.32-15.356-13.059
		c-4.152-2.775-8.503-5.277-12.712-7.993c-4.14-2.671-8.928-3.846-13.622-4.996c-6.374-1.561-12.796-2.943-19.255-4.185
		c-6.688-1.286-13.116-0.461-19.57,0.654c-3.079,0.532-6.192,0.382-9.274,1.12c-2.73,0.654-4.695-1.62-5.532-3.816
		c-1.605-4.213-2.1-8.607,0.899-12.631c1.157-1.552,2.586-2.716,4.48-3.13c6.57-1.437,12.748-4.225,19.387-5.469
		c4.346-0.814,8.799-0.982,13.057-1.803c4.797-0.925,9.326-0.519,13.96,0.038c5.085,0.611,10.153,1.37,15.217,2.142
		c2.731,0.416,5.05,1.977,7.499,3.101c7.401,3.396,15.295,5.806,22.053,10.51c7.16,4.984,14.312,9.993,21.263,15.26
		c3.721,2.82,5.409,7.28,7.607,11.271c4.758,8.639,8.922,17.568,12.887,26.59c2.993,6.809,5.393,13.934,8.961,20.421
		c4.208,7.652,2.841,15.498,2.421,23.406c-0.368,6.933-0.687,13.879-1.408,20.779c-0.334,3.194-1.538,6.302-2.41,9.432
		c-1.114,3.996-2.337,7.962-3.429,11.964c-1.146,4.198-2.908,8.029-5.728,11.412c-2.648,3.176-4.37,6.964-6.484,10.482
		c-2.45,4.079-4.332,8.989-9.331,11.059c-0.384,0.159-0.845,0.407-1.024,0.744c-3.107,5.832-9.056,8.56-13.847,12.503
		c-3.759,3.094-7.6,6.098-11.007,9.558c-5.217,5.298-11.805,8.539-17.942,12.454c-5.058,3.227-10.05,6.661-15.868,8.431
		c-5.601,1.704-11.27,3.183-16.908,4.765c-0.684,0.192-1.371,0.383-2.039,0.623C235.866,1678.212,223.338,1678.141,210.859,1679.165
		z"/>
	<path d="M484.885,1001.614c-0.747-1.042-1.818-0.576-2.755-0.574c-6.432,0.01-12.864,0.051-19.296,0.086
		c-2.583,0.014-5.122,0.386-7.672,0.8c-12.687,2.061-25.235,4.939-38.013,6.472c-0.976,0.117-1.906,0.586-2.874,0.82
		c-2.963,0.713-5.921,0.982-8.889-0.048c-8.393-2.912-16.78-5.84-25.203-8.662c-1.893-0.634-3.216-1.854-4.375-3.308
		c-5.263-6.603-10.473-13.249-15.719-19.865c-1.593-2.009-1.983-4.424-2.294-6.83c-1.134-8.761-2.197-17.531-3.283-26.298
		c-0.338-2.73-0.069-5.451,0.52-8.095c1.834-8.225,2.5-16.677,5.072-24.767c1.099-3.457,3.058-6.438,4.503-9.692
		c2.263-5.095,4.917-10.025,7.581-14.93c1.574-2.898,3.159-2.897,5.09-0.199c1.493,2.087,2.836,4.281,4.308,6.383
		c0.886,1.266,0.928,2.665,0.923,4.106c-0.041,11.175,0.263,22.365-0.243,33.519c-0.297,6.558,0.645,13.103-0.262,19.651
		c-0.292,2.104,0.357,4.199,1.645,6.093c2.653,3.904,5.195,7.888,7.658,11.916c1.252,2.047,2.934,3.429,5.056,4.46
		c5.915,2.876,11.756,5.908,17.709,8.703c2.027,0.952,4.135,1.21,6.605,0.761c9.111-1.656,18.319-2.773,27.47-4.227
		c6.761-1.074,13.458-2.582,20.239-3.477c5.372-0.709,10.64-1.922,15.985-2.708c5.828-0.857,11.682-0.458,17.525-0.038
		c7.244,0.521,14.479,1.154,21.667,2.206c1.408,0.206,2.488-0.265,3.649-0.866c8.125-4.209,16.308-8.31,24.378-12.623
		c2.351-1.256,4.413-1.547,6.899-0.484c2.485,1.062,5.189,1.552,7.721,2.581c1.789,0.728,2.851,1.683,3.045,3.666
		c0.445,4.552,0.939,9.101,1.525,13.636c0.267,2.064-1.035,3.195-2.264,4.36c-5.72,5.42-11.458,10.821-17.231,16.184
		c-11.547,10.726-23.219,21.321-34.65,32.17c-7.216,6.848-15.472,12.29-23.413,18.158c-11.636,8.597-23.405,17.015-35.117,25.508
		c-24.232,17.572-48.465,35.143-72.698,52.714c-1.403,1.018-2.868,1.822-4.654,2.058c-7.086,0.939-14.178,1.851-21.236,2.97
		c-5.296,0.84-10.53,0.633-15.819,0.003c-6.391-0.762-12.8-1.537-19.223-1.815c-5.736-0.249-10.869-2.019-15.9-4.533
		c-9.594-4.794-19.196-9.575-28.885-14.172c-2.417-1.147-3.789-2.755-4.735-5.16c-3.136-7.975-6.732-15.784-9.527-23.873
		c-1.666-4.821-2.26-10.028-3.166-15.092c-1.914-10.692-3.707-21.405-5.572-32.105c-0.604-3.464,0.452-6.823,0.595-10.244
		c0.245-5.839,1.122-11.654,1.302-17.492c0.204-6.583,2.537-12.169,6.438-17.354c3.339-4.437,6.276-9.174,9.547-13.664
		c1.247-1.712,2.871-3.169,4.425-4.635c4.879-4.604,9.86-9.092,15.012-13.396c1.826-1.525,3.28-1.435,5.406-0.439
		c6.151,2.881,10.175,6.746,11.452,14.052c1.731,9.905,2.303,9.789-2.31,18.649c-5.418,10.406-10.775,20.844-16.205,31.243
		c-0.888,1.7-1.288,3.338-1.135,5.314c0.682,8.845,1.198,17.703,1.719,26.559c0.095,1.613,0.454,3.072,1.277,4.474
		c3.622,6.172,7.261,12.336,10.766,18.574c1.984,3.531,5.62,4.363,8.903,5.485c5.409,1.849,10.745,3.906,16.171,5.691
		c5.003,1.645,10.173,1.504,15.263,0.38c1.703-0.376,3.376-0.766,5.079-0.559c3.61,0.439,7.125-0.439,10.679-0.678
		c2.09-0.14,4.028-1.034,5.945-2.183c7.484-4.486,15.121-8.721,22.735-12.988c9.343-5.236,18.403-10.845,26.766-17.618
		c11.305-9.156,23.006-17.823,34.332-26.955c10.897-8.786,22.266-16.979,32.842-26.165
		C484.188,1002.779,484.978,1002.52,484.885,1001.614z"/>
	<path d="M633.91,733.203c3.824,0.205,7.799-0.161,11.774-0.613c9.12-1.036,18.203-0.876,27.244,0.864
		c5.303,1.02,10.682,1.804,15.918,2.975c6.641,1.485,13.344,2.663,20.016,3.811c10.759,1.851,20.876,5.596,31.219,8.772
		c5.571,1.71,11.087,3.637,16.713,5.211c7.553,2.113,15.009,4.601,22.418,7.183c4.964,1.73,9.759,2.942,14.952,0.812
		c2.213-0.908,4.752-0.984,7.09-1.629c3.301-0.91,4.008-1.781,3.564-5.23c-0.732-5.679-0.965-11.411-1.723-17.07
		c-1.654-12.333-2.9-24.708-4.234-37.074c-1.123-10.414-0.968-10.374,5.006-18.847c3.708-5.26,7.157-10.702,10.743-16.048
		c1.381-2.06,2.037-4.388,2.73-6.729c3.61-12.189,7.378-24.388,10.165-36.737c2.157-9.558,7.146-17.081,12.565-24.512
		c3.829-5.25,5.521-10.506,5.345-16.992c-0.349-12.877,0.044-25.774,0.001-38.662c-0.015-4.529,0.8-8.723,2.808-12.841
		c2.629-5.393,4.798-11.009,7.199-16.515c1.159-2.659,1.631-2.781,4.127-1.306c5.787,3.42,6.752,5.178,8.105,13.12
		c1.315,7.719,2.87,15.398,4.335,23.092c2.313,12.145,4.694,24.278,6.936,36.437c1.174,6.368,0.265,12.772-0.355,19.112
		c-0.293,2.993-0.493,5.979-0.529,8.963c-0.158,13.18-4.42,25.462-8.091,37.879c-1.622,5.484-3.278,10.959-4.83,16.463
		c-0.989,3.508-2.599,6.517-5.274,9.12c-5.44,5.294-10.635,10.84-15.954,16.26c-1.54,1.569-2.817,3.248-3.014,5.534
		c-0.012,0.14-0.061,0.281-0.115,0.413c-4.237,10.334-4.609,21.092-3.811,32.054c0.527,7.241,0.678,14.516,0.773,21.778
		c0.054,4.114,0.631,7.932,3.059,11.401c1.388,1.984,2.434,4.209,3.607,6.34c1.698,3.085,1.565,3.517-1.779,5.13
		c-2.575,1.243-5.161,2.474-7.801,3.569c-1.798,0.746-2.614,1.883-2.735,3.868c-0.383,6.284-1.031,12.553-1.379,18.839
		c-0.264,4.762,1.299,9.312,2.055,13.956c1.653,10.147,2.182,7.893-5.496,12.244c-11.044,6.259-7.539,4.937-18.832,0.485
		c-0.655-0.258-1.195-0.954-1.846-1.051c-2.58-0.382-3.036-2.189-3.275-4.329c-1.142-10.227-2.42-20.439-3.458-30.676
		c-0.349-3.443-1.898-5.395-4.835-7.339c-5.257-3.479-10.333-4.379-16.539-2.998c-12.65,2.814-25.508,2.284-38.362,1.122
		c-6.819-0.617-13.693-0.58-20.398-2.25c-8.043-2.004-16.149-3.777-24.135-5.984c-6.176-1.707-12.472-1.475-18.731-1.904
		c-3.271-0.224-6.589,0.255-9.814-0.677c-0.273-0.079-0.588-0.203-0.838-0.137c-7.26,1.912-13.525-1.503-19.786-4.072
		c-5.458-2.239-10.918-1.753-16.398-1.34c-13.188,0.992-26.356,2.253-39.528,3.453c-6.811,0.62-13.639,1.147-20.412,2.067
		c-7.451,1.013-14.511,0.171-21.365-2.958c-1.79-0.817-2.434-1.683-1.826-3.591c2.154-6.757,5.127-12.771,10.91-17.479
		c4.526-3.684,9.278-5.616,14.923-6.5c11.692-1.831,23.31-4.134,34.972-6.169c6.915-1.206,13.951-1.114,20.922-1.725
		C630.308,733.396,632.018,733.323,633.91,733.203z"/>
	<path d="M507.906,1637.051c0.079-1.862,0.15-3.723,0.245-5.583c0.333-6.516,3.804-9.876,10.266-9.949
		c0.143-0.002,0.287,0.007,0.43-0.004c2.843-0.22,6.196-0.903,8.213,1.095c2.592,2.568,4.349,6.071,4.985,9.824
		c0.787,4.642,1.431,9.314,1.955,13.993c0.345,3.083,1.548,5.61,3.273,8.215c4.211,6.357,10.644,9.872,16.632,13.997
		c1.374,0.947,2.951,1.134,4.517,0.53c5.024-1.938,10.666-2.833,14.767-6.445c6.612-5.824,13.6-11.363,17.648-19.623
		c3.834-7.824,9.912-14.009,16.233-19.808c2.562-2.35,6.201-3.494,9.247-5.356c3.654-2.234,7.76-2.725,11.831-3.394
		c5.504-0.905,11.01-1.799,16.528-2.613c1.978-0.292,3.99-0.398,5.991-0.481c7.329-0.304,14.673,0.246,21.825,1.521
		c7.759,1.383,15.384,1.109,23.095,0.444c2.42-0.209,4.834-0.568,7.257-0.626c2.825-0.068,5.347-1.003,7.749-2.313
		c4.774-2.603,9.489-5.312,14.25-7.939c1.823-1.006,3.059-2.254,3.645-4.435c2.531-9.416,6.054-18.485,9.993-27.399
		c0.689-1.559,1.131-3.197,0.624-4.992c-0.265-0.938-0.167-1.989-0.166-2.989c0.002-5.538-0.94-10.85-4.03-15.562
		c-2.982-4.547-3.03-9.758-3.492-14.859c-0.208-2.289,2.575-4.994,5.404-5.095c5.87-0.21,11.948-0.385,17.432,1.567
		c4.89,1.741,9.219,5.092,13.388,8.357c0.942,0.738,1.091,1.99,1.415,3.08c2.24,7.526,4.437,15.065,6.696,22.585
		c0.836,2.783,1.005,5.629,0.925,8.487c-0.224,8.013-0.555,16.022-0.781,24.035c-0.05,1.766-0.5,3.414-1.139,5
		c-1.765,4.38-3.755,8.673-5.421,13.089c-1.969,5.221-5.356,9.426-9.017,13.481c-1.92,2.127-3.871,4.228-5.74,6.399
		c-1.907,2.215-4.173,3.899-6.843,5.073c-6.669,2.933-13.338,5.864-19.989,8.836c-2.162,0.966-4.377,1.261-6.708,0.963
		c-17.525-2.24-35.126-2.279-52.741-1.745c-5.619,0.171-10.964,1.208-15.983,4.147c-4.672,2.736-9.719,4.842-14.643,7.134
		c-2.193,1.021-3.916,2.375-4.474,4.829c-2.302,10.128-8.489,18.023-14.857,25.8c-3.63,4.433-7.453,8.71-11.024,13.188
		c-1.794,2.25-4.114,3.438-6.691,4.338c-1.754,0.613-3.597,1.016-5.281,1.777c-8.743,3.952-18.183,3.292-27.374,4.421
		c-8.642,1.062-16.808-0.843-24.97-2.909c-5.378-1.362-9.404-5.304-13.808-8.452c-1.624-1.161-2.805-2.673-3.989-4.353
		c-6.286-8.921-9.63-19.089-13.128-29.237c-1.936-5.617-2.717-11.341-3.131-17.236
		C508.642,1645.596,508.144,1641.332,507.906,1637.051z"/>
	<path d="M555.427,1410.953c0.23-7.007,0.854-13.987,1.532-20.966c0.318-3.271,0.424-6.568,0.5-9.856
		c0.17-7.365,2.485-14.318,4.144-21.383c0.714-3.04,1.412-6.091,2.042-9.144c1.661-8.045,4.626-15.595,8.085-23.005
		c2.474-5.3,5-10.614,6.927-16.123c3.559-10.173,10.254-18.431,15.94-27.312c2.16-3.373,4.421-6.682,6.687-9.984
		c4.137-6.029,8.747-11.682,13.59-17.158c3.883-4.39,7.68-8.858,11.473-13.328c5.384-6.344,11.68-11.793,17.408-17.799
		c4.344-4.555,8.728-9.072,13.017-13.678c2.401-2.578,2.286-5.846,1.574-8.909c-2.105-9.05-4.701-17.832-9.243-26.168
		c-8.827-16.202-17.882-32.284-26.501-48.598c-3.743-7.085-7.424-14.249-10.438-21.66c-2.36-5.803-3.143-12.161-4.145-18.365
		c-0.568-3.518-1.881-6.854-1.904-10.528c-0.034-5.493,1.331-10.768,1.957-16.151c0.292-2.513,2.701-3.957,3.874-6.074
		c1.419-2.561,3.926-2.353,6.404-2.462c8.243-0.364,6.718-1.315,11.107,5.846c5.458,8.905,11.628,17.405,16.25,26.78
		c2.763,5.605,4.799,11.625,7.415,17.286c4.793,10.373,9.164,20.917,13.748,31.372c5.571,12.709,11.026,25.469,16.526,38.209
		c0.283,0.656,0.408,1.409,0.802,1.983c4.965,7.236,4.438,15.025,2.414,22.99c-0.597,2.35-1.109,4.707-1.285,7.155
		c-0.144,1.996-1.065,3.809-2.109,5.558c-7.41,12.421-14.706,24.91-22.175,37.295c-3.641,6.038-8.725,10.976-13.179,16.39
		c-5.551,6.747-11.274,13.354-16.975,19.976c-3.772,4.381-6.323,9.538-9.33,14.403c-4.063,6.573-7.867,13.311-12.072,19.79
		c-2.879,4.436-3.922,9.502-5.699,14.313c-1.734,4.693-3.209,9.485-4.679,14.27c-1.736,5.652-4.273,10.887-7.437,15.881
		c-3.294,5.198-6.276,10.593-9.507,15.831c-1.256,2.037-1.791,4.131-1.78,6.5c0.035,7.588-0.302,15.187,0.011,22.761
		c0.405,9.83-1.924,19.31-3.05,28.942c-0.282,2.411-0.786,4.796-1.132,7.201c-0.227,1.577-1.053,2.168-2.639,2.078
		c-4.322-0.246-8.304-2.086-12.575-2.591c-1.362-0.161-1.573-1.638-1.728-2.712C557.88,1430.209,554.911,1420.813,555.427,1410.953z
		"/>
	<path d="M742.688,1280.805c6.155-0.37,12.188,1.018,18.295,1.265c3.261,0.132,6.276,1.723,9.613,1.548
		c1.409-0.074,2.283,1.118,3.029,2.169c3.313,4.665,6.583,9.362,9.871,14.045c1.227,1.747,1.247,3.752,1.277,5.768
		c0.093,6.235,0.023,12.481,0.377,18.702c0.281,4.946-0.818,9.649-1.838,14.365c-1.117,5.167-2.676,10.237-3.868,15.389
		c-0.348,1.504-1.024,2.566-2.119,3.567c-7.817,7.149-15.645,14.286-23.374,21.53c-4.796,4.495-9.428,9.155-13.806,14.078
		c-10.754,12.09-21.472,24.219-32.513,36.045c-6.249,6.694-13.126,12.8-19.685,19.206c-6.453,6.303-12.854,12.661-19.297,18.975
		c-1.354,1.327-2.247,2.944-3.174,4.561c-6.696,11.677-13.675,23.201-20.014,35.068c-3.313,6.201-8.655,7.88-14.716,8.644
		c-2.962,0.374-6.033-0.159-9.013,0.137c-3.731,0.371-5.728-1.963-7.954-4.229c-2.361-2.404-3.318-4.812-2.64-8.449
		c0.938-5.03,1.064-10.228,1.806-15.332c0.277-1.908,0.809-3.53,1.87-5.137c8.439-12.767,17.716-24.89,27.46-36.69
		c12.843-15.554,25.859-30.96,38.913-46.335c2.127-2.505,4.081-5.177,6.373-7.519c5.483-5.603,9.253-12.303,12.871-19.147
		c4.346-8.22,8.935-16.312,13.221-24.563c3.182-6.125,8.289-10.54,12.967-15.341c5.089-5.221,10.335-10.271,15.969-14.933
		c3.787-3.134,4.898-7.928,6.43-12.37c0.349-1.011-0.141-1.976-0.629-2.863c-1.102-2.003-2.22-3.998-3.351-5.986
		c-0.842-1.479-2.134-2.352-3.832-2.395c-3.756-0.095-6.787-2.127-9.938-3.736c-2.708-1.383-2.788-2.219-0.974-4.596
		c0.864-1.132,1.87-2.16,2.856-3.193c1.428-1.496,2.965-2.534,5.28-2.089C739.792,1281.228,741.266,1280.879,742.688,1280.805z"/>
	<path d="M600.071,951.289c-1.094,0.083-1.251,0.139-1.378,0.099c-5.826-1.848-10.991-5.018-14.684-9.742
		c-2.099-2.685-2.814-6.514-3.6-10.022c-0.375-1.672-0.046-2.973,1.191-4.267c10.671-11.165,21.212-22.454,31.942-33.562
		c5.364-5.552,10.486-11.342,16.302-16.467c3.033-2.673,6.494-4.672,9.707-7.052c12.07-8.941,24.031-18.041,36.345-26.635
		c8.667-6.048,18.244-10.666,27.501-15.767c3.122-1.72,6.016-3.811,9.329-5.237c7.991-3.439,16.338-5.808,24.571-8.52
		c3.379-1.113,6.585-2.854,10.314-2.633c4.843,0.286,9.672,0.951,14.545,0.522c0.531-0.047,1.155,0.154,1.629,0.427
		c2.461,1.415,4.467,7.243,3.302,9.862c-1.337,3.008-2.863,5.931-4.276,8.905c-0.936,1.971-2.405,2.933-4.615,3.324
		c-5.484,0.97-10.896,2.347-16.385,3.282c-1.989,0.339-3.07,1.281-3.825,2.938c-0.593,1.303-1.198,2.601-1.775,3.911
		c-2.411,5.478-6.46,8.873-12.575,8.556c-6.747-0.35-12.171,1.835-16.773,6.683c-3.661,3.858-8.604,5.501-13.484,7.184
		c-3.781,1.304-7.537,2.679-11.319,3.98c-0.68,0.234-1.38,0.352-1.849,0.966c-1.918,2.511-2.153,5.601-2.607,8.516
		c-0.353,2.263,1.713,3.833,2.923,5.547c0.891,1.262,2.153,0.297,3.077-0.219c4.374-2.444,8.745-4.9,13.02-7.511
		c3.789-2.314,7.716-4.365,11.587-6.523c1.867-1.041,3.87-1.187,5.807-1.26c10.428-0.395,20.772-1.783,31.17-2.466
		c5.693-0.374,11.403-0.313,17.107,0.522c3.822,0.56,5.598,3.174,7.201,6.057c0.734,1.321,0.333,2.786-0.698,3.991
		c-3.655,4.272-7.484,7.978-13.326,9.526c-11.452,3.034-22.647,7.05-34.125,9.968c-9.19,2.337-17.135,7.078-25.336,11.377
		c-19.239,10.084-38.376,20.36-57.609,30.456c-2.783,1.461-5.579,2.875-8.271,4.504c-2.811,1.701-5.785,3.042-9.074,3.548
		C613.748,949.182,606.439,950.308,600.071,951.289z"/>
	<path d="M523.114,253.161c0-8.351-0.027-17.086,0.016-25.821c0.013-2.71-0.058-5.408,0.297-8.135
		c0.407-3.129-0.499-6.007-3.719-7.443c-6.405-2.857-10.041-7.586-12.056-14.451c-1.227-4.181-1.313-7.234,1.355-10.543
		c1.701-2.11,3.287-4.352,4.625-6.705c2.663-4.681,7.139-7.073,11.799-8.691c2.183-0.758,4.001-2.009,5.902-3.002
		c6.431-3.36,12.973-6.483,19.454-9.735c4.172-2.094,8.158-4.558,12.323-6.668c10.868-5.505,21.412-11.621,32.488-16.746
		c6.455-2.987,12.559-6.737,18.805-10.172c1.98-1.088,2.893-3.115,4.064-4.895c1.566-2.381,2.591-5.516,4.758-6.995
		c2.219-1.514,5.572-0.425,8.426-0.478c3.725-0.07,7.453-0.058,11.178-0.001c3,0.046,3.529,0.418,3.139,3.104
		c-0.81,5.578-0.908,11.47-5.69,15.646c-0.631,0.551-1.098,1.331-1.518,2.075c-4.196,7.424-11.924,10.319-18.66,14.412
		c-8.391,5.098-16.971,9.887-25.488,14.776c-6.065,3.481-12.179,6.88-18.236,10.374c-1.846,1.065-3.623,2.268-5.057,3.896
		c-4.166,4.728-8.311,9.476-12.521,14.165c-1.861,2.072-3.114,4.32-3.667,7.125c-0.856,4.34-1.926,8.656-3.217,12.887
		c-2.238,7.333-2.365,14.818-2.116,22.363c0.116,3.507,0.339,6.997-0.077,10.525c-0.263,2.23-0.271,4.532,0.193,6.826
		c0.453,2.235,0.632,4.597,0.126,6.836c-0.676,2.988,0.027,5.68,1.313,8.262c7.466,14.988,14.951,29.966,22.519,44.903
		c0.959,1.892,2.301,3.639,3.698,5.251c3.374,3.893,6.937,7.62,10.324,11.501c2.709,3.105,5.668,5.634,10.036,5.9
		c1.126,0.068,2.227,0.472,3.352,0.639c5.846,0.867,11.523,2.376,16.482,5.648c5.768,3.806,12.295,4.944,18.863,6.119
		c1.403,0.251,2.798,0.584,4.169,0.974c3.235,0.918,4.783,3.704,3.859,6.848c-1.017,3.461-2.963,4.629-6.774,5.226
		c-7.908,1.24-15.89,1.519-23.841,2.001c-7.645,0.464-15.352,1.219-22.862-1.781c-5.014-2.003-10.328-3.274-15.54-4.759
		c-3.396-0.968-6.834-1.81-10.286-2.557c-2.042-0.441-3.716-1.324-5.167-2.822c-7.575-7.82-15.181-15.612-22.79-23.399
		c-1.234-1.264-1.966-2.791-2.585-4.407c-3.628-9.464-7.263-18.925-10.907-28.383c-1.042-2.705-1.339-5.457-1.263-8.381
		c0.193-7.446,0.065-14.901,0.116-22.351C522.777,259.263,522.56,256.391,523.114,253.161z"/>
	<path d="M375.328,589.435c1.007,0.283,2.015,0.446,2.922,0.839c5.886,2.552,11.816,4.967,17.827,7.233
		c4.085,1.54,7.913,3.899,11.992,5.648c2.346,1.006,4.624,2.265,7.062,2.98c4.149,1.217,7.869,3.378,11.838,4.978
		c3.481,1.403,4.477,1.283,6.216-2.028c2.065-3.932,5.057-6.18,9.318-7.515c9.06-2.839,16.94-7.984,24.694-13.377
		c9.011-6.267,18.263-12.187,27.367-18.321c4.997-3.367,9.678-7.126,13.107-12.178c1.691-2.491,4.058-3.958,6.789-4.948
		c2.418-0.877,4.93-1.528,7.279-2.555c4.038-1.765,7.868-0.799,11.638,0.654c3.241,1.249,5.541,8.004,3.917,11.58
		c-2.01,4.428-4.231,8.761-6.38,13.125c-1.198,2.433-2.349,4.894-3.668,7.26c-4.356,7.815-2.91,15.562,1.964,22.057
		c4.831,6.439,7.443,13.393,8.792,21.026c0.593,3.354,2.012,6.231,3.746,9.043c4.358,7.066,8.746,14.113,13.048,21.213
		c0.943,1.556,2.586,3.119,2.015,5.039c-0.768,2.581-1.667,5.308-3.53,7.284c-1.483,1.573-3.966,1.748-6.001,1.669
		c-3.844-0.149-6.854,1.369-9.896,3.412c-4.269,2.867-8.682,5.53-13.118,8.137c-2.046,1.202-2.625,2.652-2.162,4.967
		c1.064,5.327,1.778,10.726,2.886,16.043c0.452,2.169,0.188,3.935-1.129,5.63c-0.527,0.679-1.103,1.343-1.496,2.097
		c-3.34,6.415-9.49,7.053-15.655,7.67c-1.039,0.104-1.972-0.313-2.897-0.696c-6.347-2.622-12.758-5.104-19.013-7.931
		c-4.885-2.208-8.56-6.165-12.555-9.626c-1.009-0.875-1.009-1.856-0.573-3.091c1.524-4.315,3.718-8.371,4.913-12.813
		c0.399-1.483,1.554-2.466,2.859-3.062c7.22-3.297,10.678-9.131,12.432-16.68c2.667-11.478,8.574-21.739,13.256-32.447
		c1.411-3.227,2.464-6.363,2.368-9.868c-0.117-4.292-0.197-8.586-0.358-12.877c-0.12-3.19-3.573-7.404-6.508-8.092
		c-1.086-0.255-1.973,0.279-2.828,0.748c-8.781,4.818-17.757,9.33-26.232,14.638c-5.174,3.24-9.77,7.507-14.269,11.695
		c-7.172,6.676-15.022,12.338-23.533,17.137c-1.494,0.843-2.964,1.736-4.394,2.684c-4.355,2.886-9.089,1.915-13.73,1.255
		c-1.563-0.222-1.841-2.077-2.395-3.343c-1.892-4.322-3.796-8.646-5.463-13.057c-0.846-2.24-2.25-3.904-3.88-5.553
		c-11.082-11.21-23.32-21.086-35.566-30.955c-0.554-0.446-1.159-0.847-1.635-1.365c-0.414-0.451-0.502-1.154,0.083-1.482
		C369.523,591.781,372.225,590.17,375.328,589.435z"/>
	<path d="M297.297,609.335c0.716,0,1.438-0.058,2.148,0.009c4.962,0.469,6.692,2.121,7.848,7.073
		c0.35,1.499-0.202,2.543-1.088,3.482c-4.405,4.667-8.894,9.255-13.279,13.941c-2.537,2.711-4.902,5.582-7.399,8.331
		c-7.257,7.992-15.988,14.315-24.18,21.246c-5.247,4.44-10.49,8.888-15.839,13.203c-1.839,1.484-2.497,3.455-3.051,5.513
		c-2.382,8.84-4.691,17.699-7.04,26.548c-0.844,3.18-1.771,6.339-2.575,9.53c-0.326,1.294-1.02,2.354-1.705,3.443
		c-6.645,10.553-7.821,11.49-19.088,16.967c-10.008,4.866-19.985,9.804-29.85,14.952c-3.543,1.849-7.022,3.826-10.622,5.583
		c-6.553,3.198-11.467,8.505-16.786,13.282c-1.702,1.529-1.937,3.791-2.691,5.774c-1.957,5.147-5.843,7.515-11.351,6.779
		c-0.994-0.133-1.991-0.263-2.975-0.456c-2.122-0.415-3.902,0.175-5.583,1.524c-3.461,2.777-6.899,5.604-10.543,8.127
		c-4.765,3.297-6.783,8.383-9.09,13.268c-1.12,2.371,0.005,4.883,0.792,7.107c1.304,3.685,0.035,6.389-2.394,8.933
		c-1.12,1.173-2.405,2.033-4.031,2.292c-4.482,0.713-8.078,2.706-10.149,6.947c-0.185,0.379-0.485,0.712-0.772,1.03
		c-3.175,3.524-4.947,7.662-5.196,12.385c-0.17,3.235-2.049,5.556-3.806,7.997c-0.867,1.206-1.896,1.313-2.937,0.508
		c-2.491-1.925-4.958-3.891-7.309-5.981c-0.826-0.735-1.144-1.872-1.21-3.107c-0.198-3.713-0.048-7.429-0.368-11.151
		c-0.161-1.867,0.755-3.919,1.506-5.757c2.32-5.676,4.815-11.281,7.202-16.93c1.251-2.961,3.15-5.515,5.418-7.676
		c4.031-3.842,7.72-7.991,11.476-12.08c5.569-6.062,12.457-10.503,18.884-15.506c4.95-3.854,10.284-7.188,15.164-11.156
		c4.043-3.287,9.083-4.756,13.734-6.91c3.73-1.727,7.648-3.051,11.371-4.792c2.319-1.085,4.418-2.562,6.009-4.736
		c3.968-5.425,8.035-10.779,12.128-16.112c3.04-3.961,3.305-8.716,4.083-13.352c1.086-6.478,2.337-12.929,3.354-19.418
		c0.31-1.977,1.199-3.506,2.521-4.823c9.204-9.169,18.195-18.571,27.742-27.369c7.982-7.355,16.374-14.289,24.906-21.033
		c4.031-3.187,7.989-6.513,11.763-9.978c5.12-4.7,11.079-8.094,16.723-11.978c6.131-4.218,12.4-8.235,18.604-12.346
		C291.895,609.726,293.367,609.226,297.297,609.335z"/>
	<path d="M676.73,136.944c1.575,0,3.152,0.048,4.725-0.012c1.824-0.07,3.278,0.473,4.58,1.848c3.113,3.289,3.204,4.097,1.487,8.336
		c-1.857,4.582-4.787,7.821-9.372,9.972c-5.8,2.721-11.36,5.992-16.89,9.219c-3.357,1.959-5.932,5.266-8.831,7.995
		c-1.251,1.178-2.255,2.725-3.683,3.587c-4.426,2.668-5.776,6.778-6.082,11.554c-0.176,2.744,0.51,3.521,3.327,3.66
		c5.196,0.255,10.235-0.584,15.226-1.944c8.537-2.325,17.158-4.317,25.838-6.016c3.89-0.761,6.903-2.663,9.125-5.825
		c1.419-2.02,3.095-3.009,5.664-3.212c2.575-0.204,5.141-0.191,7.708-0.294c3.193-0.128,6.116,0.016,8.251,3.247
		c0.969,1.467,3.246,2.088,4.719,3.446c1.308,1.206,2.087,2.338,2.266,4.307c0.422,4.658,1.275,9.275,1.554,13.963
		c0.121,2.027,1.158,3.537,2.757,5.045c4.949,4.666,10.565,3.065,16.144,2.31c4.086-0.553,8.126-1.434,12.273-1.537
		c1.031-0.025,2.217-0.202,2.862,0.544c3.475,4.018,8.321,7.205,8.331,13.41c0.002,1.121,0.405,2.237,0.556,3.365
		c0.456,3.411,0.847,6.791-1.015,10.008c-0.927,1.602-1.682,3.332-2.292,5.083c-1.231,3.533-3.596,6.082-6.507,8.295
		c-5.333,4.055-10.876,7.896-15.81,12.399c-5.366,4.897-11.636,4.74-18.07,4.617c-1.252-0.024-2.074-0.824-2.721-1.843
		c-0.919-1.446-1.89-2.859-2.808-4.306c-0.653-1.028-0.743-2.135-0.305-3.278c0.304-0.793,0.433-1.721,0.934-2.359
		c3.951-5.036,1.803-9.605-0.943-14.173c-0.541-0.9-1.259-1.602-2.167-2.02c-4.772-2.195-9.5-3.394-14.851-1.422
		c-4.382,1.615-9.068,2.496-13.685,3.35c-3.53,0.653-6.147-1.785-8.794-3.622c-1.028-0.713-0.587-2.139-0.422-3.252
		c0.485-3.251,1.094-6.484,1.549-9.739c0.694-4.962-3.516-9.197-8.569-8.425c-6.891,1.052-13.755,2.29-20.611,3.555
		c-2.764,0.51-5.32,0.596-7.716-1.226c-3.262-2.48-4.74-8.537-2.864-12.244c2.772-5.478,2.655-5.185-2.889-7.384
		c-3.108-1.233-5.861-1.221-8.654,0.055c-7.66,3.501-15.63,2.6-23.602,1.943c-0.284-0.023-0.571-0.071-0.843-0.154
		c-2.04-0.619-8.067-9.711-7.795-11.788c0.054-0.412,0.168-0.887,0.424-1.192c4.055-4.837,6.606-10.829,13.078-13.723
		c5.784-2.587,10.884-6.672,16.397-9.905c4.76-2.792,9.803-5.116,14.485-8.025c3.74-2.323,7.321-4.894,11.2-7.017
		c4.885-2.673,9.697-5.481,14.505-8.29C670.742,136.172,673.761,136.982,676.73,136.944z"/>
	<path d="M367.69,532.567c-0.573,0-1.157-0.076-1.717,0.012c-5.689,0.89-8.931-2.76-12.194-6.465
		c-1.592-1.807-0.651-3.467,0.051-5.172c2.821-6.852,7.113-12.598,12.648-17.545c7.887-7.05,15.621-14.273,23.349-21.499
		c8.53-7.975,16.905-16.117,25.484-24.038c10.064-9.292,19.855-18.858,29.445-28.635c6.222-6.342,11.466-13.507,17.178-20.278
		c7.197-8.53,14.039-17.358,21.632-25.555c1.486-1.604,3.063-3.06,5.011-3.967c6.329-2.948,12.33-6.553,18.82-9.191
		c2.948-1.199,5.998-1.72,9.044-2.436c8.836-2.078,17.696-2.913,26.734-1.522c4.125,0.635,7.102,5.649,4.971,9.153
		c-3.198,5.262-6.602,10.315-12.191,13.579c-4.306,2.515-8.215,5.703-12.365,8.495c-6.641,4.467-11.407,10.831-16.787,16.555
		c-9.22,9.811-18.091,19.949-27.363,29.709c-8.199,8.631-17.714,15.814-26.908,23.331c-9.512,7.777-19.019,15.566-28.694,23.137
		c-9.35,7.317-18.26,15.168-27.808,22.258c-5.242,3.893-9.735,8.816-14.21,13.641c-0.39,0.42-0.802,0.822-1.167,1.262
		C377.272,531.468,373.512,534.597,367.69,532.567z"/>
	<path d="M754.302,1007.32c-7.431-0.922-14.889-0.607-22.297-1.467c-4.201-0.488-7.98-2.205-11.917-3.399
		c-8.215-2.491-16.37-4.693-25.048-5.3c-5.796-0.406-11.681-0.419-17.456-1.525c-1.742-0.334-3.659,0.298-5.5,0.413
		c-3.842,0.24-7.675,0.687-11.541,0.279c-2.445-0.258-4.891,0.037-7.214,0.801c-5.586,1.837-11.238,3.448-17.001,4.562
		c-3.192,0.617-5.529,2.578-7.449,4.696c-4.575,5.047-10.794,6.137-16.785,7.884c-2.125,0.62-4.275-0.098-6.403-0.256
		c-2.555-0.19-5.091-0.641-7.636-0.967c-4.873-0.624-8.027-4.357-7.853-9.29c0.304-8.584,1.443-17.1,2.494-25.6
		c0.557-4.502,2.9-8.65,5.258-12.601c1.046-1.753,2.988-2.39,4.698-2.749c2.631-0.553,5.29-1.104,8.039-1.202
		c6.419-0.229,8.387,3.863,7.674,9.543c-0.383,3.053-1.921,5.963-2.964,8.929c-0.474,1.35-0.949,2.706-1.535,4.009
		c-0.589,1.311-0.241,2.193,0.989,2.8c2.597,1.281,5.412,1.935,8.239,2.11c2.547,0.158,6.264-3.718,6.6-6.443
		c0.21-1.704,0.295-3.424,0.451-5.135c0.452-4.985,2.822-7.294,7.822-7.62c0.428-0.028,0.883-0.095,1.286,0.009
		c4.264,1.108,8.064-0.009,11.812-2.088c5.192-2.879,11.092-2.678,16.738-3.016c4.987-0.299,9.958-0.77,14.89-1.377
		c7.377-0.907,14.546,0.434,21.768,1.224c6.515,0.713,13.005,1.69,19.479,2.719c7.173,1.14,14.553,0.846,21.559,3.158
		c1.925,0.635,3.927-0.528,5.94,0.223c9.155,3.414,18.021,7.297,25.4,13.961c1.654,1.494,2.386,2.942,1.895,5.243
		c-0.564,2.648-0.575,5.408-0.98,8.096c-0.263,1.747,0.546,2.633,1.94,3.388c4.448,2.408,9.069,2.419,13.736,0.937
		c2.033-0.646,3.954-1.655,5.908-2.539c2.413-1.091,4.808-1.462,7.457-0.689c4.071,1.188,6.289,6.917,3.214,9.9
		c-0.203,0.197-0.359,0.448-0.512,0.689c-0.662,1.049-2.314,1.954-1.628,3.238c0.804,1.505,2.517,2.24,4.315,2.416
		c0.142,0.014,0.286-0.005,0.43-0.004c6.333,0.048,6.475,0.165,6.829,6.522c0.226,4.062-0.38,8.099-1.868,11.801
		c-1.865,4.639-4.924,6.817-9.715,5.3c-0.682-0.216-1.372-0.475-2.074-0.544c-3.249-0.319-4.59-2.376-5.069-5.33
		c-0.319-1.967-0.768-3.912-1.112-5.875c-0.309-1.758-1.377-2.518-3.047-2.14c-7.089,1.605-12.879-1.113-18.308-5.271
		c-3.865-2.96-7.882-5.723-11.708-8.732C762.903,1008.148,759.078,1006.172,754.302,1007.32z"/>
	<path d="M845.39,462.468c-0.388-3.542,0.251-7.549-0.44-11.553c-0.314-1.824,0.69-3.608,1.766-5.178
		c2.344-3.419,4.769-6.787,6.989-10.285c2.781-4.382,6.954-7.181,11.217-9.716c5.515-3.279,10.721-7.004,16.082-10.498
		c3.251-2.119,6.682-3.586,10.335-4.828c8.642-2.938,17.254-5.992,25.74-9.348c4.166-1.648,6.782-5.657,10.393-8.16
		c5.196-3.603,6.867-8.786,8.822-14.465c2.447-7.113,2.24-14.092,1.785-21.194c-0.485-7.587-0.57-15.171-0.698-22.761
		c-0.031-1.821,0.603-3.196,1.686-4.675c4.044-5.52,9.895-7.986,16.066-9.995c1.236-0.402,2.519-0.35,3.814-0.204
		c4.003,0.454,7.602,2.481,11.62,2.917c1.423,0.154,2.094,1.447,2.548,2.673c1.485,4.006,2.81,8.075,4.385,12.044
		c1.362,3.431,1.054,7.021,1.008,10.501c-0.052,3.937,0.001,7.865-0.014,11.797c-0.046,12.888-0.496,25.774-0.718,38.662
		c-0.022,1.293-0.49,2.175-1.359,2.982c-4.199,3.901-8.379,7.821-12.6,11.699c-1.848,1.698-4.226,2.291-6.559,2.99
		c-13.245,3.969-26.618,7.527-39.58,12.409c-1.442,0.543-3.088,0.582-4.65,0.759c-5.518,0.626-10.897,2.365-16.533,2.054
		c-0.419-0.023-0.935-0.026-1.257,0.187c-4.496,2.969-9.627,5.13-12.993,9.573c-3.365,4.44-6.519,9.04-9.81,13.537
		c-2.053,2.806-3.331,5.786-4.006,9.305c-1.205,6.283-3.166,12.42-4.77,18.629c-0.744,2.879-1.342,5.795-2.098,8.671
		c-0.687,2.615-1.32,2.731-3.98,2.028c-4.133-1.091-6.177-3.86-7.96-7.604C846.19,478.212,845.489,470.656,845.39,462.468z"/>
	<path d="M768.24,1247.157c-0.815-3.479,0.785-6.098,3.205-8.667c8.575-9.102,15.989-19.053,21.399-30.403
		c0.867-1.819,1.516-3.668,1.8-5.669c2.105-14.851,3.367-29.784,4.602-44.727c0.387-4.686,0.284-9.41,1.104-14.093
		c0.455-2.597-0.083-5.383-0.273-8.076c-0.938-13.249-0.873-26.556-3.398-39.705c-2.096-10.917-3.412-21.984-5.046-32.989
		c-0.744-5.011,0.333-6.633,5.258-8.135c6.27-1.913,8.988-1.058,13.135,3.938c2.684,3.233,4.661,6.789,5.95,10.811
		c2.438,7.611,5.077,15.157,7.605,22.74c1.494,4.482,2.657,9.019,3.214,13.752c1.203,10.221,2.598,20.421,4.081,30.606
		c0.504,3.463,0.241,6.857-0.128,10.258c-1.234,11.372-1.874,22.817-4.164,34.063c-1.57,7.708-3.025,15.438-4.563,23.153
		c-0.646,3.241-1.781,6.196-3.878,8.908c-11.558,14.947-23.034,29.96-34.391,45.06c-2.387,3.173-5.357,3.976-8.975,3.799
		c-1.404-0.069-2.469-0.495-3.113-1.84C769.746,1255.932,767.605,1251.993,768.24,1247.157z"/>
	<path d="M497.413,803.219c-4.913,0.488-9.221-1.294-13.431-3.599c-2.816-1.542-2.957-1.377-4.828,1.22
		c-2.121,2.945-2.244,6.438-2.708,9.813c-0.18,1.311,0.708,2.467,1.588,3.426c2.626,2.866,3.634,6.385,4.245,10.094
		c0.975,5.92-1.817,9.72-7.66,11.215c-5.905,1.511-11.556,1.855-16.971-1.464c-9.921-1.514-8.51-3.891-13.691-10.862
		c-4.066-5.471-3.776-11.834-4.641-18.003c-0.178-1.27-0.123-2.583-0.398-3.827c-0.637-2.889-0.341-5.616,0.641-8.414
		c1.274-3.628,2.207-7.374,3.334-11.055c1.359-4.437,5.88-7.25,10.615-6.523c4.074,0.626,8.244,1.039,11.699,3.657
		c1.854,1.405,3.118,0.931,4.748-0.702c2.981-2.988,3.979-5.961,3.022-10.316c-1.497-6.807-2.126-13.813-2.964-20.754
		c-0.361-2.993-1.16-6.348,2.199-8.315c2.564-1.502,4.391-4.775,8.155-3.647c0.242,0.072,0.554-0.127,0.836-0.14
		c6.873-0.308,9.933,1.845,11.55,8.752c1.302,5.563,2.239,11.216,3.188,16.854c0.541,3.212,1.656,5.913,4.16,8.204
		c3.375,3.088,6.393,6.564,9.605,9.833c1.274,1.296,1.988,2.666,1.759,4.586c-0.558,4.686-1.044,9.384-1.4,14.089
		c-0.163,2.163-1.237,3.313-3.12,4.129C503.893,802.794,500.883,804.143,497.413,803.219z"/>
	<path d="M785.701,335.319c-7.166-0.003-14.332-0.003-21.498-0.002c-1.301,0-2.537-0.224-3.772-0.696
		c-5.73-2.191-11.516-4.24-17.221-6.496c-4.034-1.595-8.151-2.435-12.488-2.583c-4.343-0.147-9.632,4.033-9.661,8.414
		c-0.021,3.176-0.869,6.181-1.146,9.293c-0.334,3.748-9.172,6.732-12.271,4.552c-8.865-6.237-10.974-15.223-10.11-25.187
		c0.414-4.775,0.395-9.278-1.262-13.835c-1.055-2.9-1.704-5.849-0.86-9.191c1.576-6.239,5.666-8.622,11.57-9.373
		c6.388-0.812,12.463,0.767,18.607,1.895c9.413,1.729,6.659,0.285,12.133,7.816c2.305,3.171,5.024,5.863,8.536,7.69
		c0.889,0.462,1.899,0.839,2.582,1.525c4.935,4.956,11.244,5.584,17.733,5.972c7.853,0.47,15.659,0.74,23.522-0.202
		c10.76-1.288,21.574-2.117,32.358-3.216c2.977-0.304,5.964-0.248,8.953-0.723c2.559-0.406,4.833,1.445,7.252,2.189
		c2.629,0.809,3.812,2.277,4.651,4.771c0.731,2.172,0.174,3.762-1.262,5.013c-2.778,2.421-5.479,4.896-9.314,5.865
		c-7.04,1.778-13.965,4.004-20.975,5.906c-3.893,1.056-7.932,0.386-11.9,0.556C795.146,335.476,790.421,335.321,785.701,335.319z"/>
	<path d="M842.71,924.242c0.063,0.991,0.161,1.429,0.105,1.846c-0.269,2.026,0.997,4.51-1.306,5.945
		c-2.631,1.64-5.218,3.459-8.747,2.298c-4.2-1.382-8.598-2.184-12.752-3.676c-3.507-1.26-6.081,0.483-8.875,1.819
		c-1.368,0.654-0.999,1.968-0.887,3.041c0.744,7.145,2.19,14.074,5.491,20.585c2.32,4.577,4.57,9.256,5.253,14.458
		c0.612,4.659,1.187,9.323,1.79,13.983c0.198,1.532-0.232,2.099-1.972,2.45c-3.397,0.686-5.859-0.045-8.414-2.506
		c-4.902-4.72-8.964-9.985-12.39-15.831c-3.113-5.312-6.466-10.483-9.644-15.757c-1.009-1.674-2.4-2.855-4.089-3.679
		c-7.384-3.605-11.93-10.073-16.6-16.405c-0.661-0.897-1.153-1.973-1.496-3.039c-1.046-3.248,0.868-6.179,4.185-6.83
		c6.302-1.238,12.634-2.265,18.995-3.138c4.307-0.591,6.209-4.293,8.844-7.014c0.535-0.553-0.014-1.371-0.205-2.035
		c-3.039-10.566-5.5-21.3-9.139-31.692c-0.713-2.036-2.032-4.211,0.232-5.847c2.249-1.625,4.593-3.508,7.811-2.433
		c2.745,0.917,5.118,2.538,7.651,3.852c4.238,2.197,7.625,5.285,10.464,9.202c7.056,9.735,14.303,19.333,21.615,28.878
		C841.409,916.345,843.906,919.909,842.71,924.242z"/>
	<path d="M208.816,806.649c-1.26-2.096,0.388-3.55,1.643-5.098c8.29-10.227,16.588-20.448,24.894-30.661
		c9.2-11.312,18.337-22.677,27.654-33.892c4.212-5.07,9.459-9.135,14.244-13.649c9.012-8.501,19.384-15.115,29.76-21.736
		c1.444-0.921,2.872-1.875,4.238-2.906c5.768-4.353,12.568-5.956,19.452-7.291c1.738-0.337,8.342,3.754,8.964,5.307
		c0.63,1.573-0.959,5.509-3.079,7.138c-1.692,1.3-3.544,2.393-5.335,3.562c-7.794,5.086-15.539,10.249-23.411,15.21
		c-3.672,2.315-6.848,5.175-9.961,8.117c-11.146,10.532-22.199,21.162-33.354,31.683c-1.837,1.732-2.877,3.359-1.897,5.983
		c0.797,2.133,1.162,4.426,1.738,6.643c0.539,2.075,0.232,3.805-1.299,5.519c-3.463,3.875-7.064,7.509-11.858,9.749
		c-1.294,0.604-2.459,1.496-3.77,2.052c-3.926,1.666-6.387,4.609-8.038,8.464c-0.952,2.221-2.251,4.298-3.449,6.407
		c-0.868,1.528-2.172,2.644-3.666,3.55c-3.921,2.377-7.792,4.838-11.763,7.127c-4.599,2.651-9.553,0.484-10.837-4.68
		C209.167,811.172,208.552,809.089,208.816,806.649z"/>
	<path d="M164.808,869.485c0.585,5.164-0.179,9.953-3.427,14.208c-1.351,1.77-2.984,2.632-5.034,3.538
		c-4.052,1.791-6.78-0.003-9.687-2.131c-3.693-2.703-7.458-5.311-11.061-8.128c-2.009-1.571-4.033-1.841-6.399-1.208
		c-7.627,2.041-7.583,2.065-13.104,7.928c-4.121,4.376-8.35,8.653-12.622,12.882c-1.571,1.555-2.716,3.276-3.436,5.348
		c-2.208,6.349-4.411,12.703-7.872,18.523c-1.059,1.781-1.467,3.69-1.097,5.765c0.305,1.708,0.323,3.413-0.361,5.068
		c-2.07,5.002-9.464,7.118-13.973,3.988c-0.235-0.163-0.459-0.342-0.689-0.513c-6.308-4.688-6.058-4.709-6.721-12.564
		c-0.339-4.019,0.325-7.583,1.854-11.202c2.104-4.98,4.173-9.99,5.921-15.102c1.354-3.958,4.07-6.855,6.694-9.845
		c4.315-4.917,8.828-9.659,13.151-14.569c5.208-5.916,11.506-10.594,17.469-15.655c1.411-1.197,3.018-2.187,4.31-3.494
		c6.338-6.409,14.588-8.041,22.976-9.146c3.853-0.508,7.477,1.499,11.294,1.88c1.123,0.112,2.206,0.589,3.322,0.831
		c2.128,0.461,3.52,1.595,4.224,3.758c1.237,3.8,2.781,7.501,3.971,11.313C165.378,863.73,164.603,866.657,164.808,869.485z"/>
	<path d="M621.826,394.032c6.251,1.999,12.108-1.197,17.118-6.717c2.086-2.299,5.05-2.852,7.773-3.286
		c7.23-1.152,13.539-4.249,19.561-8.161c1.22-0.793,2.293-1.739,2.961-3.043c1.683-3.286,3.459-6.534,4.948-9.908
		c1.857-4.211,6.928-7.768,11.506-7.39c9.916,0.818,15.036,6.988,15.802,16.439c0.499,6.154,0.19,6.177-5.167,9.995
		c-1.047,0.746-2.159,1.422-3.105,2.281c-1.756,1.596-3.031,3.364-2.174,6.02c0.646,2.003,0.253,3.964-1.082,5.672
		c-0.174,0.223-0.28,0.499-0.426,0.746c-5.209,8.791-5.252,8.711-14.123,13.54c-4.417,2.404-8.844,4.521-13.945,5.045
		c-8.201,0.843-16.352,1.26-24.527-0.409c-5.406-1.103-10.821,0.129-16.136,0.938c-3.408,0.519-6.185,0.006-8.874-1.933
		c-0.811-0.585-1.699-1.065-2.562-1.575c-5.94-3.512-6.953-5.758-5.64-12.526c0.591-3.043,3.602-5.549,7.159-5.7
		C614.04,393.927,617.196,394.032,621.826,394.032z"/>
	<path d="M1029.245,252.446c4.964,1.331,10.626,0.245,16.123,1.369c2.383,0.487,4.314,1.381,5.697,3.395
		c0.565,0.824,1.132,1.658,1.795,2.401c3.394,3.809,3.35,4.082-1.044,6.779c-6.699,4.113-13.414,8.203-20.061,12.399
		c-2.481,1.566-5.101,2.546-7.996,2.863c-6.372,0.698-12.77,1.223-19.108,2.157c-4.934,0.727-9.792,1.964-14.684,2.975
		c-3.495,0.722-6.995,1.415-10.482,2.177c-2.208,0.483-3.453-0.092-4.829-2.21c-3.127-4.813-2.716-8.985,0.849-13.185
		c0.738-0.869,1.525-1.796,1.922-2.837c2.038-5.352,6.477-7.33,11.56-8.427c11.149-2.404,22.091-5.581,33.064-8.658
		C1024.202,253.042,1026.404,252.168,1029.245,252.446z"/>
	<path d="M1011.362,361.093c-1.283,0-2.58-0.128-3.845,0.022c-5.992,0.712-10.276-2.616-14.477-6.082
		c-1.361-1.123-1.255-2.518,0.121-3.616c3.116-2.486,6.256-4.945,9.456-7.321c0.766-0.569,1.695-0.962,2.758-1.05
		c5.09-0.424,10.195-0.553,15.286-0.866c3.938-0.242,6.367,1.986,8.971,4.155c4.012,3.341,4,3.436,0.016,6.844
		c-0.968,0.828-2.144,1.451-2.989,2.381C1022.517,360.122,1017.515,362.153,1011.362,361.093z"/>
</g>
</svg>
