<?xml version="1.0"?>
<svg xmlns:rdf="http://www.w3.org/1999/02/22-rdf-syntax-ns#" xmlns="http://www.w3.org/2000/svg" xmlns:cc="http://creativecommons.org/ns#" xmlns:dc="http://purl.org/dc/elements/1.1/" xmlns:svg="http://www.w3.org/2000/svg" id="svg2" viewBox="0 0 435.16 539.44" version="1.1">
  <g id="layer2" transform="translate(-146.34 -495.13)">
    <g id="g3763" stroke="#4d4141">
      <path id="path3069" d="m372.86 933.79-146.43 28.57 0.71-171.43 207.86 16.43-1.43 215.74 136.43-35.74" stroke-width="5" fill="none"/>
      <g id="g3757" stroke-width="2" fill="#a6a6a6">
        <path id="path3862" d="m310.62 622.14c-5.5825 2.4873-6.7597 9.5683-6.7597 9.5683l8.257 9.6725 7.5083 0.0521 13.241-8.4021 2.5355-7.9667s-19.2-5.4113-24.782-2.9241z"/>
        <path id="path3067" d="m166.43 708.79c7.53-0.61 28.57 15.72 28.57 15.72l13.571 0.71429 10-8.5714 22.143-35 19.29-22.14 7.8571-15.714s6.0297-3.3235 11.429-3.5714c5.3989-0.24796 20 4.2857 20 4.2857l28.571 5.7143 2.14-6.43-1.43-7.14-13.57-20.72-8.07-23.32s-4.2923-4.7447-3.3548-10.967c0.93747-6.2221 19.286-15.714 19.286-15.714s-9.1233-0.46073-10.592-1.6811c-1.4685-1.2204-3.2756-8.4489-3.2756-8.4489l-2.6913-8.3622-2.7705-2.8138 1.4719-6.5511v-8.5714s-0.77997-8.8103 1.4286-12.857c2.2085-4.0468 11.429-9.2857 11.429-9.2857s9.4617-2.7481 14.286-2.1429c4.824 0.60526 10.544 2.7063 13.571 5.7143 3.0272 3.008 4.2857 10 4.2857 10l-2.1429 13.571-0.71428 12.857 1.4286 5.7143 10.714-2.1429s9.9638-0.39912 13.571 1.4286c3.6076 1.8277 7.1429 7.8571 7.1429 7.8571l5.7143 12.143 5 19.286 2.1428 17.857 3.5714 20.714 2.8571 13.571s9.0781 10.41 10.714 15.714c1.6362 5.3042 0 14.286 0 14.286l13.571 18.571 20 29.286 4.2857-10s-0.29359-7.7216 1.4286-10 6.4286-2.8572 6.4286-2.8572l11.429 2.8572 7.8571 7.1428 15.714 8.5714s13.493 16.678 12.143 22.143c-1.3504 5.4651-7.107 4.7041-7.107 4.7041l-15.036-3.9898-14.286-8.5714-7.8571 20s-4.7936 9.8371-9.2857 11.429c-4.4921 1.5915-13.571-2.8571-13.571-2.8571s-13.927-8.2402-17.857-12.857c-3.9301-4.6169-6.4286-12.857-6.4286-12.857l-16.43-10.72-14.286-13.571-12.857-8.5714-7.1428 1.4286s-9.766 4.3994-15 4.2857c-5.234-0.11373-15-5-15-5l-12.857-6.4286-25.714-14.286-10.714-6.4286s-5.6355 17.014-10.714 23.571c-5.0788 6.5574-18.571 15-18.571 15s-19.448 16.668-23.571 23.571c-4.1236 6.9039-4.6206 12.472-7.8212 17.821-3.2006 5.3491-7.3817 12.237-12.893 12.893-5.5 0.64-12.85-7.87-12.85-7.87l-9.2857-10.714-16.429-9.2857s-14.185-17.112-12.857-23.571c1.3278-6.4595 2.4709-7.2417 10-7.8572z"/>
        <path id="path3071" d="m225 790.22 0.00001-13.571 212.86 11.429v19.286z"/>
        <path id="path3073" d="m360 552.36c-4.1256 1.6302-7.3769 7.0516-8.5714 11.429-1.1945 4.3769 1.4286 12.857 1.4286 12.857l-21.429 15.714-15 4.2857s-4.9532-0.79803-9.2857 0.33919-13.745 9.0332-13.745 9.0332 3.9765 6.5756 0.17332 12.77c1.8865 1.961 7.3609 1.2467 9.8383-3.9984 1.7811-3.7709 0.12831 1.1979 2.463 1.3938 2.3346 0.1959 10.556-3.824 10.556-3.824s4.6215 0.80435 6.2119-0.57686 1.4787-6.2268 1.4787-6.2268l3.0122 1.6848 16.144-3.1134s5.1785-0.62353 9.8626-1.5586c4.6841-0.93503 12.59-4.1242 16.941-8.5714 4.3512-4.4472 9.2065-15.923 9.2065-15.923s-0.0816-10.297-1.4286-14.286c-1.3469-3.9887-5.7143-9.2857-5.7143-9.2857s-8.0172-3.7731-12.143-2.1429z"/>
      </g>
    </g>
  </g>
  <metadata>
    <rdf:RDF>
      <cc:Work>
        <dc:format>image/svg+xml</dc:format>
        <dc:type rdf:resource="http://purl.org/dc/dcmitype/StillImage"/>
        <cc:license rdf:resource="http://creativecommons.org/licenses/publicdomain/"/>
        <dc:publisher>
          <cc:Agent rdf:about="http://openclipart.org/">
            <dc:title>Openclipart</dc:title>
          </cc:Agent>
        </dc:publisher>
        <dc:title>hurdling_silhouette</dc:title>
        <dc:date>2013-04-21T10:54:48</dc:date>
        <dc:description>the silhouette of a man jumping an obstacle</dc:description>
        <dc:source>http://openclipart.org/detail/177334/hurdling_silhouette-by-fabuio-177334</dc:source>
        <dc:creator>
          <cc:Agent>
            <dc:title>Fabuio</dc:title>
          </cc:Agent>
        </dc:creator>
        <dc:subject>
          <rdf:Bag>
            <rdf:li>athlete</rdf:li>
            <rdf:li>black</rdf:li>
            <rdf:li>black and white</rdf:li>
            <rdf:li>clip art</rdf:li>
            <rdf:li>clipart</rdf:li>
            <rdf:li>correr</rdf:li>
            <rdf:li>corsa</rdf:li>
            <rdf:li>courir</rdf:li>
            <rdf:li>fitness</rdf:li>
            <rdf:li>hurdle</rdf:li>
            <rdf:li>hurdle race</rdf:li>
            <rdf:li>hurdling</rdf:li>
            <rdf:li>jump</rdf:li>
            <rdf:li>man</rdf:li>
            <rdf:li>obstacle</rdf:li>
            <rdf:li>obstacle race</rdf:li>
            <rdf:li>obst&#xC3;&#xA1;culo</rdf:li>
            <rdf:li>ostacolo</rdf:li>
            <rdf:li>race</rdf:li>
            <rdf:li>run</rdf:li>
            <rdf:li>saltar</rdf:li>
            <rdf:li>salto</rdf:li>
            <rdf:li>sauter</rdf:li>
            <rdf:li>silhouette</rdf:li>
            <rdf:li>sport</rdf:li>
            <rdf:li>sprint</rdf:li>
          </rdf:Bag>
        </dc:subject>
      </cc:Work>
      <cc:License rdf:about="http://creativecommons.org/licenses/publicdomain/">
        <cc:permits rdf:resource="http://creativecommons.org/ns#Reproduction"/>
        <cc:permits rdf:resource="http://creativecommons.org/ns#Distribution"/>
        <cc:permits rdf:resource="http://creativecommons.org/ns#DerivativeWorks"/>
      </cc:License>
    </rdf:RDF>
  </metadata>
</svg>
